<svg xmlns="http://www.w3.org/2000/svg" width="512" height="380.457" viewBox="0 0 512 380.457"><path fill="#fff" d="M250.203 3.147L7.017 177.134C2.612 180.278.014 185.367 0 190.777v.04c.013 5.437 2.645 10.518 7.072 13.674l243.186 172.87c5.123 3.64 11.86 4.107 17.44 1.22 5.576-2.844 9.09-8.622 9.09-14.935v-81.35l218.42.006c9.28 0 16.792-7.512 16.792-16.805l-.007-150.518c.007-9.275-7.506-16.795-16.798-16.8H276.79V16.802c0-6.276-3.535-12.038-9.124-14.937-5.582-2.892-12.334-2.39-17.463 1.28z"/></svg>