<svg xmlns="http://www.w3.org/2000/svg" width="919.656" height="224.156"><path d="M431.03 1v85.53h64.908v21.626H386.75V86.53H254.53v21.626H386.69v115h21v-94.594h23.343v94.594h20.94v-94.594H475v94.594h20.938v-42.75h422.718V1H431.03zM8.907 1.5V31H29.25L1 179.97h17.844c9.666 0 20.322 2.5 32.468 2.5 42.632 0 67.407-45.62 67.407-82.314 0-28.005-11.63-40.656-26-40.656-15.12 0-29.755 10.43-37.69 17.625L64.188 31V1.5H8.907zM375.5 43.406c-8.484 0-15.375 6.883-15.375 15.375 0 8.477 6.89 15.376 15.375 15.376 8.484 0 15.344-6.9 15.344-15.375 0-8.49-6.86-15.374-15.344-15.374zM194.594 59.5c-43.88 0-66.438 38.175-66.438 73.875 0 29.483 18.326 49.094 44.844 49.094 9.674 0 29.023-3.468 39.938-7.19v-23.81c-15.374 2.98-22.086 3.968-30.75 3.968-14.38 0-19.594-11.152-19.594-22.313h19.594c33.21 0 50.562-15.113 50.562-39.406 0-21.814-14.85-34.22-38.156-34.22zm-6.22 28.03c4.707 0 8.69 2.22 8.69 8.657 0 8.435-8.437 17.594-20.345 17.594h-10.407c2.726-15.603 13.882-26.25 22.062-26.25zm-114.75 4.94c7.934 0 10.657 7.463 10.657 13.655 0 15.366-11.645 49.313-32.218 49.313-3.227 0-11.906-1.25-11.906-1.25l10.406-49.563c5.955-6.447 16.88-12.156 23.063-12.156zm180.907 35.686v95h20.908v-95H254.53zm44.126 0v95h20.938v-95h-20.938zm44.125 0v95h20.94v-95h-20.94z" fill="#ed192e"/><path d="M552.46 58.868v28.785s4.92 0 8.493-.082c10.373-.254 19.75-3.654 20.12-15.44.264-8.376-6.25-12.573-12.704-13.008-6.177-.41-15.91-.254-15.91-.254m0 38.303v31.496s6.653.23 10.908.05c12.466-.526 19.9-6.53 19.348-16.41-.517-9.682-7.358-14.1-17.78-15.012-4.82-.418-12.475-.123-12.475-.123m-19.183-40.01c-3.055-.436-4.977-1.003-4.977-1.003v-7.284s5.847.13 12.557.222c6.718.09 12.557-.436 20.76-.436 15.195 0 31.817 2.085 32.622 21.278.705 16.58-15.876 21.378-15.876 21.378s18.495 2.537 17.887 22.075c-.853 27.415-34.796 25.567-34.796 25.567H528.3v-7.055l10.906-2.094v-71.9s-2.004-.182-5.93-.75m157.428 30.15V74.743s-7.457 0-12.204.172c-4.19.156-10.734.616-10.734.616v6.89l10.734 1.397v55.14h12.55V109.82s-.52-13.83 5.936-20.722c4.534-4.845 14.036-2.915 14.036-2.915V74.045s-7.63-1.002-13.346 2.488c-5.404 3.3-6.972 10.775-6.972 10.775m-55.378-5.363c14.266.46 12.812 15.177 12.812 15.177h-27.906s1.396-15.612 15.094-15.177M619.36 106.68h41.434s4.098-34.015-25.213-33.334c-25.992.616-28.686 23.907-28.875 33.688-.13 7.967 1.668 21.698 12.065 28.662 4.262 2.867 12.918 4.87 21.435 4.484 7.67-.353 17.788-4.098 17.788-4.098v-9.863s-8.245 3.752-19.275 3.925c-21.624.353-19.357-23.464-19.357-23.464m104.317-53.315s-3.088-.484-5.067-.747c-2.2-.263-5.666-.567-5.666-.567v-6.626s7.834-.518 12.828-.608c4.23-.09 10.807 0 10.807 0v85.33l10.815 1.756v7.055h-34.45v-7.055l10.732-1.757v-76.78zm41.252 3.187c0-4.74 3.843-8.6 8.59-8.6 4.746 0 8.59 3.86 8.59 8.6 0 4.747-3.844 8.598-8.59 8.598-4.747 0-8.59-3.85-8.59-8.598m2.79 27.438l-10.987-1.478v-6.81c4.27-.385 6.406-.557 10.988-.738 5.537-.22 9.725-.394 12.468-.22v55.4l11.514 1.758v7.055h-34.97v-7.055l10.99-1.757V83.99zm42.477 54.967h12.738V108.16s-.55-5.807 1.568-11.958c2.037-5.938 6.71-12.688 16.138-13.255 11.03-.682 10.365 11.514 10.365 11.514v44.497h12.828V93.065s1.052-18.322-16.04-19.02c-20.818-.846-24.858 12.26-24.858 12.26V74.744s-4.476-.165-11.67.238c-6.85.395-11.802.855-11.802.855v6.808l10.734 1.265v55.05" fill="#fff"/></svg>