<?xml version="1.0" encoding="utf-8"?>
<!-- Generator: Adobe Illustrator 15.0.2, SVG Export Plug-In . SVG Version: 6.00 Build 0)  -->
<!DOCTYPE svg PUBLIC "-//W3C//DTD SVG 1.1//EN" "http://www.w3.org/Graphics/SVG/1.1/DTD/svg11.dtd">
<svg version="1.1" id="Layer_1" xmlns="http://www.w3.org/2000/svg" xmlns:xlink="http://www.w3.org/1999/xlink" x="0px" y="0px"
	 width="512px" height="411.929px" viewBox="0 0 512 411.929" enable-background="new 0 0 512 411.929" xml:space="preserve">
<path fill="#71C2AE" d="M60.952,280.381c53.923,15.881,152.167,22,185.399,63.571V109.708C213.119,68.143,114.875,62.012,60.952,46.125V280.381z
	 M60.952,3.75V0.339c53.923,15.887,152.167,22.012,185.399,63.583L256,66.702l9.643-3.119C298.881,22.012,397.119,15.881,451.048,0
	v3.411c14.976,4.512,24.381,8.435,24.381,8.435v36.572L512,34.446v294.352c0,0-217.404,15.238-256,82.798v0.333
	C217.398,344.381,0,329.143,0,329.143V34.792l36.571,13.964V12.185C36.571,12.185,45.977,8.262,60.952,3.75z M79.238,249.977
	v-38.048c45.946,10.464,109.232,17.476,146.285,41.023V291C188.471,267.464,125.185,260.452,79.238,249.977z M79.238,184.333
	v-38.054c45.946,10.471,109.232,17.482,146.285,41.03v38.048C188.471,201.821,125.185,194.81,79.238,184.333z M79.238,117.446
	V79.393c45.946,10.471,109.232,17.488,146.285,41.024v38.054C188.471,134.929,125.185,127.917,79.238,117.446z M451.048,280.036
	V45.786c-53.929,15.887-152.167,22.012-185.405,63.583v234.25C298.881,302.048,397.119,295.917,451.048,280.036z M432.762,249.643
	c-45.952,10.453-109.238,17.477-146.285,41.024v-38.06c37.047-23.536,100.333-30.56,146.285-41.024V249.643z M432.762,184
	c-45.952,10.452-109.238,17.477-146.285,41.023v-38.06c37.047-23.541,100.333-30.56,146.285-41.023V184z M432.762,117.107
	c-45.952,10.464-109.238,17.481-146.285,41.023v-38.054c37.047-23.541,100.333-30.56,146.285-41.023V117.107z"/>
</svg>
