<svg xmlns="http://www.w3.org/2000/svg" width="512" height="512" viewBox="0 0 512 512"><path fill="#FFD85F" d="M221 122.002c91.74 0 166 74.2 166 165.998 0 91.74-74.245 165.998-166 166-91.738 0-166-74.242-166-165.998C55 196.3 129.2 122 221 122m0-39.998C107.23 82 15 174.2 15 288s92.2 206 206 205.998c113.77 0 206-92.23 206-205.998 0-113.8-92.2-206-206-205.998zm-68.118 278.68c-22.253 8.708-40.598-1.278-36.917-25.08 3.68-23.808 24.797-74.773 27.81-84.412 3.01-9.638-2.763-12.28-8.95-8.358-3.57 2.293-8.873 6.89-13.426 11.355-1.264-2.832-3.04-6.068-4.373-9.166 7.43-8.29 19.85-19.41 34.553-23.44 17.567-4.83 46.934 2.9 34.314 40.29-9.012 26.655-15.385 45.05-19.4 58.776-4.015 13.705.788 16.605 7.81 11.237 5.49-4.175 11.337-9.854 15.623-14.256 1.983 3.602 2.603 4.745 4.574 8.873-7.47 8.432-26.918 28.375-41.59 34.182h-.028zm46.107-164.89c-10.094 9.568-25.054 9.36-33.424-.468-8.366-9.823-6.97-25.544 3.12-35.115 10.092-9.568 25.055-9.36 33.445.438 8.344 9.817 6.942 25.543-3.153 35.144h.012z"/><path fill="#43AEDD" stroke="#383838" stroke-width="5" stroke-miterlimit="10" d="M253.49 209.682c-10.41-5.63-12.81-16.57-5.355-24.432 7.452-7.865 21.932-9.674 32.34-4.046 10.415 5.63 12.812 16.568 5.36 24.434-.053.05-.1.1-.15.153-7.564-7.8-5.323-18.76 5.006-24.474 10.33-5.715 24.834-4.023 32.4 3.78 7.565 7.802 5.324 18.76-5.004 24.474-.068.04-.137.076-.202.112v14.204l27.045-2.725v19.068l-27.046-2.723v14.786h-27.047v1.168l35.287 30.547c2.114 1.44 2.28 3.9.376 5.496s-5.164 1.724-7.275.286c-.314-.215-.59-.455-.827-.723l-27.56-23.932v30.743c0 2.15-2.307 3.892-5.153 3.892-2.844 0-5.15-1.742-5.15-3.892V265.13l-27.56 23.933c-1.587 1.785-4.79 2.262-7.15 1.063s-2.992-3.615-1.406-5.4c.236-.266.513-.507.827-.72l35.287-30.548v-1.167H253.49v-42.608z"/><text transform="matrix(1.9433 0 0 1 224 416.185)" fill="#CE8329" stroke="#353535" stroke-width="6" stroke-miterlimit="10" font-family="'TimesNewRomanPSMT'" font-size="156.031">t</text><text transform="matrix(1.018 0 0 1 365.5 148.052)" fill="#FFD85F" font-family="'ArialMT'" font-size="170.912">+</text></svg>