<?xml version="1.0" encoding="utf-8"?>
<!-- Generator: Adobe Illustrator 16.0.0, SVG Export Plug-In . SVG Version: 6.00 Build 0)  -->
<!DOCTYPE svg PUBLIC "-//W3C//DTD SVG 1.1//EN" "http://www.w3.org/Graphics/SVG/1.1/DTD/svg11.dtd">
<svg version="1.1" id="svg2" xmlns:svg="http://www.w3.org/2000/svg"
	 xmlns="http://www.w3.org/2000/svg" xmlns:xlink="http://www.w3.org/1999/xlink" x="0px" y="0px" width="950px" height="620px"
	 viewBox="0 0 950 620" enable-background="new 0 0 950 620" xml:space="preserve">
<g>
	<rect x="0" y="2.105" fill="none" stroke="#333333" stroke-width="0.5" stroke-miterlimit="10" width="950" height="617.895"/>
	<line fill="none" stroke="#333333" stroke-width="0.5" stroke-miterlimit="10" x1="0" y1="590.434" x2="950" y2="590.434"/>
	<line fill="none" stroke="#333333" stroke-width="0.5" stroke-miterlimit="10" x1="0" y1="561.167" x2="950" y2="561.167"/>
	<line fill="none" stroke="#333333" stroke-width="0.5" stroke-miterlimit="10" x1="0" y1="531.601" x2="950" y2="531.601"/>
	<line fill="none" stroke="#333333" stroke-width="0.5" stroke-miterlimit="10" x1="0" y1="502.334" x2="950" y2="502.334"/>
	<line fill="none" stroke="#333333" stroke-width="0.5" stroke-miterlimit="10" x1="0" y1="472.768" x2="950" y2="472.768"/>
	<line fill="none" stroke="#333333" stroke-width="0.5" stroke-miterlimit="10" x1="0" y1="443.501" x2="950" y2="443.501"/>
	<line fill="none" stroke="#333333" stroke-width="0.5" stroke-miterlimit="10" x1="0" y1="413.934" x2="950" y2="413.934"/>
	<line fill="none" stroke="#333333" stroke-width="0.5" stroke-miterlimit="10" x1="0" y1="384.669" x2="950" y2="384.669"/>
	<line fill="none" stroke="#333333" stroke-width="0.5" stroke-miterlimit="10" x1="0" y1="355.101" x2="950" y2="355.101"/>
	<line fill="none" stroke="#333333" stroke-width="0.5" stroke-miterlimit="10" x1="0" y1="325.836" x2="950" y2="325.836"/>
	<line fill="none" stroke="#333333" stroke-width="0.5" stroke-miterlimit="10" x1="0" y1="296.269" x2="950" y2="296.269"/>
	<line fill="none" stroke="#333333" stroke-width="0.5" stroke-miterlimit="10" x1="0" y1="267.003" x2="950" y2="267.003"/>
	<line fill="none" stroke="#333333" stroke-width="0.5" stroke-miterlimit="10" x1="0" y1="237.436" x2="950" y2="237.436"/>
	<line fill="none" stroke="#333333" stroke-width="0.5" stroke-miterlimit="10" x1="0" y1="208.171" x2="950" y2="208.171"/>
	<line fill="none" stroke="#333333" stroke-width="0.5" stroke-miterlimit="10" x1="0" y1="178.603" x2="950" y2="178.603"/>
	<line fill="none" stroke="#333333" stroke-width="0.5" stroke-miterlimit="10" x1="0" y1="149.338" x2="950" y2="149.338"/>
	<line fill="none" stroke="#333333" stroke-width="0.5" stroke-miterlimit="10" x1="0" y1="119.771" x2="950" y2="119.771"/>
	<line fill="none" stroke="#333333" stroke-width="0.5" stroke-miterlimit="10" x1="0" y1="90.504" x2="950" y2="90.504"/>
	<line fill="none" stroke="#333333" stroke-width="0.5" stroke-miterlimit="10" x1="0" y1="60.938" x2="950" y2="60.938"/>
	<line fill="none" stroke="#333333" stroke-width="0.5" stroke-miterlimit="10" x1="0" y1="31.672" x2="950" y2="31.672"/>
	<line fill="none" stroke="#333333" stroke-width="0.5" stroke-miterlimit="10" x1="904.774" y1="2.105" x2="904.774" y2="620"/>
	<line fill="none" stroke="#333333" stroke-width="0.5" stroke-miterlimit="10" x1="859.547" y1="2.105" x2="859.547" y2="620"/>
	<line fill="none" stroke="#333333" stroke-width="0.5" stroke-miterlimit="10" x1="814.32" y1="2.105" x2="814.32" y2="620"/>
	<line fill="none" stroke="#333333" stroke-width="0.5" stroke-miterlimit="10" x1="769.092" y1="2.105" x2="769.092" y2="620"/>
	<line fill="none" stroke="#333333" stroke-width="0.5" stroke-miterlimit="10" x1="723.865" y1="2.105" x2="723.865" y2="620"/>
	<line fill="none" stroke="#333333" stroke-width="0.5" stroke-miterlimit="10" x1="678.638" y1="2.105" x2="678.638" y2="620"/>
	<line fill="none" stroke="#333333" stroke-width="0.5" stroke-miterlimit="10" x1="633.411" y1="2.105" x2="633.411" y2="620"/>
	<line fill="none" stroke="#333333" stroke-width="0.5" stroke-miterlimit="10" x1="588.185" y1="2.105" x2="588.185" y2="620"/>
	<line fill="none" stroke="#333333" stroke-width="0.5" stroke-miterlimit="10" x1="542.957" y1="2.105" x2="542.957" y2="620"/>
	<line fill="none" stroke="#333333" stroke-width="0.5" stroke-miterlimit="10" x1="497.731" y1="2.105" x2="497.731" y2="620"/>
	<line fill="none" stroke="#333333" stroke-width="0.5" stroke-miterlimit="10" x1="452.271" y1="2.105" x2="452.271" y2="620"/>
	<line fill="none" stroke="#333333" stroke-width="0.5" stroke-miterlimit="10" x1="407.044" y1="2.105" x2="407.044" y2="620"/>
	<line fill="none" stroke="#333333" stroke-width="0.5" stroke-miterlimit="10" x1="361.817" y1="2.105" x2="361.817" y2="620"/>
	<line fill="none" stroke="#333333" stroke-width="0.5" stroke-miterlimit="10" x1="316.59" y1="2.105" x2="316.59" y2="620"/>
	<line fill="none" stroke="#333333" stroke-width="0.5" stroke-miterlimit="10" x1="271.363" y1="2.105" x2="271.363" y2="620"/>
	<line fill="none" stroke="#333333" stroke-width="0.5" stroke-miterlimit="10" x1="226.135" y1="2.105" x2="226.135" y2="620"/>
	<line fill="none" stroke="#333333" stroke-width="0.5" stroke-miterlimit="10" x1="180.908" y1="2.105" x2="180.908" y2="620"/>
	<line fill="none" stroke="#333333" stroke-width="0.5" stroke-miterlimit="10" x1="135.681" y1="2.105" x2="135.681" y2="620"/>
	<line fill="none" stroke="#333333" stroke-width="0.5" stroke-miterlimit="10" x1="90.455" y1="2.105" x2="90.455" y2="620"/>
	<line fill="none" stroke="#333333" stroke-width="0.5" stroke-miterlimit="10" x1="45.227" y1="2.105" x2="45.227" y2="620"/>
</g>
<g>
	<path id="cuba" fill="#666666" stroke="#333333" d="M220.85,266.92v1.27l5.32,0.1l2.51-1.46l0.39,1.07l5.221,1.27l4.64,4.19
		l-1.06,1.46l0.189,1.66l3.87,0.97l3.87-1.75l1.74-1.75l-2.511-1.27l-12.949-7.6l-4.54-0.49L220.85,266.92L220.85,266.92z"/>
	<path id="usa" fill="#666666" stroke="#333333" d="M148.76,158.34l-1,4.02l-3.49-2.26h-1.74l-1,4.27l-12.21,27.36l3.24,23.84
		l3.99,2.01l0.75,6.53h8.22l7.97,6.02l15.69,1.51l1.74,8.03l2.49,1.76l3.489-3.51l2.74,1.25l2.49,11.54l4.229,2.76l3.49-6.53
		l10.71-7.78l6.97,3.26l5.98,0.5l0.25-3.76l12.45,0.25l2.49,2.76l0.5,6.27l-1.49,3.51l1.74,6.02h3.739l3.74-5.77l-1.49-2.76
		l-1.489-6.02l2.239-6.78l10.21-8.78l7.721-2.26l-1-7.28l10.71-11.55l10.71-1.76L272.8,199l10.46-6.02v-8.03l-1-0.5l-3.74,1.25
		l-0.5,4.92l-12.43,0.15l-9.74,6.47l-15.29,5l-2.439-2.99l6.939-10.5l-3.43-3.27l-2.33-4.44l-4.83-3.88l-5.25-0.44l-9.92-6.77
		L148.76,158.34L148.76,158.34z"/>
	<path id="spain" fill="#666666" stroke="#333333" d="M448.36,205h-12.74l-2.569-1.16l-1.24,0.09l-1.5,3.12l0.53,3.21l4.87,0.45
		l0.619,2.05l-2.119,11.95l0.09,2.14l3.45,1.87l3.979,0.271l7.96-1.96l3.89-4.9l0.091-4.99l6.899-6.24l0.351-2.76l-6.28-0.09
		L448.36,205L448.36,205z"/>
	<path id="portugal" fill="#666666" stroke="#333333" d="M430.93,211.24l-0.62,8.65l-1.771,1.6l0.181,0.979l1.24,2.05l-0.801,2.5
		l1.33,0.45l3.101-0.36l-0.181-2.5l2.03-11.59l-0.439-1.6L430.93,211.24L430.93,211.24z"/>
	<path id="majorca" fill="#666666" stroke="#333333" d="M461.1,217.21l-1.59,0.54l0.35,1.43h2.3l0.971-1.07L461.1,217.21
		L461.1,217.21z"/>
</g>
</svg>
