<?xml version="1.0" encoding="utf-8"?>
<!-- Generator: Adobe Illustrator 19.2.1, SVG Export Plug-In . SVG Version: 6.00 Build 0)  -->
<svg version="1.1" id="Capa_2" xmlns="http://www.w3.org/2000/svg" xmlns:xlink="http://www.w3.org/1999/xlink" x="0px" y="0px"
	 viewBox="0 0 950 620" style="enable-background:new 0 0 950 620;" xml:space="preserve">
<style type="text/css">
	.st0{fill:#CCCCCC;stroke:#FFFFFF;stroke-width:0.5;}
	.st1{fill:#555555;stroke:#FFFFFF;stroke-width:0.5;}
	.st2{fill:#999999;stroke:#FFFFFF;stroke-width:0.5;}
	.st3{fill:#FFFFFF;stroke:#555555;stroke-width:0.25;stroke-linejoin:round;}
	.st4{font-family:'OpenSans-Extrabold';}
	.st5{font-size:8px;}
</style>
<polygon class="st0" points="234.5,78.1 234.4,78.1 234.4,78 234.7,77.7 235.3,77.4 235.3,77.4 235,77.7 "/>
<path id="ES" class="st1" d="M447.3,208.3l0,0.1l0.1,0.2l0.1,0.1l0.2,0.1l0.2,0l0.3,0l0.2,0.1l0,0.2l0,0.2l-0.1,0.2l-0.1,0.1
	l0.1,0.1l0.1,0.1l0.1,0l0.1,0l0-0.1l0.1-0.1l0.1,0l0,0.1l0,0.1l0.3,0.1l0.7,0.3l0.3,0l0.2,0l0.1,0.1l0.4,0.4l0.1,0l0.2,0l0.2,0
	l0.2-0.1l0.1,0l0.1,0.1l0.1,0.1l0.2,0.1l0.2,0.2l0.1,0.1l0.7-0.1l0.2,0.1l0.2,0l0.2,0l0.4,0.1l0.3,0l0,0l0-0.4l0.1-0.1l0.1,0l0.2,0
	l0.7,0.2l0.3,0.1l0.3,0.1l0.2,0l0.2,0.1l0.2,0.4l0,0.2l0,0.1l0,0.1l0,0.1l0.1,0.1l0.1,0l0.1,0l0.1-0.1l0.3-0.2l0.1,0l0.4,0.2
	l0.2,0.1l0.1,0.1l0.1,0.1l0.1,0l0.2-0.1l0.3-0.1l0.5,0.1l0.5,0.2l0.2,0l0-0.1l0-0.1l0.1-0.1l0.1,0l0.2-0.1l0.2-0.1l0.2,0l0.2,0.1
	l0.3,0.1l0.2,0l0.1,0.2l0.1,0.1l0.1,0.2l-0.2,0.1l-0.1,0l0,0.4l0.1,0.1l0.1,0.1l0,0.1l0,0.5l-0.3,0.3l-0.4,0.4l-1.9,1.1l-0.5,0.5
	l-0.2,0.1l-1.4,0.3l-1,0.4l-0.5,0.1l-0.6,0.6l-0.3,0.3l0.2,0.1l0.3,0.3l-0.1,0.1l-0.4,0.2l-0.2,0.1l-0.1,0l-0.1,0l-0.7,1.1l-0.6,0.8
	l-0.3,0.3l-0.3,0.5l-0.7,1.3l0,0.4l0.3,1.3l0.2,0.3l0.3,0.3l0.5,0.2l0.1,0.2l-0.2,0.2l-0.5,0.4l-0.9,0.5l-0.4,0.4l-0.1,0.4l-0.3,0.2
	l-0.1,0.6l-0.2,0.4l0,0.1l-0.2,0.3l0,0.2l0.3,0.3l-0.1,0.1l-0.1,0.1l-0.3,0l-1.1,0l-0.9,0.6l-0.4,0.5l-0.4,1l-0.5,0.6l-0.2,0.1
	l-0.3-0.3l-0.4,0l-0.4,0.1l-0.2,0.2l-0.3,0.1l-0.3-0.1l-0.7-0.1l-0.3,0l-0.5,0.2l-0.4-0.1l-0.7-0.1l-1.5,0.1l-0.2,0.1l-0.2,0.2
	l-0.5,0.4l-0.7,0l-0.7,0.3l-0.2,0.2l-0.3,0.5l-0.1,0.3l-0.1,0l-0.1-0.1l-0.1,0L437,235l-0.2,0.1l-0.2,0l-0.5-0.2l-0.4-0.3l-0.2,0
	l-0.4-0.5l-0.2-0.3l-0.1-0.3l0-0.1l0-0.1l-0.3-0.1l-0.1-0.3l0.2-0.4l0.2-0.2l0.1-0.1l-0.3,0l-0.2,0.3l-0.3-0.4l-1.1-0.8l0.1-0.2
	l0-0.1l-0.2,0.2l-0.1,0.1l-0.6,0l-0.6,0.1l-0.2-0.9l-0.1-0.3l0-0.2l0.2-0.5l0.2-0.2l0.2-0.4l0.3-0.4l0.3-0.1l0.1-0.1l0.1-0.3
	l0.1-0.2l0,0l-0.4,0l-0.7-1l0-0.2l0.1-0.2l0.1-0.3l0-0.2l0.2-0.2l0.3-0.2l0.2-0.3l0.1-0.3l0-0.3l-0.1-0.2l-0.4-0.1l-0.4-0.7
	l-0.1-0.5l-0.1,0l-0.2-0.2l-0.2-0.4l0-0.1l0.2-0.1l0.9,0l0.2-0.1l0,0l0.2-0.3l0.2-0.5l0-0.3l-0.1-0.1l-0.3-0.3l0-0.1l0-0.1l0.2-0.2
	l0.3-0.2l0.1-0.2l0-0.1l-0.1-0.1l0-0.1l0-0.1l0-0.5l0-0.1l0-0.5l-0.1-0.4l-0.2-0.5l0-0.1l0.1-0.1l0.3-0.2l0.2-0.4l0.3-0.3l0.5-0.3
	l0.3-0.3l0.1-0.2l0.1-0.1l0-0.1l-0.1-0.2l-0.2-0.2l-0.2-0.1l-0.3,0l-0.2,0l0-0.1l0-0.3l0-0.3l0-0.1l-0.1-0.1l-0.2,0l-0.2-0.1l-0.2,0
	l-0.1,0.1l-0.5,0l-0.2-0.1l-0.1-0.1l-0.1,0l0,0.1l0,0.1l0,0.1l-0.2,0.1l-0.4,0.1l-0.3,0l-0.3-0.1l-0.1-0.1l-0.1-0.1l-0.6,0.1l-0.1,0
	l-0.2,0.1l-0.3,0.1l-0.2,0l-0.1,0l0-0.1l-0.1-0.2l0-0.1l0.2-0.3l0-0.1l-0.1-0.1l-0.1-0.2l0-0.1l-0.1,0l-0.2,0.1l-0.6,0.2l-0.1,0.1
	l-0.3,0.2l-0.3,0.3l-0.2,0.1l-0.1-0.1l0-0.6l0.3-0.4l0.2-0.2l-0.1,0l-0.2,0l0-0.2l0.1-0.1l0.1-0.2l-0.1-0.1l-0.1-0.1l0-0.4l0-0.1
	l0-0.2l-0.5,0.2l-0.1,0l0-0.3l0.3-0.4l0-0.1l-0.3-0.1l-0.2-0.2l-0.1-0.2l-0.2-0.3l0-0.2l0.2-0.5l0.2-0.2l0.2-0.1l0.4-0.4l0.6,0.1
	l0.4-0.1l0.3-0.2l0.2,0l0.3-0.2l0-0.2l-0.1-0.2l0.1-0.2l0.3-0.2l0.4-0.3l0.4,0l0.4-0.2l0.3,0.1l0.3,0l0.3,0.2l0.4,0.4l0.6,0.2
	l0.5-0.1l0.8,0l0.4,0.1l0.7-0.1l0.4,0l0.7-0.2l0.5,0.2l1,0.1l0.6,0.2l1.6,0.3l0.6,0l0.8-0.2l0.4-0.1l0.3,0.1l0.5-0.2l0.2,0l0.3,0.2
	l1,0.3l0.3-0.3l0.2-0.1l0.8,0.2l0.8,0.3l0.4,0l0.6-0.1L447.3,208.3L447.3,208.3z M464.4,221.6L464.4,221.6l-0.9-0.4l-0.3,0l-0.1-0.1
	l0-0.2l0-0.1l0.6,0l0.5,0.2l0.3,0.4l0,0.1L464.4,221.6z M461.2,221.8l0.3,0.1l0.3-0.1l0.2,0l0.1,0.1l0,0.2l-0.1,0.3l-0.2,0.3
	l-0.2,0.3l-0.1,0.3l-0.3,0.2l-0.2,0.1l-0.5-0.2l-0.3-0.1l-0.1-0.1l-0.1-0.4l-0.1-0.1l-0.2-0.1l-0.2,0.1l-0.2,0.2l-0.1-0.2l-0.2,0
	l-0.1-0.1l0-0.1l1.2-0.9l0.3-0.2l0.7-0.2l0.1,0l-0.1,0.1l0,0.1l0.1,0.1l0,0.1l-0.1,0.1L461.2,221.8z M456.4,224.9l-0.1,0.2l-0.4-0.1
	l-0.1-0.1l0.1-0.2l0.1,0l0-0.2l0.1-0.2l0.6-0.1l0.1,0.1l0,0.2l-0.4,0.4L456.4,224.9z M456.8,225.8L456.8,225.8l-0.2,0h-0.3l0-0.1
	l0-0.1l0.1-0.1l0.2,0.2l0.3,0L456.8,225.8z M413.9,258.7l-0.2,0.2l-0.2-0.1l0.1-0.5l0.1-0.1l0.4-0.2l0.3-0.1l0.1-0.2l0.1-0.1
	l0.1,0.1l-0.1,0.1l-0.1,0.5l-0.2,0.1L413.9,258.7z M402.3,260L402.3,260l-0.1-0.2l-0.3-0.6l0.2-0.3l0.4,0l0.1,0.2l0,0.2l-0.1,0.1
	l0,0.2l0,0.1L402.3,260z M412.5,261.1l-0.4,0.4l-0.4-0.1l-0.1-0.1l0.4-0.1l0.3-0.3l0.2-0.6l0.3-0.7l0.1-0.3l0.1-0.1l0.2,0l0.1,0
	l0.1,0.1l0,0.3l-0.1,0.6l-0.2,0.5L412.5,261.1z M406.5,260.4l-0.2,0.7l-0.2,0.3l-0.1,0.1l-0.3,0.1l-0.4-0.4l-0.2-0.5l-0.1-0.1
	l0.2-0.1l0.3,0l0.5-0.1l0.1,0l0.6-0.5l0.5-0.1l0,0.2L406.5,260.4z M404.1,261.5l-0.1,0l-0.1-0.1l-0.1-0.3l0.1-0.2l0.1-0.1l0.1,0
	l0.2,0.1l0.1,0.1l0,0.1L404.1,261.5z M409.1,261.1l0,0.2l0.1,0.2l0,0.4l-0.1,0.2l-0.3,0.2l-0.3,0l-0.2-0.1L408,262l0-0.3l0.2-0.2
	l0.1-0.3l0.6,0.1L409.1,261.1L409.1,261.1L409.1,261.1z M402.2,262.2l-0.3,0.5l-0.3-0.2l-0.1-0.1l-0.1-0.1l0.3,0l0.3-0.3
	L402.2,262.2z"/>
<path id="PT" class="st2" d="M404.1,245.8l0.4,0.2l0.4-0.1l0.4,0.2l0.2,0.1l-0.2,0.2l-0.2,0.2l-0.5,0l-0.4-0.2l-0.2-0.1l0-0.1
	L404.1,245.8z M382.1,231.9L382.1,231.9l-0.2,0l-0.2,0l-0.1-0.2l0.1-0.1l0.2,0l0.1,0.1L382.1,231.9z M380.4,228.8l0.2,0l0.9-0.1
	l0.2,0l0,0.3l-0.2,0.1l-0.5,0.1l-0.8-0.2l-0.3-0.2l0-0.2l0-0.1l0.2-0.1L380.4,228.8z M373.4,226.6l0.2,0.1l-0.4,0l-0.1,0.1l-0.3-0.1
	l-0.3,0l-0.2-0.2l0-0.2l0.1-0.1l0.3,0L373.4,226.6z M372,226.3l-0.3,0l-0.3-0.3l0.4-0.1l0.1,0.1l0.1,0.1l0.1,0.1L372,226.3z
	 M374.4,226.2l-0.1,0l-0.7-0.3l-0.3-0.1l-0.3-0.3l1,0.4L374.4,226.2z M376.4,225.9L376.4,225.9l-0.6-0.1l-0.2-0.1l-0.1-0.2l0.1-0.1
	l0.3,0l0.4,0l0.2,0.2v0.2L376.4,225.9z M365,223.2l-0.1,0.2l-0.2-0.1l-0.1-0.1l0.1-0.4l0.2-0.1l0.2,0.1L365,223.2z M429.4,214.3
	L429.4,214.3l0.2,0l0.3-0.1l0.2-0.1l0.1,0l0.6-0.1l0.1,0.1l0.1,0.1l0.3,0.1l0.3,0l0.4-0.1l0.2-0.1l0-0.1l0-0.1l0-0.1l0.1,0l0.1,0.1
	l0.2,0.1l0.5,0l0.1-0.1l0.2,0l0.2,0.1l0.2,0l0.1,0.1l0,0.1l0,0.3l0,0.3l0,0.1l0.2,0l0.3,0l0.2,0.1l0.2,0.2l0.1,0.2l0,0.1l-0.1,0.1
	l-0.1,0.2l-0.3,0.3l-0.5,0.3l-0.3,0.3l-0.2,0.4l-0.3,0.2l-0.1,0.1l0,0.1l0.2,0.5l0.1,0.4l0,0.5l0,0.1l0,0.5l0,0.1l0,0.1l0.1,0.1
	l0,0.1l-0.1,0.2l-0.3,0.2l-0.2,0.2l0,0.1l0,0.1l0.3,0.3l0.1,0.1l0,0.3l-0.2,0.5l-0.2,0.3l0,0l-0.2,0.1l-0.9,0l-0.2,0.1l0,0.1
	l0.2,0.4l0.2,0.2l0.1,0l0.1,0.5l0.4,0.7l0.4,0.1l0.1,0.2l0,0.3l-0.1,0.3l-0.2,0.3l-0.3,0.2l-0.2,0.2l0,0.2l-0.1,0.3l-0.1,0.2l0,0.2
	l0.7,1l0.4,0l0,0l-0.1,0.2l-0.1,0.3l-0.1,0.1l-0.3,0.1l-0.3,0.4l-0.2,0.4l-0.2,0.2l-0.2,0.5l0,0.2l0.1,0.3l0.2,0.9l-0.2,0l-1,0.6
	l-0.3,0l-0.6-0.2l-1-0.1l-0.3-0.1l-0.4,0.2l-0.3,0l-0.2,0.2l-0.2-0.1l0.2-0.5l0.3-0.9l0-0.6l0.1-0.5l-0.1-0.5l-0.2-0.3l0.2-0.8
	l0-0.4l-0.2-0.5l0.6,0.1l-0.2-0.2l-0.2-0.1l-0.2,0l-0.1,0l-0.5,0.2l-0.3,0.1l-0.1,0l0-0.3l-0.1-0.4l0.2-0.1l0.2,0l0.2-0.2l0.1-0.2
	l-0.1-0.4l0.2-0.3l0.4-0.3l-0.2,0l-0.2,0.2l-0.4,0.7l-0.1,0.3l-0.3,0.1l-0.3,0.1l-0.1,0l-0.2-0.1l0-0.2l0-0.2l0.1-0.4l0-0.5l0.2-0.5
	l0-0.1l0-0.2l0.2-0.2l0.2-0.1l0.3-0.4l0.4-1l0.5-1.1l0-0.1l-0.1-0.1l0-0.3l0.3-1.3l0.1-0.2l0.1-0.4l0-0.6l0.1-0.4l0-0.2l0-0.3
	l-0.2-0.5l-0.2-1l0-0.3l0.2-0.2l-0.3,0l-0.1-0.2l0-0.3l0.3-0.4l0.3-0.3l0.3-0.2l0.1-0.1l0.6-0.2l0.2-0.1l0.1,0l0,0.1l0.1,0.2
	l0.1,0.1l0,0.1l-0.2,0.3l0,0.1L429.4,214.3L429.4,214.3z"/>
<path id="BS" class="st2" d="M242,257.3L242,257.3l-0.3-0.3l-0.2-0.1l0.3-0.2l0.1-0.2l0-0.4l0.1-0.2l0-0.2l0.1-0.2l-0.1-0.2
	l-0.3-0.2l-0.5-0.7l-0.8-0.2l-0.4,0l0.2-0.1l0.2,0l0.3,0.1l0.4,0l0.2,0.2l0.2,0.3l0.2,0.1l0.1,0.1l0,0.1l0,0.1l0.3,0.1l0.3,0.2
	l0.1,0.6l-0.4,0.3l-0.1,0.9L242,257.3z M238.4,254.7l0.3,0.1l0.2,0l0.1-0.1l0.5,0l0.4-0.1l0.1,0.2l0,0.1l-0.9,0.1l-0.8,0.2l-0.4,0.2
	l-0.2,0l-0.2-0.1l-0.5-0.5l0.1,0l0.4,0.3l0.2-0.1l0.2-0.2l0-0.1l0-0.1l0.1-0.2L238.4,254.7z M243.6,258.6l0.5,0.3l0.4,0.1l0.4,0.4
	l0.2,0.2l0,0.1l-0.1,0.6l-0.1,0.4l0,0.3l-0.1-0.1l-0.1-0.2l-0.2-0.1l-0.1-0.1l0.3,0l0-0.4l0.1-0.3l0-0.3l-0.3-0.3l-0.2-0.3L244,259
	l-0.3-0.3l-0.2,0l-0.2,0l0.1-0.2l0.1-0.2l0,0L243.6,258.6z M240.5,261l0,0.4l0,0.3l0,0.1l-0.3,0.2l-0.1,0.1l-0.3,0.1l-0.2,0.1
	l-0.1-0.2l-0.2-0.1l0-0.2l-0.1,0.1l-0.2-0.1l-0.3-0.2l-0.2-0.3l0.3,0l0.1,0.2l0.2-0.2l0-0.1l0,0l-0.1-0.2l0.3-0.5l0.1-0.3l-0.1-0.5
	l0.1,0l0.4,0.2l0.2,0.2l0,0.2l0.2,0.2l0.2,0.5L240.5,261z M241.6,260l-0.3,0.1l-0.2-0.1L241,260l0.1-0.1l0.2-0.1l0.3,0l0.1,0.1l0,0
	L241.6,260z M247.3,262.5l0,0.2l-0.2,0l-0.3,0.1l-0.1,0l0.1-0.1l0.2-0.1l0-0.1l-0.2-0.2l-0.3-0.5l-0.1-0.1l-0.1-0.2l-0.2-0.2l0-0.1
	l0,0l0.2,0.1l0.4,0.7l0,0.1L247.3,262.5z M240.7,262.4L240.7,262.4l-0.3,0.3l0.2,0.1l0.2-0.3l0.2,0.2l0.1,0.5l0,0.1l0,0.1l0,0.1
	l0,0.1l-0.2,0.4l-0.6,0l0-0.3l-0.1-0.1l-0.1-0.5l-0.2-0.2l-0.2-0.4l0.1-0.1l0.2,0l0.1,0l0.3,0l0.2-0.1L240.7,262.4z M249.8,262.9
	l-0.2,0.3l-0.1,0l0.1-0.4l0.2-0.1l0.1,0L249.8,262.9z M246.3,264.8l-0.1,0l-0.2-0.1l-0.5-0.4l-0.2,0l0.1-0.2l0.2,0.1l0.4,0.3
	l0.1,0.2L246.3,264.8z M248.6,266.5L248.6,266.5l-0.4-0.5l-0.4-0.1l-0.3-0.1l0.1-0.1l0.2,0l0-0.2l-0.1-0.2l-0.2-0.4l-0.1-0.3
	l-0.1-0.1l0-0.2l0.3,0.4l0.1,0.3l0.2,0.3l0.1,0.6l0.4,0.2l0.3,0.3L248.6,266.5z M250.8,267L250.8,267l-0.1,0.2l-0.4-0.1l-0.1,0
	l-0.1-0.2l0-0.1l0-0.1l0.2,0.1l0.1,0.2L250.8,267z M250.4,268.6l-0.2,0.1l0-0.2l0.4-0.3l0.2-0.2l0.1-0.1l0-0.1l0.2-0.1l0.1-0.1
	l0-0.1l-0.2-0.2l0-0.1l0.1-0.1l0.3,0l-0.1,0.2l0.1,0.4l-0.4,0.5l-0.3,0.2L250.4,268.6z M253.7,267.9l0.2,0l0.1,0l0.3,0.1l0.2,0.1
	l0,0.1l-0.1,0.1l-0.3-0.2l-0.3,0l-0.4,0l-0.1,0l0.1-0.2L253.7,267.9z M254,270.7l-0.4,0.1l0-0.2l0.2-0.1L254,270.7z M253.7,271.6
	l-0.1,0.2l-0.3,0.4l-0.7,0.1l-0.7,0l-0.1-0.1l0-0.1l0.1-0.2l0-0.1l0-0.1l0.3-0.1l0.2-0.2l0.3,0l0.3,0.1l0.2,0l0.3-0.1l0.2-0.3l0.1,0
	L253.7,271.6z"/>
<path id="BZ" class="st2" d="M210.9,279.7l-0.1,0.3l0.1,0l0.1,0l0.3,0l0.1,0.4l0,0.3l-0.3,0.8l0,0.3l-0.1,0.4l0.2,0.3l-0.2,0.4
	l-0.1,0.2l0,0.4l0.1,0.7l-0.1,1l-0.3,0.4l-0.2,0.2l-0.3,0.4l-0.4,0.1l-0.5,0.7l-0.1,0.2l0.1,0.2l-0.1,0l-0.5,0l-0.3,0l0,0l0-0.7
	l0-1.1l0-0.8l0-0.8l0-0.6l0-0.8l0-0.7l0-0.3l0.1-0.2l0.2-0.1l0.3,0.2l0.1,0.1l0.1,0l0.1-0.1l0.2-0.3l0.4-0.6l0.2-0.5l0.2-0.1l0.2,0
	L210.9,279.7z M211.9,281.3l-0.1,0.1l0.1-0.2l0-0.1l0.2-0.5l0.1,0l0,0L211.9,281.3z M212.1,282.8l-0.2,0.4l0-0.1l0.1-0.3l0.1-0.1
	l0.1-0.1l0-0.1l0.1,0.1l0,0.1L212.1,282.8z"/>
<path id="CR" class="st2" d="M223.9,301.5l0.1,0.1l0.1,0.2l0,0.2l0.4,0.8l0.3,0.4l0.6,0.8l0.3,0.1l0.5,0.6l0.2,0.1l0.1,0.2l0.5,0.2
	l0.1,0.1l0,0.1l0,0.1l-0.1,0.1l-0.1,0l-0.2-0.1l-0.2-0.1l-0.1,0.1l0,0.2l-0.1,0.1l-0.1,0l0,0.1l0,0.6l0,0.5l0.2,0l0.3,0.2l0.1,0.1
	l0,0.1l0,0l-0.2,0.1l-0.2,0.1l-0.1,0.2l0.2,0.3l0,0.2l0,0.2l0,0.1l-0.4,0.2l-0.1,0.1l0,0.1l0.2,0.2l0.1,0.2l0.1,0.2l0,0.2l-0.2-0.3
	l-0.3-0.3l-0.2-0.2l0-0.4l-0.1-0.2l-0.3-0.2l-0.3-0.2l-0.2,0l0.1,0.2l0.3,0.3l0,0.1l0,0.2l-0.2,0l-0.2-0.1l-0.3,0l-0.2-0.1l-0.4-0.4
	l0.3-0.3l0.1-0.2l0-0.4l-0.1-0.2l-0.3-0.3l-0.4-0.4l-0.6-0.3l-0.3-0.2l-0.7-0.2l-0.3-0.1l-0.2-0.2l0-0.2l0.1-0.2l-0.2-0.3l-0.9-0.6
	l-0.5-0.2l-0.1-0.1l-0.1,0l0.1,0.4l0.2,0.3l0.6,0.2l0.2,0.1l0.1,0.2l-0.3,0.3L220,305l0,0.2l-0.1,0.1l-0.1-0.1l-0.4-0.5l-0.9-0.3
	l-0.2-0.2l-0.3-0.5l-0.1-0.5l0.1-0.3l0.4-0.5l0.1-0.2l0-0.1l0-0.2l-0.1-0.1l-0.3-0.2l-0.2-0.1l0.1-0.1l0.4-0.2l0-0.2l0-0.1l0.1,0
	l0.1,0l0,0l0.1-0.2l0.1-0.1l0.1,0l0.1,0.1l0.5,0.2l0.5,0.2l0.8,0.3l0.3-0.2l0.3-0.1l0.2,0l0.4,0.2l0.2,0l0.2,0l0.3,0.2l0.1,0.2
	l0,0.1l0.1,0.1l0.2,0l0.5,0.1l0.3,0l0.3-0.1l0.2-0.1L223.9,301.5z"/>
<path id="CU" class="st1" d="M229,265.7l0.7,0.1l0.6,0l0.3-0.1l0,0.1l0.3,0.2l0.1,0l0.4-0.1l1,0l0.1,0.1l0.2,0.2l0.3,0.1l0.3,0.1
	l0.3,0l0.3,0l0.3,0l0.3,0.2l0.1,0l0.3-0.1l-0.1,0.2l0.5,0.3l0.4,0.5l0.3,0.2l0.3,0.2l0.2,0.1l0.3,0.1l0.8,0l0.2,0l0.2,0.1l0.2,0
	l0.1,0l1.5,0.8l0.5,0.4l0.3,0.2l0.6,0.3l0.3,0.1l0.1,0l0-0.1l-0.2-0.2l0-0.1l0.2,0.1l0.4,0.4l0.1,0.1l0.2,0.1l0.2,0.1l-0.1,0.1
	l-0.2,0l-0.3-0.1l0.3,0.2l0,0.2l0.1,0l0.2-0.2l0.1-0.2l0.5,0.4l0.3,0.2l-0.1,0.1l0,0.1l0.3-0.1l0.1,0l0.1,0.1l0.1,0.2l0.3,0l0.3,0
	l0.5,0.1l0.5,0.3l0.5,0.1l0.5,0l0.2,0.1l0.1,0.2l-0.1,0.1l-0.1,0.1l0.2,0.2l-0.4,0.1l-0.1,0.1l0,0.1l0.1,0.1l0.2-0.1l0.3,0l0.5,0
	l0.4,0l0.7,0.1l0.2,0.1l0.4,0.2l0.2,0.2l0.4,0.4l0.4,0.2l0.3,0l0.1,0l0.1,0l0.1,0.1l0.1,0.2l0,0.2l-0.2,0.2l-0.1,0.1l-0.4,0
	l-0.6,0.1l-0.6,0.2l-0.3,0.1l-0.1,0.1l-0.3,0.1l0-0.1l0-0.1l-0.1-0.2l-0.1,0.1l-0.1,0.1l-0.2,0.1l-0.7,0l-0.3-0.1l-0.3-0.1l-1.1-0.1
	l-0.3,0l-0.7,0.1l-0.7,0l-0.3,0.1l-0.3,0.1l-0.6,0l-0.7,0.1l-0.7,0l0.5-0.7l1-0.6l0.2-0.1l0.1-0.2l0-0.1l0-0.1l-0.2-0.2l0-0.2
	l-0.1-0.1l-0.3-0.1l-0.3-0.1l-0.4,0l-0.7-0.1l-0.4,0l-0.3-0.1l-0.6-0.5l-0.3-0.1l-0.1-0.1l-0.1-0.1l-0.1-0.7l-0.1-0.4l-0.2-0.3
	l-0.3-0.2l-0.3-0.1l-1,0.2l-0.2,0l-0.2-0.1l-1.6-0.5l-0.6-0.3l-0.3-0.1l-0.2-0.2l-0.2-0.3l-0.3-0.3l0,0.1l0,0.1l-1.3,0l-0.2-0.1
	l-0.1-0.1l-0.1-0.1l-0.1-0.2l-0.1-0.2l0,0.2l-0.1,0.2l-0.2,0.1l-0.2,0l-0.2-0.2l-1.1,0l-0.1,0l-0.3-0.2l-0.3-0.3l0.3-0.1l0.6-0.1
	l0.1-0.1l0.1-0.1l-0.1-0.2l-0.1-0.1l-0.1-0.1l-0.1,0l-0.2,0l-2.3,0l-0.1,0.1l-0.2,0.2l-0.4,0.2l-0.3,0.3l-0.1,0.1l-0.1,0.1l-0.3,0.2
	l-0.2,0.2l-0.3,0.1l-0.2-0.1l-0.2,0l-0.1,0.1l-0.1,0l-0.6,0l-0.1,0.1l-0.1,0.2l-0.1,0.3l-0.1,0.1l-0.3,0l-0.3,0.1l-0.6,0.3l-0.2,0
	l0-0.2l0-0.2l-0.2,0l-0.2,0l-0.2,0.1l-0.3,0.2l-0.1,0l-0.1-0.1l0-0.1l1-0.4l0.1,0l0.2,0l0.2,0l0.1-0.1l-0.2-0.5l0.1-0.4l0.2-0.3
	l0.4-0.4l0.2-0.1l2.2-0.9l0.2,0l1.4-0.2l0.2-0.1l0.7-0.3l0.7-0.1L229,265.7z M236,267.2L236,267.2l-0.5-0.1l-0.2-0.2l-0.1-0.1l0.1,0
	L236,267.2L236,267.2z M238,267.5l0.4,0.1l0.1,0l0.1,0l0.1,0l0.2,0.3l-0.2,0h-0.1l-0.1,0l-0.3,0l-0.2-0.1l-0.1-0.1l-0.1-0.1
	L238,267.5z M239.7,268.4L239.7,268.4l-0.2-0.1l-0.2,0l-0.1-0.2L239,268l0-0.1l0.2,0l0.1,0l0.2,0.1L239.7,268.4L239.7,268.4z
	 M240.1,268.8L240.1,268.8l-0.4-0.1l-0.1-0.1l0.1-0.1l0-0.2l0,0l0,0.2l0.2,0.1l0,0l0.1,0.2L240.1,268.8z M240.7,269.4l-0.1,0.1
	l-0.1-0.1l-0.1,0l-0.1-0.1l-0.2-0.1l-0.1-0.2l0.2,0l0.2,0l0.4,0.1l0,0.2L240.7,269.4z M227,270.5l-0.3,0.2l-0.6,0.2l-0.3,0l-0.3-0.1
	l-0.2-0.2l-0.1-0.2l0-0.1l0.2,0.1l0.2,0.1l0.1,0l0.1-0.1l-0.3-0.6l0-0.1l0.2-0.3l0.7,0.1l0.1,0.1l0.1,0.2l0.1,0.2l0.2,0.4L227,270.5
	z"/>
<path id="DO" class="st2" d="M257.3,281l0-0.5l0.1-0.2l-0.1-0.2l-0.3-0.2l-0.2-0.3l-0.2-0.3l0,0l0.3,0l0.1-0.1l0.2-0.3l0-0.2l0-0.2
	l-0.1-0.2l-0.1-0.2l0.2-0.2l0.2-0.3l0-0.1l0-0.1l-0.3-0.3l0-0.1l0.1-0.3l0-0.2l-0.1-0.6l-0.1-0.1l0.1,0l0.1-0.2l0.1-0.2l0.1-0.1
	l0.2-0.1l0.3,0l0.4,0.1l0.1,0l0.4-0.1l0.4-0.1l0.3,0.1l0.1,0.1l0.3,0.2l0.1,0.1l0.4,0l0.1,0l0.4,0.3l0.3,0.1l0.2,0l0.3-0.1l0.2,0
	l0.2,0.2l0,0.3l0.2,0.3l0.2,0.2l1.2-0.1l0.3,0.2l-0.1,0.1l-0.2,0.1l-0.6,0l-0.2,0l0,0.1l0,0.1l0.3,0l0.3,0.1l0.3,0.1l0.3,0.1l0.4,0
	l0.4,0.1l0.6,0.2l0.7,0.6l0.2,0.1l0.1,0.2l-0.1,0.2l-0.2,0.4l-0.1,0.1l-0.2,0.1l-0.1,0.1l-0.1,0.2l-0.1,0l-0.1,0l-0.2-0.1l-0.1-0.2
	l-0.3-0.2l-0.4,0l-0.6-0.1l-0.3,0.1l-0.3,0l-0.4-0.1l-0.4,0l-0.4,0.1l-0.3,0.1l-0.1,0.1l-0.2,0.2l-0.1,0.1l-0.8,0.1l-0.2-0.1
	l-0.2-0.2l-0.3,0l-0.5,0.2l-0.3,0.1l-0.1,0.1l0,0.1l0,0.3l-0.1,0.2l-0.5,0.6l-0.3,0.5l-0.1,0.1l-0.1,0l-0.2-0.3l-0.1-0.1l-0.2,0
	l-0.1-0.1l0-0.2l0-0.2l-0.1-0.2L257.3,281z"/>
<path id="GT" class="st2" d="M208.5,281.6l0,0.7l0,0.8l0,0.6l0,0.8l0,0.8l0,1.1l0,0.7l0,0l0.3,0l0.5,0l0.1,0l0.2,0.1l0.1,0l0.3,0.2
	l0.3,0.1l0.2-0.2l-0.1-0.1l-0.1-0.1l0-0.1l1,0.6l-0.1,0.1l-0.3,0.2l-0.5,0.4l-0.4,0.3l-0.4,0.3l-0.4,0.3l0,0l-0.5,0.2l-0.1,0.1
	l-0.1,0.4l0,0.1l0.1,0.2l0.1,0.3l0,0.2l-0.3,0.2l-0.1,0.2l-0.1,0.1l-0.1,0l-0.1,0l-0.2,0.1l-0.1,0l-0.1,0.1l0,0.1l0.1,0.2l0,0.1
	l-0.1,0l-0.3,0.1l-0.1,0.1l-0.1,0.2l-0.1,0.1l-0.1,0l-0.1,0l-0.2,0.1L206,293l-0.2,0.2l0,0.1l0,0.1l-1.1-0.5l-0.4-0.1l-1.5,0
	l-0.6-0.2l-0.7-0.4L201,292l-1.2-0.9l0.1-0.1l0.1-0.2l0.1-0.2l0-0.2l0-0.2l0.1-0.2l0-0.2l0-0.1l0.1-0.1l0.1-0.1l-0.4-0.5l0-0.1
	l0-0.1l0.3-0.5l0.4-0.6l0.4-0.7l0.2-0.4l0.8,0l0.6,0h0.7l0.8,0h0.5l0.2,0l0-0.3l0-0.3l0.1-0.3v-0.1l-0.2-0.1l-0.3-0.1l-0.2-0.1
	l0-0.2l-0.1-0.2l-0.1-0.2l-0.3-0.2l-0.4-0.2l-0.4-0.3l-0.3-0.4l-0.3-0.3l-0.2-0.1l0-0.1l0.6,0l0.6,0l0-0.6l0-0.5l0-0.6l1,0l1.2,0
	l1.3,0l1,0H208.5z"/>
<path id="HN" class="st2" d="M217.7,285.6l-0.2,0.2l0-0.1l0.1-0.2l0.1-0.1l0.1,0L217.7,285.6L217.7,285.6z M216.1,285.8l-0.4,0.2
	l-0.1,0l0.2-0.2l0.3-0.1l0.3-0.1l0.2,0L216.1,285.8z M225.3,289.8l-0.7,0l-0.3,0.1l-0.1,0.2l-0.1,0.1l-0.1,0l-0.2,0.1l-0.3,0.2
	l-0.3,0.1l-0.3,0l-0.1,0l0,0.1l0,0.1l-0.1,0l-0.1,0l-0.1-0.1l-0.1,0l0,0.1l-0.1,0l-0.1-0.1l-0.2,0l-0.2,0.1l-0.2,0l-0.3-0.1
	l-0.2-0.2l-0.2-0.2l-0.2-0.1l-0.4,0.2l-0.1,0.2l0,0.1l0,0.1L220,291l-0.2,0l-0.1,0.1l-0.1,0.2l0,0.2l0.1,0.1l-0.1,0.1l-0.2,0.1
	l-0.3,0.2l-0.3,0.3l-0.3,0.2l-0.3,0.1l-0.1,0.1l0,0.2l0,0l-0.1,0l-0.1,0l-0.6-0.3l-0.2-0.2l-0.1,0l-0.2,0.1l-0.2,0.3l-0.3,0.4
	l-0.1,0l-0.7-0.1l-0.3,0l-0.1,0l0,0.1l0,0.2l0.1,0.7l0.1,0.3l-0.1,0.1l-0.2,0l-0.2,0l-0.1,0.1l0,0.1l0,0.2l-0.1,0.2l-0.1,0.1l-0.1,0
	l-0.8,0l0-0.3l-0.2-0.1l-0.1-0.3l-0.1-0.2l0-0.1l0-0.1l-0.3-0.1l-0.3,0.1l-0.2,0l-0.1-0.1l0.2-0.1l0-0.1l-0.1-0.1l-0.1,0l0-0.2
	l0-0.2l0.1-0.5l0-0.1l-0.2-0.1l-0.3,0l-0.3,0l-0.1-0.1l-0.1-0.2l-0.2-0.1l-0.4,0.1l-0.4,0.2l-0.1,0.1l-0.1,0l0-0.1l0-0.2l0,0
	l-0.2-0.1l-0.2,0l-0.1,0l-0.1-0.1l-0.3-0.2l-0.1-0.1l-0.4-0.3l-0.1-0.1l-0.1-0.1l-0.2-0.1l-0.1,0l-0.5-0.1l-0.1,0l0.1-0.1l0.1-0.2
	l0.3-0.2l0-0.2l-0.1-0.3l-0.1-0.2l0-0.1l0.1-0.4l0.1-0.1l0.5-0.2l0,0l0.4-0.3l0.4-0.3l0.4-0.3l0.5-0.4l0.3-0.2l0.1-0.1l0.3,0.1
	l0.2-0.2l0.1-0.1l0.3-0.2l0.1,0l0.5-0.1l0.2,0l0.2,0.2l0.2,0.1l0.3-0.1l0.3,0l1.1,0.2l0.4-0.1l0.8,0l0.3,0.1l0.5-0.3l0.3-0.1
	l0.4-0.1l0-0.1l-0.1-0.1l0.6,0.1l0.8,0.3l0.9-0.1l0.3-0.2l0.2,0l0.9,0.3l0.2,0.2l0.2,0l0.1-0.1l0,0l-0.2-0.1l-0.1-0.1l0.7,0.1
	l1.4,1.1l0,0.1l-0.6-0.3l-0.3,0l-0.1,0.1l0,0.2l0,0.1l0.1,0l0.1,0l0.2,0.1l0.2,0.1l0.2,0.2l0.1,0.2l0.1,0l0.1-0.1l0.2,0l0.1,0.1
	l0.1,0l-0.1-0.2l-0.4-0.2l0.1,0l0.8,0.4l0.2,0.5l0.2,0.1L225.3,289.8z"/>
<path id="HT" class="st2" d="M254.8,275.1l0.1,0.1l0,0.1l-0.3-0.1l-0.3-0.1l-0.1,0l-0.1,0l-0.2-0.1l0.1-0.1l0.2,0l0.2,0L254.8,275.1
	z M257.2,276L257.2,276l0.2,0.7l0,0.2l-0.1,0.3l0,0.1l0.3,0.3l0,0.1l0,0.1l-0.2,0.3l-0.2,0.2l0.1,0.2l0.1,0.2l0,0.2l0,0.2l-0.2,0.3
	l-0.1,0.1l-0.3,0l0,0l0.2,0.3l0.2,0.3l0.3,0.2l0.1,0.2l-0.1,0.2l0,0.5l-0.2-0.2l-0.3-0.2l-0.2-0.1l-0.2,0l-1.2,0l-0.1,0l-0.1,0.1
	l-0.1,0l-0.3,0.1l-0.3,0l-0.8-0.2l-0.3-0.1l-0.3-0.1l-0.4,0l-0.4,0l-0.3,0.1l-0.2,0.2l0,0.2l-0.1,0l-0.3-0.3l-0.3-0.2l-0.3-0.2
	l-0.6-0.2l-0.1-0.1l-0.1-0.2l0.3-0.5l0.3-0.1l0.2,0l0.4,0.1l0.3,0.1l0.3,0.1l0.5,0l0.3,0.1l1.9,0.2l0.4,0.1l0.1,0l0.1-0.1l0.1-0.1
	l0.1-0.1l0.6,0l0.1,0l0.1-0.1l0-0.2l-0.3-0.2l-0.5-0.4l-0.5-0.5l0.2-0.2l-0.1-0.3l0.1-0.3l0.1-0.3l-0.5-0.3l-0.5-0.3l-0.7-0.1
	l-0.2-0.1l-0.1-0.2l0.1-0.3l0.2-0.1l0.3-0.1l0.3-0.1l0.7-0.1l0.7,0.1l0.6,0.3l0.6,0.2l0.7,0.1l0.3,0.1L257.2,276z M254.4,278.8
	l0,0.2l-0.7-0.2l-0.6-0.3l0-0.2l0.3,0l0.3,0.1l0.4,0.2L254.4,278.8z"/>
<path id="JM" class="st2" d="M241.9,279.7l0.3,0.1l0.4,0.1l0.2,0l0.1,0l0.3,0.3l0.3,0.1l1,0.3l0.3,0.5l0.1,0.2l-0.3,0.1l-0.3,0
	l-0.3,0l-0.3-0.1l-0.1-0.1l-0.3,0l0.1-0.1l-0.1,0l-0.2,0l-0.1,0.2l-0.1,0.2l-0.3,0l-0.1-0.1l-0.1,0.1l-0.1,0.1l-0.1,0.4l-0.2-0.2
	l-0.2-0.2l-0.3-0.1l-0.6,0l-0.3-0.1l-0.2-0.3l-0.1-0.1l-0.2-0.1l-0.2-0.4l-0.1-0.1l-0.6-0.1l-0.1-0.2l0-0.2l0.2-0.2l0.1-0.1l0.3,0
	l0.3-0.1l0.1-0.1l0.1-0.1l1.2,0.2l0.3,0L241.9,279.7z"/>
<path id="MX" class="st2" d="M186,257.1l-0.1,0.6l-0.2,0.5l-0.6,1.1L185,260l-0.5,1.9l-0.1,1.3l0,0.6l0,0.1l0,0.1l-0.1,1.3l0.1,1.1
	l0,0.2l-0.2,0.3l-0.1,0.5l0,0.2l0,0.1l0.2,0.7l0.1,0.5l0.5,0.9l0.3,0.3l0.3,0.3l0.1,0.2l-0.1,0.4l-0.1,0.2l-0.1,0.3l-0.1-0.3l0-0.3
	l0.1-0.2l0-0.1l-0.2-0.1l-0.4-0.4l-0.5-0.8l0.3,1.3l0.1,0.2l0.1,0.1l0.1,0.1l0,0.1l0,0.1l0.4,0.9l0.5,0.9l0,0.2l0.2,0.3l1.2,1.3
	l0.7,0.9l0.2,0.9l0.1,0.3l0.1,0.4l0.5,0.4l0.1,0.3l0.2,0.2l0.2,0.5l0.4,0.3l-0.1,0l-0.3-0.1l0,0.1l0.3,0.2l0.5,0.2h0.1l-0.2-0.1
	l-0.2-0.1l0.1,0l0.4,0.2l1.1,0.1l0.5,0.4l0.6,0.2l0.3,0.5l0.4,0.5l0.2,0l0.2,0l0.6-0.1l0.9-0.3l0.3-0.2l0.6-0.2l0.9,0l0.3,0.1
	l0.7-0.1l0.3-0.2l0.1-0.1l0.1-0.1l0.6-0.2l0.1,0l0.6,0l0.3-0.1l0.4,0l0.3,0.2v0.1l-0.2,0.1l0.1,0.1l0.3,0.2l0.6,0.1l0.2,0l0.3-0.3
	l0.5-0.2l0-0.3l-0.1-0.2l-0.1,0l0-0.1l0.1-0.2l0-0.1l-0.3,0.2H202l0-0.1l0.1-0.1l0.8-0.4l0.2-0.2l0.3-0.2l0.6-0.6l0.1-1.1l0.1-0.2
	l0.4-0.3l0-0.1l0-0.2l0-0.6l0-0.5l0-0.5l0.1-0.5l0.1-0.1l0.2-0.8l0.5-0.3l0.8-0.4l0.2-0.1l2.6-0.4l0.4-0.1l0.5-0.3l0.3-0.1l0.6,0
	l0.2,0l0,0l0,0l0.1,0l0.4,0l0.7,0.2l0.2,0l0.6,0.2l0.6,0.1l0.1,0l0.1-0.1l0.1-0.1l-0.1-0.1l-0.1,0l-0.1,0.1l-0.1,0l-0.3-0.1l0.1-0.1
	l0.3,0l0.2,0l0.2-0.1l0.3,0.1l0.3,0.4l0.2,0.1l0,0.6l0,0.1l0.1,0.1l-0.1,0.4l-0.1,0.4l-0.2,0.3l-0.4,0.5l-0.5,0.4l-0.6,0.8l-0.1,0.4
	l0,0.3l0.1,0.3l0,0.1l-0.1,0.1l-0.1,0l-0.2,0.1l-0.3,0.4l0,0.1l0.1,0.1l0.2-0.1l0.2,0l0.1,0l0.1,0l0,0.2l-0.1,0.2l-0.1,0.1l-0.2,0
	l-0.2,0.1l-0.1,0.1l0,0.3l0.1,0l0.2-0.2l0.1,0l0,0.1l-0.3,0.7l-0.2,0.7l-0.2,0.4l-0.1,0.6l-0.1,0.3l-0.1,0.3l-0.1,0l-0.2-0.5
	l-0.2-0.1l0-0.1l0.1-0.6l-0.1-0.3l-0.1,0l-0.1,0.2l-0.2,0.2l0,0.2l-0.2,0.4l-0.1,0.1l-0.2,0l-0.2,0l-0.2,0.1l-0.2,0.5l-0.4,0.6
	l-0.2,0.3l-0.1,0.1l-0.1,0l-0.1-0.1l-0.3-0.2l-0.2,0.1l-0.1,0.2l0,0.3h-0.6l-1,0l-1.3,0l-1.2,0l-1,0l0,0.6l0,0.5l0,0.6l-0.6,0
	l-0.6,0l0,0.1l0.2,0.1l0.3,0.3l0.3,0.4l0.4,0.3l0.4,0.2l0.3,0.2l0.1,0.2l0.1,0.2v0.2l0.2,0.1l0.3,0.1l0.2,0.1v0.1l-0.1,0.3l0,0.3
	l0,0.3l-0.2,0h-0.5l-0.8,0h-0.7h-0.6l-0.8,0l-0.2,0.4l-0.4,0.7l-0.4,0.6l-0.3,0.5l0,0.1v0.1l0.4,0.5l-0.1,0.1l-0.1,0.1l0,0.1l0,0.2
	l-0.1,0.2l0,0.2l0,0.2l-0.1,0.2l-0.1,0.2l-0.1,0.1l-0.1-0.1l-0.7-0.8l-0.8-0.9l-0.3-0.3l-0.3-0.2l-0.4-0.4l-1.1-0.9l-0.5-0.4
	l-0.5-0.5l-0.5-0.3l-0.5-0.2l-0.2-0.1l-0.2-0.1l-0.1,0l0,0.2l0.2,0.1l0.2,0.1l0.1,0l0.2,0.1l0.5,0.2l0.1,0.1l-1.3-0.5l-0.5,0
	l-0.1-0.1l0.3-0.3l-0.1-0.1l-0.1,0l-0.3,0.2l-0.1,0l0-0.1l0-0.1l-0.2-0.2l-0.1,0l-0.1,0.1L192,286l0,0.1l0.5,0.1l0.2,0.1l0,0.1
	l-0.4,0l-0.5,0.1l-0.9,0.6l-0.9,0.3l-1.2,0.6l-0.5,0l-0.3,0.1l-0.8-0.2l-1.1-0.5l-1.6-0.2l-1.1-0.7l-1.1-0.3l-0.7-0.7l-0.4,0
	l-0.3-0.1l-1-0.2l-1-0.2l-0.9-0.6l-0.6-0.2l-0.5-0.2l-1.2-0.4l-0.4-0.2l-0.4-0.3l-0.7-0.4l-0.3-0.3l-0.3-0.1l-0.5-0.6l-0.2-0.2
	l-0.2-0.1l-0.2,0l-0.6,0l-0.9-0.2l-0.4-0.1l-0.9-0.4l-1.2-0.4l-0.4-0.5l-0.3-0.4l-0.6-0.6l-0.4-0.2l-0.6-0.3l-0.4-0.2l-0.6-0.2
	l-0.9-0.5l-0.3-0.4l-0.2-0.4l-0.5-0.4l-0.5-0.8l-0.1-0.3l-0.1-0.5l-0.1-0.3l-0.1-0.2l0.1-0.1l0.3-0.2l0.5,0l0.3-0.2l0-0.2l0-0.1
	l-0.2-0.3l-0.3-0.1l-0.2,0l-0.1-0.1l0.2-0.1l0.2-0.2l0.3-0.3l0.2-0.3l0-0.4l0-0.4l0.1-0.3l-0.6-0.4l-0.1-0.2l-0.2-0.4l-0.3-0.5l0-1
	l-0.4-0.9l-0.4-0.5l-0.2-0.2l-0.6-0.7l-0.5-0.4l-0.5-0.8l-0.5-0.5l-0.6-0.8l-0.4-0.4l-1.9-1.4h0.1l0.6,0.3l0.1,0l0-0.2l-0.1-0.2
	l-0.1,0l-0.1,0l-0.2,0l-0.1-0.1l-0.3,0l-0.4-0.2l-0.2-0.2l0-0.3l-0.5-0.6l-0.2-0.3l0.1,0l0.1,0.1l0.1,0l0.2,0l0.1-0.1l0-0.1
	l-0.1-0.1l-0.8-0.3l-0.3-0.2l-0.6-0.4l-0.2-0.1l-0.1-0.4l-0.2,0l-0.1,0.1l-0.4,0.1l-0.1-0.1l0-0.1l0.3-0.1l0.2-0.3l0-0.1l-0.1,0.1
	l-0.2,0.1l-0.2,0.1l-0.3,0.1l-0.2,0l-0.1-0.1l-0.2-0.3l-0.1-0.9l0.2-0.3l0.2-0.3l0.2-0.2l0.1,0.1l0.1,0l-0.1-0.2l-0.2-0.2l-0.1-0.2
	l0-0.1l-0.1-0.3l-0.6-0.6l-0.5,0l-0.2,0l-0.2-0.2l-0.2-0.4l-0.1-0.3l0-0.2l-0.1-0.2l-0.9-0.3l-0.3-0.2l-0.3-0.3l-0.1-0.2l-0.1-0.2
	l-0.1-0.3l-0.1-0.3l0.1-0.4l0.1-0.2l-0.6-0.2l-0.3,0l-0.2,0.1l-0.2-0.1l-0.4-0.1l-0.5-0.5l-0.5-0.9l-0.6-0.3l-0.2-0.3l-0.2-0.3
	l-0.2-0.3l0-0.1l-0.1-0.1l-0.3-0.2l-0.3-0.4l-0.1-0.3l-0.1-0.5l-0.2-0.2l-0.2-0.1l0-0.2l0-0.1l-0.1-0.2l-0.4-0.6l-0.2-0.5l-0.1-0.2
	l-0.1-0.2l-0.1-0.5l-0.2-0.6l-0.4-0.7l-0.3-0.5l-0.1-0.5l0.1-0.5l-0.1-0.3l0-0.1l0-0.1l0.1,0.1l0.1-0.1l0-0.3l-0.1-0.1l-0.3-0.1
	l-0.1-0.1l-0.7-0.1l-0.4-0.2l0-0.4l-0.2-0.2l-0.2-0.1l-0.5-0.2l-0.1,0.1l-0.1,0.2l-0.2,0l-0.2,0l-0.3-0.2l-0.8-0.6l-0.2-0.1l-0.2,0
	l-0.1-0.1l-0.5-0.3l0.1,0.2l0.2,0.2l0.1,0.5l-0.2,0.4l-0.1,1.2l0.1,0.2l0.2,0.4l0.2,0.6l0.1,0.5l0.1,0.4l0,0.9l0.1,0.3l0.2,0.4
	l0.4,0.4l0.1,0.2l0.5,0.3l0.3,0.4l0.7,0.5l0.2,0.2l0.6,0.8l0,0.3l0.1,0.3l0.3-0.1l0.1,0.2l0,0.1l0,0.1l0.2,0l0.1,0.1l0.3,0.9
	l0.2,0.1l0.2,0.1l0.2,0.1l0,0.2l0,0.2l0.2,0.3l0,0.4l0.2,0.3l0,0.3l0.1,0.2l0.5,0.5l0.6,0.4l0.1,0.6l0.3,0.5l0.3,0.1l0.3,0.2l0,0.2
	l0,0.1l0.4,0.4l0.1,0.5l0.3,0.3l0.1,0l0.1-0.1l-0.2-0.3l-0.1-0.2l0-0.3l0.1,0l0.6,0.5l0.1,0.4l0.2,0.2l0,0.3l0.1,0.2l0,0.3l0.2,0.4
	l0,0.6l0.1,0.4l0.4,0.7l0.3,0.1l0.1,0.3l0.3,0.9l0.4,0.5l0.2,0.4l0,0.2l-0.1,0.4l0,0.2l0.2,0.8l0.3,0.4l0.4,0.1l0.1,0.1l0,0.1
	l0.1,0.1l0.1-0.1l0.1-0.2l-0.1-0.2l0-0.1l0.1-0.1l0.1,0l0.7,0.5l0.1,0.2l0.2,0.2l0.2,0.3l0.1,0.2l0.2,0.2l0.1,0.4l0.5,0.2l0.2,0.4
	l0,0.2l-0.1,0.6l-0.1,0.2L151,266l-0.3,0.3l-0.3,0.2l-0.3,0.1l-0.2,0l-0.2-0.3l-0.3-1l-0.2-0.2l-0.1-0.3l-0.2-0.3l-0.8-0.4l-0.4-0.4
	l-0.4-0.3l-0.4-0.4l-1.1-0.7l-0.4-0.3l-0.3-0.3l-0.2,0l-0.1,0l-0.1-0.1l0-0.2l-0.1-0.1l-0.6-0.5l-0.1-0.3l0-0.3l0.1-0.9l0.1-0.5
	l0-0.3l-0.1,0l-0.1-0.1l0-0.4l-0.2-0.5l-0.6-0.9l-0.4-0.2l-0.4-0.1l-1-0.8l-0.3-0.4l-0.1-0.2l0-0.5l-0.1,0.3l-0.2,0.2l-0.4,0
	l-0.5,0.2l-0.3-0.2l-0.2-0.2l-0.2-0.3l-0.3-0.1l-0.2,0l-0.3-0.4l-0.3-0.1l-0.4,0l-0.3-0.2l-0.1-0.2l-0.1-0.3l-0.1-0.2l-0.5-0.3
	l-0.4-0.4l-0.4-0.2l-0.1-0.2l0-0.1l0.6,0l0.7,0.1l0.3,0l0.2-0.1l0.2-0.1l0,0.1l0,0.2l0.2,0.2l0.3,0.1l0.2,0l-0.2-0.2l-0.1-0.3
	l0.1-0.1l0-0.2l-0.3,0l0-0.1l0.2-0.2l0.3-0.7l0.1-0.6l-0.3-0.6l-0.5-0.4l-1-1.2l-0.6-0.6l-0.2-0.2l-0.2-0.1l-0.5-0.1l-0.4-0.3
	l-0.7-0.5l-0.3-0.2l-0.2-0.6l-0.2-0.1l0.1-0.4l-0.1-0.7l-0.1-0.2l-0.4-0.2l-0.1-0.5l0-0.5l-0.1-0.3l-0.7-0.5l0-0.3v-0.2l-0.1-0.2
	l-0.4-0.5l-0.4-0.5l-0.1-0.2l0-0.4l-0.1-0.1l0.1,0l0.1,0l0.1-0.1l0-0.3l-0.6-0.5l-0.2-0.7l-0.3-0.4l-0.1-0.1l-0.2-0.6l0.8-0.1
	l0.8-0.1l0.8-0.1l0.8-0.1l0.8-0.1l0.8-0.1l0.8-0.1l0.8-0.1l0.3,0l-0.2,0.5l-0.1,0.2l1.3,0.5l1.3,0.5l1.3,0.5l1.3,0.5l1.3,0.5
	l1.3,0.5l1.3,0.5l1.3,0.5l1,0l1,0l1,0l1,0l1,0l1,0l1,0l1,0l0-0.4l0-0.4l0-0.4l0-0.4l0.6,0l0.6,0l0.6,0l0.6,0l0.6,0l0.6,0l0.6,0
	l0.6,0l0,0l0,0l0.2,0.3l0.3,0.4l0.3,0.3l0.3,0.2l0.6,0.5l0.8,0.8l0.7,0.6l0.5,0.3l0.3,0.2l0.2,0.2l0.2,0.4l0.4,1v0.5l0.2,0.4
	l0.3,0.6l0.3,0.3l0.2,0.1l0.3,0.2l0.3,0.3l0.3,0.2l0.4,0.1l0.5,0.3l0.7,0.4l0.5,0.2l0.3,0l0.2-0.1l0.2-0.3l0.2-0.2l0.2-0.1l0.1-0.1
	l0-0.2l0.1-0.4l0.3-0.6l0.3-0.3l0.4-0.1l0.3-0.1l0.1-0.2l0.2,0l0.3,0.1l0.5,0.1l0.7,0l0.4,0l0.1-0.1l0.1,0l0,0.1l0.1,0l0.2,0
	l0.2,0.1l0.2,0.3l0.7,0.6h0l0.1,0.2l0.3,0.3l0.5,0.4l0.3,0.4l0.1,0.3l0.2,0.5l0.4,0.7l0.2,0.4l0,0.1l0,0.2l0.1,0.3l0.2,0.3l0.3,0.2
	l0.3,0.4l0.3,0.6l0.4,0.4l0.4,0.3l0.3,0.3l0.1,0.3l0,0.2l-0.1,0.2l0,0.2l0.1,0.2l0,0.2l0,0.3l0,0.1l0,0l0,0.1l0.4,0.5l0.2,0.4
	l0.2,0.6l0,0l0.2,0.4l0.3,0.1l0.4,0.1l0.3,0.1l0.2,0.2l0.3,0.1l0.3,0l0.3,0.1l0.3,0.2l0.5,0.1l0.8,0.1l0.6,0.2l0.4,0.3l0.2,0.1l0,0
	l0,0l0-0.1l0.2-0.1L186,257.1z M136.8,238.8L136.8,238.8l-0.3-0.1l0-0.1l0,0l0.2,0.1L136.8,238.8L136.8,238.8z M141.1,247.4
	L141.1,247.4l-0.3-0.1l-0.6-0.7l-0.2-0.3l0-0.2l0-0.4l0.2,0l0.3,0.2l0.1,0.2l0,0.3l0.5,0.1l0.1,0.5L141.1,247.4z M143.8,247.5
	l-0.2,0.8l-0.2,0l-0.4-0.2l0-0.1l0.2-0.9l0.1-0.1l0.4-0.1l0.1,0.1l0,0.3L143.8,247.5z M126.8,247.7l-0.1,0.1l-0.3-0.7l0-0.2l0.1-0.1
	l0.2,0v0.2l0.1,0.1l0.1,0.1L126.8,247.7z M135.5,250.5l0,0.1l-0.5-0.2l0.3-0.4l0-0.4l0.1-0.1l0.1,0.1l0.1,0.5L135.5,250.5z
	 M146.9,256.9l0,0.1l0,0L146.9,256.9l-0.3,0.5l-0.1,0l0.1-0.6l0.1-0.1l0.1,0L146.9,256.9z M144.2,261.5L144.2,261.5l-0.3-0.3l0-0.2
	l-0.1-0.1l-0.2-0.1l0.2-0.5l0.2-1l0.1,0.2l-0.2,1l0,0.1l0.1,0.1l0.1,0.2l0,0.2l0.2,0.2L144.2,261.5z M148.4,260.1l0.1,0.3l-0.1-0.1
	l-0.2-0.2l-0.1-0.2l0-0.1l0,0l0.3,0.1L148.4,260.1z M145.2,261.9l0,0.1l-0.8-0.6l0.2-0.1l0.2,0L145.2,261.9z M150.5,262.7
	L150.5,262.7l-0.2-0.2l-0.1-0.4l0,0L150.5,262.7L150.5,262.7L150.5,262.7z M159.8,270.4l-0.1,0.2l-0.2-0.1l-0.1-0.2l0-0.3l0.1,0
	l0.2,0.1l0,0.1L159.8,270.4z M215.3,271.5l0.1,0.1l0,0L215.3,271.5l-0.1-0.1l0,0L215.3,271.5L215.3,271.5z M214.7,274.3l-0.1,0.1
	l-0.1-0.3l0.1-0.3l0.1-0.2l0.3,0l0.2-0.1l0,0.1l-0.2,0.2L214.7,274.3z M147.4,278.9l-0.2,0.1l-0.2-0.2l0.1-0.1l0.1-0.1l0.1,0.2
	L147.4,278.9z M201.4,279.1l-0.3,0.1l-0.1-0.1l0.6-0.3l0.1,0l0,0l-0.3,0.1L201.4,279.1z"/>
<path id="NI" class="st2" d="M225.3,289.8l-0.1,0.1l-0.1,0.1l-0.2,0.3l-0.1,0l0-0.3l-0.1,0l-0.1,0.1l-0.1,0.1l0.1,0.2l0.1,0l0.1,0
	l0.3,1.2l-0.1,0.2l-0.2,0.3l-0.2,0.3l-0.2,0.2l-0.2,0.7l-0.2,1.2l0.1,1.1l-0.1,1l0.1,0.2l0,0.3l-0.2,0.1l-0.1,0l-0.1-0.2l0-0.2
	l0.1-0.2l0-0.3l0-0.1l-0.1,0.3l-0.2,0.1l-0.1,0l-0.1,0.1l0.1,0.3l0.1,0.2l0,0.1l-0.1,0.2l0,0.6l0,0l0-0.1l-0.1,0l0,0.2l0,0.1
	l-0.1,0.1l0,0.1l0.1,0.1l0.1,0l0.1,0l0.1,0.3l0,0.2l-0.3,0.2l-0.1,0.2l-0.1,0.2l-0.1,0.2l0,0.2l0.1,0.5l0.2,0.3l0.2,0.2l0.2,0l0,0.2
	l-0.2,0.1l-0.3,0.1l-0.3,0l-0.5-0.1l-0.2,0l-0.1-0.1l0-0.1l-0.1-0.2l-0.3-0.2l-0.2,0l-0.2,0l-0.4-0.2l-0.2,0l-0.3,0.1l-0.3,0.2
	l-0.8-0.3l-0.5-0.2l-0.5-0.2l-0.1-0.1l-0.1,0l-0.1,0.1l-0.1,0.2l0,0l-0.1,0l-0.1,0l0-0.1l-0.2-0.3l-0.4-0.4l-1.4-1.2l-0.5-0.7
	l-0.3-0.5l-0.3-0.3l-0.8-0.5L214,297l-0.8-0.7l-0.6-0.4l0-0.2l0.2-0.2l0.1,0l0.1,0.2l0.2,0.2l0.1,0l0.1-0.1l0-0.1l0.8,0l0.1,0
	l0.1-0.1l0.1-0.2l0-0.2l0-0.1l0.1-0.1l0.2,0l0.2,0l0.1-0.1l-0.1-0.3l-0.1-0.7l0-0.2l0-0.1l0.1,0l0.3,0l0.7,0.1l0.1,0l0.3-0.4
	l0.2-0.3l0.2-0.1l0.1,0l0.2,0.2l0.6,0.3l0.1,0l0.1,0l0,0l0-0.2l0.1-0.1l0.3-0.1l0.3-0.2l0.3-0.3l0.3-0.2l0.2-0.1l0.1-0.1l-0.1-0.1
	l0-0.2l0.1-0.2l0.1-0.1l0.2,0l0.1-0.1l0-0.1l0-0.1l0.1-0.2l0.3-0.2l0.2,0.1l0.2,0.2l0.2,0.2l0.3,0.1l0.2,0l0.2-0.1l0.2,0l0.1,0.1
	l0.1,0l0-0.1l0.1,0l0.1,0.1l0.1,0l0.1,0l0-0.1l0-0.1l0.1,0l0.3,0l0.3-0.1l0.3-0.2l0.2-0.1l0.1,0l0.1-0.1l0.1-0.2l0.3-0.1
	L225.3,289.8z"/>
<path id="PA" class="st2" d="M241.5,307.9L241.5,307.9l-0.2,0.3l-0.1,0.2l0.2,0.2l0.1,0.2l0.1,0.2l0.2,0.2l0.2,0.4l0,0.2l-0.1,0.1
	l-0.2,0.1l-0.2,0.2l0,0.2l0,0.1l-0.5,0.4l-0.1,0.1l-0.1-0.1l-0.1-0.2l-0.1-0.2l-0.1-0.1l0,0l0,0l0,0.1l0.1,0.4l-0.1,0.1l-0.2,0.1
	l-0.2,0.6l-0.1-0.1l-0.7-0.8l-0.6-1l-0.1-0.5l0.2,0l0.1,0l0.1-0.1l0.1-0.1l-0.1-0.3l0.3-0.2l0.1-0.2l0.1,0l0.2,0.3l0.3,0.2l0.3,0.2
	l0.2,0.1l-0.3-0.2l-0.4-0.3l-0.1-0.2l-0.1-0.3l-0.2,0.1l-0.1,0.1l-0.1,0.1l-0.1-0.1l0-0.1l-0.3,0l-0.1-0.1l-0.1,0l0,0.2l0.1,0.1
	l0,0.1l-0.1,0l-0.1-0.1l-0.1-0.1l-0.1-0.5l-0.3-0.2l-0.1-0.1l-0.1,0l-0.2-0.2l-0.2-0.1l-0.3-0.3l-0.4-0.2l-0.4-0.1l-0.5,0l-0.2,0.1
	l-0.1,0.1l-0.1,0.1l-0.3,0.1l-0.1,0.2l-0.1,0.2l-0.2,0.2l0.2,0.1l-1.1,0.7l-0.2,0.1l-0.5,0.1L233,309l-0.1,0.1l0,0.2l0,0.2l0.1,0.1
	l0.1,0.1l0.3,0.4l0.5,0.5l0.1,0.2l0.1,0.3l-0.2,0.1l-0.1,0.1l-0.5,0l-0.2,0.1l-0.1,0.2l-0.2,0.1l-0.6,0.1l-0.5,0l-0.2-0.2l0-0.5
	l-0.3-0.8l-0.1-0.5l-0.1,0.1l-0.2,0.1l-0.1,0.1l0,0.4l-0.1,0.1l-0.1,0l-0.3-0.1l-0.4-0.1l-0.5-0.8l-0.1-0.2l-0.1-0.2l-0.4-0.1
	l-0.3-0.1l-0.3,0l-0.2,0.1l-0.2-0.1l0-0.2l-0.4,0.1l-0.5,0l-0.4-0.1l-0.3,0.1l-0.2,0.2l0,0.4l-0.1,0.1l0-0.2l-0.1-0.2l-0.1-0.2
	l-0.2-0.2l0-0.1l0.1-0.1l0.4-0.2l0-0.1l0-0.2l0-0.2l-0.2-0.3l0.1-0.2l0.2-0.1l0.2-0.1l0,0l0-0.1l-0.1-0.1l-0.3-0.2l-0.2,0l0-0.5
	l0-0.6l0-0.1l0.1,0l0.1-0.1l0-0.2l0.1-0.1l0.2,0.1l0.2,0.1l0.1,0l0.1-0.1l0-0.1l0-0.1l0.2,0.2l0.4,0.3l0,0.1l0,0.1l0.1,0.4l0.2,0.1
	l0.2-0.1l0,0.1l0,0.1l-0.1,0.1l0,0.3l0.3,0.1l0.2,0.1l0.5-0.1l0.2,0l0.1,0l-0.1-0.2l-0.2-0.2l0-0.1l0.1,0.1l0.1,0.1l0.3,0.2l0.5,0.5
	l0.5,0.1l0.4,0l0.4-0.1l0.6-0.2l0.5-0.4l0.4-0.2l1.2-0.4l0.4-0.4l0.2,0l0.2,0l0.4-0.3l0.2-0.2l0.2-0.1l0.6,0.1l0.4,0.1l0.3,0
	l0.3,0.1l0.1,0.2l0.1,0.1l0.7,0l0.5,0.1l1.2,0.5l0.7,0.5l0.4,0.5L241.5,307.9z M227.9,305.9l0,0.1l-0.2-0.2l0.1,0l0,0L227.9,305.9z
	 M237.3,309l-0.1,0.1l-0.1-0.3l0-0.1l0-0.2l0.1-0.1l0.1,0l0.1,0l0,0.3l0,0.1L237.3,309z M236.8,309l-0.1,0.1l0-0.1l0.1-0.1l0,0
	L236.8,309z M229.7,311.6l-0.2,0l-0.3-0.1l-0.2-0.2l0-0.1l0-0.1l0.1-0.2l0.2-0.1l0.1,0l0.2,0.3l-0.1,0.1l0,0.2l0.2,0.1L229.7,311.6z
	"/>
<path id="PR" class="st2" d="M273.1,279.8L273.1,279.8l0.2,0.1l-0.1-0.1h0.1l0.5,0.1l0.3,0.1l0.4,0.1l0,0.4l-0.3,0.2l-0.2,0.2
	l-0.1,0.2l-0.4,0.2l-0.5,0.1l-0.3,0l-0.1,0l-0.1,0l-0.2,0l-0.3-0.1l-0.2,0l-0.5,0l-0.2,0.1l-0.2,0l-0.2,0l-0.1,0l-0.4,0l-0.2-0.1
	l0.1-0.5l0-0.2l-0.1-0.2l-0.1-0.1l-0.1-0.1l0.1-0.1l0.1-0.1l0-0.2l0.1,0l0.1,0l0.7,0.1l1.8,0L273.1,279.8L273.1,279.8z M275.1,280.8
	l-0.2,0l-0.1,0l0-0.1l0.3-0.1l0.3,0l0.2,0l0,0L275.1,280.8z M268.2,280.9L268.2,280.9L268.2,280.9L268.2,280.9L268.2,280.9l-0.2-0.1
	l0,0l0,0l0,0l0.2,0l0,0l0,0l0,0l0,0L268.2,280.9L268.2,280.9L268.2,280.9L268.2,280.9L268.2,280.9z"/>
<path id="SV" class="st2" d="M207.9,291.5L207.9,291.5l0.5,0.2l0.1,0l0.2,0.1l0.1,0.1l0.1,0.1l0.4,0.3l0.1,0.1l0.3,0.2l0.1,0.1
	l0.1,0l0.2,0l0.2,0.1l0,0l0,0.2l0,0.1l0.1,0l0.1-0.1l0.4-0.2l0.4-0.1l0.2,0.1l0.1,0.2l0.1,0.1l0.3,0l0.3,0l0.2,0.1l0,0.1l-0.1,0.5
	l0,0.2l0,0.2l0.1,0l0.1,0.1l0,0.1l-0.2,0.1l-0.1,0l0,0.3l-0.2,0.2l-0.1,0.1l-0.3,0l-0.4,0l-0.7-0.1l-0.5-0.2l-0.3,0l0.1,0.1l0.2,0
	l0.3,0.1l-0.1,0l-1-0.3l-1.2-0.6l-0.7-0.1l-0.8-0.1l-0.5-0.4l-0.4-0.2l0-0.1l0-0.1l0.2-0.2l0.3-0.3l0.2-0.1l0.1,0l0.1,0l0.1-0.1
	l0.1-0.2l0.1-0.1l0.3-0.1l0.1,0l0-0.1l-0.1-0.2l0-0.1l0.1-0.1l0.1,0l0.2-0.1L207.9,291.5L207.9,291.5z"/>
<polygon class="st2" points="196.6,176.4 197,176.3 197.2,176.3 197.5,176.4 197.7,176.4 198.1,176.6 198.4,176.7 198.9,177 
	199.1,177.1 199.2,177.4 199.3,177.8 199.5,177.8 199.7,177.6 200,177.5 200.5,177.7 200.9,178.1 201.5,178.5 201.8,178.7 
	202.2,178.7 202.7,178.5 203.2,178.2 203.5,178.1 203.7,178.1 203.9,178.4 204,178.5 204.4,178.5 205.2,178.6 205.8,178.5 
	206,178.6 206.1,178.9 206.4,179 206.7,178.9 207.3,179 207.2,179 207.1,179 207,179.1 206.9,179.2 206.6,179.4 206.1,179.6 
	205.6,179.9 204.4,180.3 203.7,180.7 203.4,181 202.2,182.2 201.5,182.9 200.3,183.9 200.2,184 200.2,184.1 200.3,184.2 
	200.5,184.3 200.7,184.4 201,184.3 201.9,184.1 202.3,183.9 202.7,183.6 202.7,183.6 202.9,183.6 202.9,183.7 203.4,183.3 
	203.6,183.3 203.7,183.3 203.9,183.4 203.9,183.5 203.9,183.6 203.7,183.9 203.7,184.1 203.7,184.3 203.6,184.4 203.5,184.7 
	203.5,184.7 203.9,184.6 204,184.5 204,184.5 204,184.4 204,184.4 204.4,184.6 204.6,184.7 204.8,184.8 205.1,184.7 205.7,184.5 
	206.1,184.3 206.5,184 207,183.8 207.5,183.7 207.9,183.6 208.2,183.4 208.5,183.2 208.7,183.1 208.9,183 209.1,182.9 209.2,182.7 
	209.4,182.5 209.7,182.3 209.9,182.2 209.9,182.2 210,182.3 209.9,182.4 210,182.5 210.2,182.6 210.3,182.7 210.3,182.8 210.3,183 
	210.4,183.1 210.4,183.3 210.4,183.6 210.4,183.8 210.4,183.9 210.5,183.9 210.5,183.9 210.6,183.8 210.6,183.7 210.6,183.6 
	211.1,183.3 211.2,183.3 211.4,183.4 212.1,183.5 212.3,183.6 212.6,183.7 212.7,183.8 213.1,184.4 213.3,184.6 213.4,184.7 
	213.4,184.8 213.5,185 213.5,185.1 214,185.1 214.3,185.1 214.4,185 214.6,185 214.8,185.2 214.9,185.3 215.1,185.2 215.3,185.2 
	215.4,185.3 215.5,185.3 215.5,185.3 215.8,185.1 216.2,184.8 216.7,184.5 217,184.4 217,184.4 217.5,184.3 217.9,184.3 
	218.4,184.4 218.9,184.3 219.3,184.1 219.7,184 220.1,184 220.2,184 220.1,184.2 220.1,184.4 220.1,184.7 220.1,184.9 220,185 
	220,185.1 220,185.1 220.4,185.2 220.6,185.3 220.8,185.3 221,185.2 221.2,185.2 221.3,185.4 221.5,185.4 221.6,185.3 221.8,185.2 
	221.9,185.1 221.9,185.1 222,185.2 222.1,185.3 222.2,185.5 222.3,185.7 222.3,186 222.4,186 222.4,186.2 222.3,186.3 222.2,186.4 
	222.3,186.4 222.6,186.5 222.8,186.5 222.8,186.6 222.8,186.7 222.8,186.8 222.9,186.9 223.2,187.1 223.2,187.2 223.2,187.3 
	223.1,187.3 223,187.3 222,187.2 221.7,187.2 221.6,187.2 221.6,187.2 221.6,187.2 221.5,187.2 221.4,187.2 221.4,187.1 221.3,187 
	221.2,187 221,187 220.9,187.3 220.9,187.4 220.9,187.6 220.9,187.7 220.9,187.7 220.9,187.7 220.8,187.7 220.7,187.7 220.2,187.2 
	219.9,187 219.4,186.8 219.1,186.7 218.8,186.7 218.6,186.9 218.4,187.1 218.2,187.2 217.8,187.3 217.6,187.3 217.6,187.4 
	217.4,187.4 217.2,187.3 217,187.3 216.7,187.3 216.6,187.4 216.4,187.7 216.3,187.9 216.2,188 215.9,188.2 215.8,188.2 
	215.6,188.5 215.6,188.6 215.6,188.7 215.5,188.7 215.4,188.6 215.4,188.4 215.5,188.2 215.6,188.1 215.7,188.1 215.8,188 
	215.8,187.8 215.8,187.7 215.6,187.7 215.5,187.8 215.4,187.8 215.2,187.7 215.1,187.9 215,188.1 214.9,188.3 214.7,188.4 
	214.6,188.3 214.5,188 214.5,187.8 214.6,187.6 214.6,187.5 214.5,187.6 214.4,187.8 214.3,188.3 214.2,188.4 214.1,188.5 
	213.9,188.8 213.7,189.2 213.4,189.7 213.1,190.2 212.9,190.4 212.9,190.5 212.8,190.5 212.8,190.8 212.8,191 212.6,191.2 
	212.2,191.4 212.1,191.5 212.1,191.6 211.9,192.1 211.7,192.4 211.6,192.7 211.7,192.9 211.8,192.9 211.9,192.9 212,192.8 
	212.1,192.7 212.3,192.5 212.4,192.4 212.6,192 212.8,191.8 212.9,191.8 213,191.8 213.2,191.7 213.4,191.7 213.5,191.9 213.6,192 
	213.6,192.1 213.5,192.3 213.4,192.5 213.3,192.7 213.2,193.1 213,193.6 213,194 213.1,194.2 213,194.4 212.8,194.6 212.7,194.9 
	212.6,195.2 212.5,195.5 212.5,195.7 212.5,195.8 212.6,196.1 212.6,196.2 212.4,196.6 212.3,196.9 212.3,197.1 212.2,197.2 
	212.1,197.6 212,197.8 212,198 212,198.3 212,198.4 212,198.5 212.1,198.6 212.1,198.7 212,198.8 212,198.9 212.1,199 212.2,199.1 
	212.2,199.3 212.2,199.5 212.3,199.7 212.3,199.9 212.3,200.2 212.3,200.7 212.3,201.5 212.3,201.9 212.4,202.2 212.5,202.3 
	212.6,202.4 212.7,202.7 212.8,203.3 213,203.6 213.1,203.8 213.2,203.9 213.3,203.9 213.3,203.9 213.4,204 213.5,204.1 
	213.8,204.1 214.1,204.1 214.3,204 215.1,203.5 215.4,203.3 215.6,203.1 215.7,202.8 215.9,202.4 216.2,201.9 216.3,201.6 
	216.5,201.2 216.6,200.7 216.7,200.3 216.7,199.8 216.7,199.3 216.6,198.8 216.5,198.3 216.4,198.1 216.4,198 216.1,197.4 
	215.8,196.5 215.8,196.4 216.1,195.9 216.1,195.8 216.1,195.4 216,195.2 215.9,194.9 215.9,194.8 216.2,194.4 216.3,194.2 
	216.5,193.8 216.6,193.4 216.7,192.9 216.7,192.6 216.6,192.5 216.6,192.4 216.7,192.3 217,192.2 217.1,192 217.1,191.7 
	217.2,191.5 217.3,191.5 217.4,191.4 217.5,191.3 217.6,191.3 217.7,191.3 217.9,191.1 218.2,190.7 218.4,190.4 218.6,190.4 
	218.6,190.4 218.5,190.5 218.5,190.7 218.5,190.9 218.5,191 218.4,191.2 218.4,191.3 218.3,191.6 218.3,191.8 218.4,191.9 
	218.5,191.9 218.6,191.7 218.6,191.6 218.6,191.5 218.6,191.4 218.6,191.3 218.7,191.2 218.8,191.2 218.8,191.3 218.7,191.5 
	218.6,191.9 218.6,192 218.6,192.1 218.8,191.8 218.9,191.4 219.1,191 219.1,190.9 219,190.4 219,190.2 219.1,190.1 219.2,189.9 
	219.5,189.8 219.8,189.7 220.1,189.7 220.2,189.6 220.3,189.5 220.3,189.5 220.1,189.4 220,189.3 219.9,189.2 219.9,189 
	219.9,188.8 220,188.6 220.2,188.4 220.3,188.2 220.2,188.1 220.3,188.1 220.5,188.1 220.7,188.1 220.8,188 220.8,188 221,188.1 
	221.4,188.3 221.7,188.5 222,188.5 222.3,188.6 222.4,188.7 222.5,188.9 222.6,189.1 222.7,189.2 223,189.2 223.2,189.2 
	223.3,189.4 224.1,189.7 224.4,189.8 224.6,190 224.6,190.1 224.6,190.2 224.6,190.3 224.8,190.5 224.8,190.5 224.9,190.6 
	224.9,190.8 224.9,190.9 225,191 224.9,191 224.7,190.9 224.6,190.9 224.5,191.1 224.5,191.2 224.5,191.3 224.8,191.7 224.9,192 
	224.9,192.4 224.9,192.6 224.9,192.9 224.8,193.5 224.8,193.6 224.7,193.8 224.5,194.1 224.4,194 224.4,194 224.3,194 224.2,194.3 
	224.1,194.7 224,194.9 223.9,194.9 223.8,195 223.8,195 223.7,195.1 223.4,195.1 223.3,195.2 223.2,195.6 223.2,195.7 223.1,195.9 
	223.1,196.1 223.2,196.3 223.4,196.4 223.7,196.5 223.9,196.6 224,196.5 224.1,196.3 224.3,196.2 224.4,196.1 224.5,196 
	224.8,195.6 224.8,195.5 224.7,195.4 224.7,195.4 224.8,195.4 224.9,195.3 225,195.2 225.2,195.1 225.6,195 225.8,194.9 
	225.9,194.8 226.1,194.9 226.3,195.1 226.5,195.3 226.7,195.7 226.9,196.5 227.1,197.9 227.3,198.6 227.3,198.8 227.4,198.9 
	227.2,200 227,200.4 226.7,200.6 226.5,200.9 226.1,201.3 225.7,201.5 225.5,201.6 225.5,201.7 225.5,201.7 225.4,201.9 
	225.3,202.2 225.2,202.4 225.3,202.6 225.2,202.7 225,202.8 225,202.9 225,203 225,203 224.9,203 224.9,203 224.7,203.2 
	224.5,203.6 224.5,203.7 224.5,203.8 224.8,203.8 224.9,203.9 225.1,204 225.6,204.3 225.7,204.4 225.9,204.5 226,204.5 
	226.1,204.4 226.2,204.3 226.2,204.3 226.3,204.4 226.6,204.5 226.6,204.5 225.8,204.7 225.7,204.8 225.9,204.9 226.1,204.8 
	226.3,204.8 226.5,204.8 226.7,204.8 226.7,204.8 226.8,204.7 227.1,205 227.2,205 227.3,205 227.5,204.9 227.8,204.8 228.2,204.7 
	228.7,204.6 229.1,204.6 229.3,204.6 229.6,204.4 230.1,204 230.7,203.6 231.7,203.2 233.2,202.6 233.5,202.5 233.7,202.3 
	233.8,202.3 234,202.2 235,201.6 235.5,201.3 235.8,201 236.1,200.8 236.4,200.7 236.6,200.4 236.8,200.2 237,200 237.2,199.9 
	237.3,199.7 237.3,199.6 237.3,199.4 237.2,199.2 237.2,199 237.3,198.8 237.3,198.7 237.2,198.7 236.8,198.6 236.8,197.9 
	236.8,197.9 236.8,197.9 237.8,197.6 238.5,197.5 239.3,197.4 240.2,197.6 240.6,197.7 240.8,197.9 241.1,197.9 241.4,197.9 
	241.8,197.8 242.4,197.9 242.7,197.9 242.7,197.9 242.7,197.9 242.8,197.8 242.9,197.8 243.3,197.6 243.4,197.6 243.5,197.6 
	243.6,197.4 243.8,197.2 244.1,197 244.3,196.9 244.6,196.9 244.7,196.8 244.8,196.8 244.9,196.7 244.8,196.6 244.8,196.5 
	244.8,196.5 244.8,196.4 244.8,196.4 244.8,196 244.7,195.9 244.7,195.8 244.6,195.7 244.6,195.6 244.7,195.5 244.7,195.6 
	244.8,195.6 244.8,195.6 245,195.4 245,195.3 245.1,195.2 245.2,195.1 245.1,195.1 244.9,195.1 244.9,195.1 245,194.9 244.9,194.8 
	244.9,194.8 244.8,194.8 244.6,194.9 244.5,194.9 244.5,194.9 244.4,194.7 244.7,194.4 245.9,193.6 246,193.4 246,193.3 246,193.2 
	246,193.2 246,193.2 247.1,192.1 247.7,191.6 248.2,191.3 248.6,191.2 248.9,191.2 249,191.2 249.1,191.2 249.8,191.2 251,191.2 
	252.1,191.2 253.3,191.2 254.5,191.2 255.6,191.2 256.8,191.2 258,191.2 258.3,190.4 258.5,190 258.9,190.1 259.1,190.1 259.3,190 
	259.4,189.8 259.5,189.9 259.6,190 259.7,190.1 259.8,190.1 259.9,189.9 259.9,189.7 260,189.6 260.1,189.6 260.2,189.6 
	260.3,189.5 260.3,189.4 260.3,189.2 260.3,189 260.6,188.6 260.9,188.4 261.1,188.2 261.1,188 261.3,187.7 261.4,187.6 
	261.4,187.4 261.4,187.3 261.4,187 261.5,186.6 261.5,186.2 261.7,185.8 262,185.4 262.1,184.9 262.2,184.3 262.6,183.8 263,183.1 
	263.3,182.8 263.7,182.1 264,181.7 264.2,181.5 264.4,181.2 264.6,181.3 264.9,181.4 264.9,181.7 264.9,182 265,182.2 265.2,182.3 
	265.4,182.3 265.5,182.3 266,182.1 266.5,182 266.8,181.8 266.8,181.7 267,181.7 267.2,181.7 267.6,182 268,182.4 268.4,182.8 
	268.4,183.4 268.4,184 268.4,184.7 268.4,185.2 268.4,185.8 268.4,186.3 268.4,187 268.5,187.4 268.5,187.5 268.5,187.6 
	268.5,187.7 268.5,187.8 268.5,187.8 268.5,187.9 268.4,188 268.4,188.1 268.4,188.3 268.5,188.4 268.5,188.5 268.6,188.5 
	268.7,188.5 268.8,188.6 269,188.7 269.2,188.7 269.3,188.7 269.4,188.8 269.5,188.9 269.5,189.1 269.4,189.1 269.3,189.2 
	269.3,189.3 269.3,189.4 269.4,189.5 269.5,189.7 269.4,189.8 269.4,190 269.3,190.1 269.4,190.2 269.5,190.4 269.6,190.5 
	269.8,190.6 269.8,190.5 269.9,190.4 270,190.4 270.1,190.4 270.2,190.5 270.3,190.5 270.3,190.6 270.4,190.8 270.4,191.2 
	270.3,191.4 270.4,191.6 270.6,191.7 270.7,191.8 270.7,191.9 270.1,192.5 269.6,192.4 269.4,192.5 269.1,192.6 269,192.9 
	268.8,192.9 268.6,192.9 268.4,192.8 268.3,192.9 268.1,193.3 267.9,193.3 267.9,193.5 267.8,193.5 267.7,193.6 267.6,193.4 
	267.5,193.2 267.4,193.1 267.3,193.1 267.2,193.1 267.1,193.1 267,193.3 266.8,193.4 266.7,193.3 266.6,193.1 266.5,193.4 
	266.4,193.6 266.4,193.9 266.3,194.1 266.2,194.1 266.1,193.9 265.8,193.8 265.6,193.8 265.6,193.6 265.8,193.4 265.8,193.3 
	265.7,193.4 265.6,193.3 265.7,193.1 265.7,192.9 265.6,193 265.5,193.2 265.1,193.4 265.2,193.7 264.9,194.4 264.8,194.7 
	264.7,195 264.4,195.2 264.1,195.1 263.8,195.3 263.7,195.5 263.6,195.5 263.5,195.3 263.5,195.2 263.4,195.5 263.3,195.6 
	263.2,195.3 263.2,195.1 263.1,195.3 263,195.7 262.9,195.6 262.9,195.5 262.8,195.5 262.8,195.6 262.8,195.9 262.8,196 
	262.7,195.9 262.6,195.8 262.4,195.9 262.3,195.9 262.3,195.8 262.3,195.7 262.1,195.7 261.7,196 261.5,196.4 261.6,196.4 
	261.7,196.6 261.2,197.1 260.8,197.6 260.4,198.4 260.3,198.5 260.2,198.7 260,199.2 259.9,199.6 260,199.8 260,200 260.2,200.2 
	260.3,200.2 260.4,200.2 260.5,200.2 260.5,200.3 260.5,200.4 260.4,200.4 260.1,200.6 259.9,200.7 259.8,200.9 259.6,201.1 
	259.3,201.5 259.4,201.6 259.9,201.8 260.2,201.9 260.5,202.6 260.4,202.7 260.4,202.8 260.7,203 260.8,203.5 261,203.7 
	261.4,203.8 261.9,203.6 262.2,203.4 262.2,203.2 262,202.8 261.9,202.6 261.7,202.5 261.7,202.6 261.6,202.5 261.6,202.4 
	261.7,202.4 261.8,202.4 261.9,202.5 262.3,202.9 262.4,203.5 262.4,203.8 262.4,204 262.3,203.9 262.1,204 261.1,204.2 
	260.9,204.3 260.4,204.5 260.4,204.4 260.4,204.2 260.4,203.8 260.3,203.8 259.5,204.4 259.2,204.5 259,204.7 258.9,204.6 
	258.9,204.1 259,203.7 258.9,203.7 258.7,204 258.6,203.8 258.5,203.6 258.4,203.6 258.3,203.5 258.4,203.9 258.2,204.1 
	258.2,204.8 258,205.1 257.3,205.3 256.8,205.2 256.4,205.3 255.9,205.4 255.6,205.3 255.3,205.5 254.2,205.5 254,205.4 
	253.7,205.7 253.3,205.8 252.2,206.4 251.9,206.6 251.6,206.9 251.4,207.1 251.3,207.2 251.2,207.3 251,207.4 251.1,207.1 
	251.3,206.8 251.4,206.3 251.3,205.9 251.2,205.7 251.1,205.6 251.2,206 251.3,206.5 251.2,206.8 250.9,207.4 250.8,207.5 
	250.7,207.6 250.6,207.7 250.5,207.8 250.4,207.9 250.3,208.2 250.3,208.5 250.9,208.6 251,208.5 251.1,208.7 251.1,209 
	251.1,209.2 251,209.5 250.9,209.9 250.9,210.4 250.8,210.9 250.8,210.8 250.8,210.2 250.7,210.3 250.7,210.4 250.5,211.2 
	250.3,211.6 250.1,211.9 249.9,211.8 249.9,212 249.8,212.1 249.8,212.4 249.7,212.6 249.6,212.5 249.4,212.6 249.3,212.7 
	249.3,212.9 249.2,213 248.8,213.8 248.4,214 248.3,214 248.4,213.6 248.5,213.3 248.3,213.1 248.1,213 247.8,213 247.5,212.8 
	247.2,212.6 246.7,212 246.7,211.9 246.7,211.6 246.9,211.2 247,210.9 247.2,210.8 247.8,210.6 247.9,210.4 248,210.2 247.7,210.5 
	247.3,210.7 247.1,210.8 246.9,211 246.8,211.2 246.5,211.5 246.6,211.7 246.6,211.8 246.6,212.1 246.7,212.3 247,212.8 
	247.1,213.5 247.3,213.9 247.7,214.4 247.9,214.6 248,214.8 247.8,215.1 247.7,215.3 247.9,215.2 248,215.3 248.1,215.6 
	248.1,215.8 248.1,216 248,216.1 248,215.9 247.9,215.8 247.9,215.9 247.8,216 247.8,216.3 247.7,216.5 247.6,216.5 247.4,216.9 
	247.2,217.1 246.5,218.7 246.5,218.9 246.4,219 246.2,219.1 246,219.2 245.9,219.4 245.8,219.8 245.6,220.3 245.4,220.1 245.4,220 
	245.5,219.5 245.7,218.7 246,218.2 246.2,218 246.3,217.5 246.1,217.5 245.8,217.5 245.9,217.2 246,217.1 245.8,216.9 245.7,216.8 
	245.6,216.8 245.7,216.6 245.8,216.4 245.7,216.2 245.8,216.1 245.7,216.1 245.6,216.3 245.5,216.3 245.4,216.2 245.4,216.2 
	245.3,216.3 245.2,216.4 245.1,216.2 244.8,216.1 244.6,215.8 244.6,215.6 244.6,215.2 244.8,215.2 245.1,215.2 245.4,215.2 
	245.3,215.1 245.2,215.1 244.9,214.8 244.8,214.7 244.6,214.6 244.5,214.8 244.4,214.8 244.5,214.4 244.7,214.4 244.9,214.3 
	244.9,214.1 244.7,214 244.5,214.1 244.5,214 244.5,213.8 244.7,213.8 244.9,213.8 245,213.5 245,213.3 244.8,213.6 244.7,213.1 
	245,212.7 245.2,212.5 245.5,212.5 245.7,212.4 245.6,212.4 245.4,212.3 245.5,212.1 245.6,212.1 245.7,211.9 245.5,212 
	245.5,211.7 245.4,211.7 245.2,211.8 245.2,211.9 245.2,212.1 245.1,212.2 245,212.3 244.8,212.4 244.8,212.3 244.7,212.2 
	244.7,212.5 244.6,212.6 244.5,212.3 244.4,212.4 244.4,212.5 244.4,212.6 244.3,212.7 244.3,212.9 244.2,213 243.8,212.8 
	243.8,212.9 244,213.2 244.2,213.3 244.2,213.5 244.1,213.7 243.9,213.5 243.8,213.6 243.9,213.8 244,214 243.9,214.2 243.9,214.4 
	243.9,214.6 243.9,214.7 244,215.5 244.1,215.7 244.2,215.9 244.3,216.1 244.2,216.1 244,215.9 243.8,215.8 243.6,215.4 
	243.5,215.3 243.5,215.2 243.5,215.4 243.6,215.7 244.2,216.4 244.4,216.7 244.5,216.9 244.4,217.1 244.3,216.9 244.1,216.7 
	243.7,216.6 243.2,216.4 243,216 243,216.2 242.9,216.3 242.7,216.1 242.6,216 242.6,215.8 242.4,215.8 242.1,216 241.9,215.9 
	241.9,215.6 242,215.4 242.2,215 242.4,214.8 242.5,214.6 242.5,214.2 242.5,214.6 242.3,214.8 242.1,215 241.8,215.2 241.8,215.5 
	241.7,216 241.8,216.1 241.9,216.2 242.3,216 242.4,216.1 242.8,216.7 243.6,216.9 243.8,217 244.1,217.3 244.4,217.5 244.6,217.7 
	244.7,217.9 244.6,218.1 244.5,218.3 244.4,218.5 244.2,218.5 244,218.5 243.2,217.6 243.1,217.5 242.7,217 242.4,216.8 
	242.3,216.8 242.8,217.2 243,217.6 243.4,218 243.6,218.2 243.8,218.5 244,218.7 244.5,218.9 244.4,219 244.6,219.1 244.7,219.4 
	244.6,219.6 244.3,219.5 244.2,219.7 244.3,219.8 244.1,219.9 243.9,219.8 243.3,219.1 243.3,219.2 243.3,219.3 243.7,219.8 
	244,220 244.3,220.1 244.5,220.4 244.5,220.5 244.6,220.7 244.4,220.8 244.3,220.9 244.1,220.8 244,220.6 243.7,220.4 243.6,220.1 
	243.4,220.1 242.6,219.8 241.9,219.7 241.9,219.8 242,219.8 242.6,219.9 242.8,220.1 243.2,220.2 243.5,220.3 243.6,220.7 244,221 
	244,221.2 244.3,221.3 244.7,221 245,221.1 245.4,221.2 245.5,221.4 245.5,221.7 245.7,222.1 246.1,223.6 246.6,224.8 246.7,225 
	246.6,224.8 246.1,224 245.9,223.4 245.7,222.4 245.6,222.2 245.5,222.1 245.5,222.1 245.5,222.3 245.5,222.4 245.4,222.7 
	245.4,222.9 245.6,223 245.8,223.4 245.9,224 245.7,223.8 245.5,223.6 245.2,223.5 245,223.4 245,223.6 245,223.9 244.8,223.8 
	244.6,223.7 244.7,224 244.5,223.9 244.3,223.9 244.2,224.1 244,224.3 243.8,224.3 243.5,224.1 243.4,223.8 243.3,223.6 
	243.3,223.9 243.4,224.2 243.3,224.5 243.7,224.6 244,224.5 244.4,224.5 244.6,224.5 244.8,224.4 245.2,224.5 245.2,224.8 
	245.2,225.1 245.2,225.4 245.3,225.4 245.4,225.3 245.4,224.7 245.8,224.5 245.9,224.5 246,224.7 246.1,224.9 246.1,225.2 
	246,225.6 245.5,226 245.1,226.5 244.9,226.6 244.6,226.5 244.3,226.4 244.1,226.4 244,226.4 243.9,226.3 243.9,226 243.8,226 
	243.7,226 243.6,226.2 243.3,226.3 242.9,226.2 242.5,226 242.7,226.2 243.7,226.7 243.8,226.7 244,226.9 243.8,227.1 243.7,227.3 
	243.7,227.4 243.6,227.5 243.2,227.8 243,227.8 242.4,227.3 242.7,227.7 242.9,227.9 243.3,228 244.1,227.8 244.4,228 244.2,228.3 
	243.9,228.5 243.7,228.6 243.4,228.6 243.3,228.8 243.2,228.8 242.9,228.8 242.4,228.8 242.2,228.8 241.9,229.1 241.8,229.1 
	241.6,229.1 241.5,228.8 241.4,228.7 241.4,229.2 241.5,229.3 241.5,229.4 241.1,229.6 240.8,230 240.6,230.1 240.5,230.2 
	240.2,230.7 240.1,231 240,231.4 240,231.2 240,230.9 239.9,230.6 239.9,231.2 239.7,231.5 238.6,231.5 238.2,231.6 237.4,232.1 
	237.2,232.3 236.6,233.2 236.4,233.7 236.3,233.5 236.3,233.3 236.3,233.2 236.2,233.5 236.3,233.9 236.2,234.1 235.8,234.4 
	235.6,234.4 235.3,234.5 235.2,234.8 234.9,235.1 234.7,235.2 234.4,235.1 234.5,235.4 234.3,235.6 234.1,235.8 233.8,235.9 
	233.7,235.9 233.5,235.9 233.4,236 233.1,236.2 232.9,236.1 232.6,236.1 232.4,236.1 232.7,236.3 232.8,236.4 232.8,236.7 
	232.7,236.8 232.5,236.9 232.5,236.9 232.4,236.7 232.4,236.5 232.3,236.6 232.3,236.7 232.2,236.7 231.9,236.3 231.9,236.6 
	232,236.8 232.1,237 232.2,237 232.2,237.1 232,237.4 231.9,237.4 231.8,237.5 231.7,237.6 231.7,237.7 231.6,238 231.2,238.2 
	231.1,238.2 231,238.2 231.1,238.4 231.2,238.4 231.2,238.5 231.1,238.6 230.9,238.7 230.8,238.8 230.8,238.9 230.9,239 
	230.9,239.1 230.7,239.2 230.6,239.3 230.7,239.4 230.8,239.3 230.9,239.4 230.7,239.6 230.6,239.7 230.5,239.9 230.3,239.9 
	230.3,240 230.4,240.1 230.6,240.2 230.3,240.5 230.2,240.5 230.1,240.5 230.1,240.7 230.1,240.8 230,241.1 230,241.4 229.9,241.5 
	229.9,241.7 229.9,242 230.1,242.3 230.3,243.5 230.4,243.9 230.7,245 231.1,246.1 231.6,247.4 232.6,249 232.7,249.2 232.6,249.4 
	232.5,249.6 232.5,249.9 232.6,250.2 232.7,250.5 232.9,251 232.8,250.9 232.5,250.2 232.4,249.7 232.5,249.1 232.4,249.1 
	232.3,249.3 232.3,249.5 232.2,249.6 232.1,249.3 232.1,249.1 232.2,248.9 232.2,248.8 232,248.7 232,248.6 232,248.4 231.9,248.3 
	231.8,248.3 231.9,248.7 232,249 232.1,249.5 232.2,249.9 232.3,250.2 233.5,253.2 233.8,253.6 233.9,253.9 234,254.5 234.1,255.2 
	233.9,256.6 233.8,257.5 233.8,257.5 233.8,257.4 233.7,257.4 233.6,257.8 233.3,258.2 233.2,258.8 233.1,259.1 232.8,259.4 
	232.6,259.4 232.1,259.6 231.7,259.5 231.3,259.7 231.1,259.7 230.9,259.4 230.9,259.3 231,259.1 231.1,259.1 231.5,259.4 
	231.5,259.3 231.4,259.1 231.2,259 231,259 230.7,258.3 230.4,257.8 230.3,257.5 229.8,257.3 229.4,257 229.1,256.5 228.9,255.6 
	228.7,255.5 228.7,255.5 228.8,255.1 229,254.9 228.9,254.9 228.8,255 228.6,255.3 228.5,255.3 228.4,255.3 228.3,254.8 
	228.4,254.2 228.5,254 228.3,254 228,254.1 228.1,254.3 228,254.4 227.9,254.3 227.7,254.3 227.6,254.1 227.3,253.7 226.8,252.6 
	226.7,252.5 226.5,252.3 226.6,252.3 226.8,252.2 227.1,251.7 227.3,251.4 227.4,251.2 227.4,251.2 227.3,251 227.2,251.1 
	227.1,251.1 226.9,250.9 226.8,250.8 226.7,250.8 226.8,251 226.9,251.1 226.8,251.4 226.8,251.5 226.7,251.6 226.5,251.6 
	226.5,251.6 226.4,251.6 226.3,251.4 226.2,251.2 226.5,250 226.7,249.2 226.7,248.3 226.7,248.1 226.7,247.9 226.4,247.4 
	224.9,246.1 223.8,244.6 222.8,244 222.1,244.1 221.9,244.2 221.9,244.4 221.9,244.6 221.9,244.6 221.7,244.6 221.4,244.7 
	220.7,245.1 220.4,245.1 220.2,245.2 220.1,245.2 219.6,245.3 219.2,245.4 219.1,245.3 219,245.1 219,244.8 219.1,245 219.2,245.2 
	219.3,245.1 219.3,245 219.1,244.7 218.7,244.4 218.2,243.9 218.4,244 218.4,243.9 218.3,243.7 218.3,243.6 218.4,243.4 
	218.2,243.4 218.1,243.6 218.1,243.7 218,243.8 217.9,243.8 217.7,243.6 216.8,243.3 216.1,243.1 216.7,243 217,243 216.9,242.9 
	216.9,242.8 216.6,242.7 216.3,242.8 216.1,242.7 215.9,242.8 215.6,243 215.4,243 214.6,243.1 214,243.2 214.1,243.1 214.2,243.1 
	214.6,242.9 214.6,242.7 214.5,242.5 214.4,242.5 214.3,242.7 214.2,242.6 214,242.6 214,242.9 213.8,243.1 213.7,243.2 
	213.2,243.4 213.1,243.3 213.3,243.2 213.3,243.1 213.1,243.1 212.8,243.5 211.7,243.6 211.8,243.5 212,243.5 212.3,243.4 
	212.2,243.2 212.1,243 212,243 211.9,242.9 211.9,242.5 211.9,242.3 211.7,242.1 211.6,242.1 211.5,242.5 211.4,243 211.3,243.2 
	211,243.2 210.7,243.1 209.8,243.2 209.4,243 209.3,243 209.2,243 208.8,243.1 208.3,243.3 208.2,243.2 208,243.2 207.7,243.6 
	207.3,243.8 206.2,243.5 206,243.2 205.8,243.1 205.5,243.1 205.2,243.4 204.9,243.9 205.3,244.1 205.6,244.2 206.1,244.1 
	206.4,243.9 206.6,243.9 206.7,243.9 206.8,243.8 207,243.9 207,244 206.9,244.1 206.7,244.2 206.6,244.3 206.8,244.6 207.1,244.6 
	207.3,244.6 207.3,244.3 207.5,244.2 207.8,244.2 207.7,244.3 207.8,244.4 207.9,244.6 207.9,244.9 207.9,244.9 207.6,245 
	207.4,245.1 207.3,245.2 207.3,245.3 207.2,245.4 207.1,245.4 207,245.4 207,245.5 206.9,245.6 207,245.8 207.3,246 207.5,246.2 
	208.2,246.5 208.4,246.5 208.6,246.8 208.7,246.8 208.9,246.9 208.8,247.1 208.6,247.2 208.5,247.4 208.5,247.5 208.4,247.4 
	208.2,247.3 208,247.5 207.9,247.6 207.9,247.3 207.8,247.2 207.7,246.9 207.4,246.7 207.3,246.7 207.2,246.6 207,246.5 
	206.9,246.5 206.7,246.5 206.7,246.3 206.6,246.2 206.4,246.1 205.7,245.8 205.6,245.9 205.7,246 205.8,246.1 206,246.2 206,246.5 
	205.9,246.6 205.9,246.8 205.8,247 205.7,247.1 205.5,247.2 205.4,247.1 205.3,246.7 205,246.6 204.7,246.6 204.5,246.7 
	204.2,247.1 204,247.1 203.3,246.9 202.5,246.6 202.5,246.5 202.6,246.5 202.9,246.5 202.9,246.4 202.6,246.1 202.6,245.9 
	202.6,245.7 202.5,245.7 202.4,245.9 201.9,245.8 201.7,245.6 201.4,245.2 201,245.1 200.8,244.9 200.4,245 200.3,245.1 
	200.1,245.3 200.2,245.4 200.3,245.6 200.3,245.6 199.8,245.8 198.6,245.6 198.3,245.5 197.8,245.3 197.2,245 196.9,245 
	196.6,245.1 195.7,245.1 195.5,245.1 195.4,245.2 195.3,245.1 195.2,244.9 195.3,244.9 195.4,244.8 195.5,244.6 195.5,244.5 
	195.5,244.4 195.3,244.4 195,244.9 195.2,245.2 195.2,245.3 194.6,245.4 193.3,246 192.7,246.3 192.8,246.2 193.4,245.8 
	193.2,245.7 192.8,245.8 192.7,245.8 192.8,245.4 192.8,245.1 192.5,245.1 192.4,245.4 192.3,245.4 192.1,245.3 192,245.3 
	192.1,245.8 192.3,246.1 192.4,246.4 192,246.7 191.7,247 191.6,247.3 191.3,247.7 191,247.9 190.2,248.4 190,248.5 189.7,248.7 
	189.2,248.9 188.8,249.1 188.6,249.2 188.9,248.9 189.2,248.7 188.9,248.7 188.5,248.6 188.2,248.6 188.2,248.7 188,248.8 
	187.8,248.7 187.7,248.6 187.6,248.5 187.6,248.4 187.5,248.5 187.8,249.2 187.9,249.2 188.1,249.3 187.9,249.4 187.7,249.6 
	187.4,249.6 187.1,249.4 187,249.7 187,250 186.9,250.1 186.8,250.2 186.7,250.1 186.6,250 186.6,250.1 186.4,250.2 186.2,250.2 
	186,250.3 186,250.4 186.1,250.5 186.4,250.4 186.3,250.8 186,251.1 185.8,251.2 185.4,251.1 185.3,251.2 185.2,251.2 185.6,251.8 
	185.4,252.6 185.2,252.8 185.1,252.9 185,252.9 184.5,252.6 184.3,252.4 184.5,253 185.1,253.1 185.1,253.3 185.1,253.5 185,253.7 
	184.9,254 185,254.2 185.1,254.6 185.2,254.8 185.2,255.5 185.3,255.8 185.9,256.8 186,256.8 186.1,256.9 186,257.1 185.7,257.2 
	185.5,257.3 185.5,257.3 185.5,257.4 185.4,257.4 185.2,257.3 184.8,257 184.2,256.9 183.4,256.8 182.9,256.6 182.6,256.4 
	182.3,256.3 182,256.2 181.7,256.1 181.5,255.9 181.2,255.8 180.8,255.7 180.5,255.6 180.4,255.2 180.4,255.2 180.2,254.6 
	180,254.2 179.6,253.8 179.6,253.7 179.6,253.7 179.6,253.6 179.6,253.3 179.6,253.1 179.4,253 179.4,252.8 179.5,252.6 
	179.5,252.4 179.4,252.1 179.2,251.9 178.7,251.6 178.3,251.1 178,250.6 177.7,250.2 177.4,250 177.2,249.7 177.1,249.4 
	177.1,249.2 177.1,249.1 176.9,248.8 176.5,248.1 176.3,247.6 176.2,247.3 175.9,247 175.4,246.5 175.2,246.3 175.1,246.1 
	175.1,246.1 174.4,245.5 174.2,245.2 174,245.1 173.8,245.1 173.7,245 173.7,245 173.6,245 173.5,245 173.1,245 172.5,245 
	172,244.9 171.7,244.8 171.5,244.8 171.3,245 171.1,245.1 170.7,245.1 170.4,245.5 170.1,246.1 170,246.5 170,246.7 169.9,246.9 
	169.7,246.9 169.6,247.1 169.4,247.4 169.2,247.6 168.9,247.5 168.4,247.3 167.8,246.9 167.2,246.6 166.8,246.5 166.5,246.3 
	166.2,246 165.9,245.8 165.7,245.7 165.4,245.4 165.1,244.8 164.9,244.4 164.9,243.9 164.5,242.9 164.2,242.4 164.1,242.2 
	163.7,242 163.2,241.7 162.6,241.2 161.7,240.3 161.1,239.8 160.8,239.6 160.5,239.3 160.2,238.9 160,238.6 160,238.6 159.9,238.6 
	159.3,238.6 158.7,238.6 158.1,238.6 157.5,238.6 156.8,238.6 156.2,238.6 155.6,238.5 155,238.5 155,238.9 155,239.3 155,239.7 
	155,240 154,240 153,240 152,240 151,240 150,240 149,240 148,240 147,240 145.7,239.6 144.4,239.1 143.1,238.6 141.7,238.1 
	140.4,237.6 139.1,237.1 137.7,236.6 136.4,236.1 136.5,236 136.7,235.5 136.4,235.5 135.6,235.6 134.8,235.6 134,235.7 
	133.2,235.8 132.4,235.8 131.6,235.9 130.8,236 130,236.1 130,236 129.9,235.7 129.8,235.5 129.6,235.6 129.6,235.2 129.6,234.9 
	129.6,234.7 129.4,234.2 129,233.5 128.1,232.7 127.7,232.4 127.3,232.1 127.1,232 126.8,232 126.7,232.1 126.4,232 126.4,231.6 
	126.1,231.1 125.8,231 125.2,231.1 124.3,230.8 124.1,230.6 124,230.3 123.6,230 123,229.7 122.7,229.8 122.3,229.8 121.8,229.6 
	121.4,229.6 120.8,229.6 120.6,229.6 120.3,229.3 120.1,229.2 120.1,228.9 120.1,228.6 120.2,228.4 120,227.9 120.1,227.5 
	120.1,227.4 119.9,227.2 119.5,227.1 119.4,226.8 119.5,226.5 119.4,226.3 119,226.1 118.7,225.7 118.3,225.5 118.1,225.1 
	117.9,224.8 117.8,224.6 117.2,223.8 116.6,223.2 116.5,222.8 116.5,222.4 116.8,222.1 116.9,221.8 116.9,221.6 116.8,221.4 
	116.6,221.1 115.8,220.9 115.2,220.1 115.1,219.6 114.9,219 114.9,218.6 114.9,218.1 115,218.1 115.2,218.1 115.2,218.3 
	115.3,218.6 115.5,218.8 115.7,218.9 115.8,219.1 116,219.2 116.1,219.2 116,219 115.9,219 115.9,218.7 115.7,218.3 115.5,218.1 
	115.4,217.7 115.3,217.6 115.2,217.5 115.4,217.3 115.7,217.2 116.1,217.2 117.1,217.2 117.3,217.1 117.5,217.2 117.6,217.1 
	117.3,217 117.2,217.1 117,217.1 116.6,217.1 116.5,217 116.3,216.9 116.2,216.9 115.9,217.1 115.7,217.1 115.3,216.9 115.2,216.8 
	114.9,217 114.9,217.5 115,217.9 114.8,218 114.7,217.8 114.4,217.7 114.2,217.5 113.8,217.2 113.7,217.1 113.5,217.4 113.5,217.3 
	113.6,217 113.6,216.5 113.8,216.9 113.7,216.6 113.5,216.4 113.4,216.3 113.1,215.7 112.7,215.4 112.3,214.9 111.5,214.1 
	111.5,213.4 111.2,212.4 111.3,211.9 111.3,211.5 111.2,211 111,210.7 110.4,209.8 109.8,209.2 109.7,208.8 109.6,208.3 109.8,208 
	109.9,207.5 110,207.4 110,207.5 110,207.6 110.1,207.6 110.1,207.4 110.1,207.3 110.1,207.3 110.1,207.2 110.1,207.1 110.3,206.6 
	110.3,205.9 110.5,205 110.5,204.8 110.4,204.2 110.2,203.8 110,203.5 110.1,203.2 110.1,202.8 109.7,202.3 109.5,201.6 
	109.5,201.3 109.5,200.5 109.4,200.2 109.2,199.7 109.3,199.2 109.4,198.9 109.7,197.6 109.8,197.5 109.9,197.5 110.1,197.3 
	110,197.3 109.9,197.4 110,196.9 110.2,196.4 110.3,196.3 110.3,194.9 110.4,193.8 110.6,193.4 110.5,193.1 110.6,192.6 110.5,192 
	110.8,189.6 110.8,189.3 110.9,188.9 110.8,187.8 110.8,186.6 110.8,186.5 110.7,186.3 110.8,186.3 110.9,186.4 111.6,186.4 
	112,186.3 112.2,186.3 112.4,186.5 112.6,186.6 112.9,186.6 112.8,186.5 112.7,186.5 112.4,186.3 112.2,186.1 111.7,186.1 
	111.6,186 111,186.1 110.8,186 110.5,186 110.6,185.7 110.5,185.2 110.6,184.7 110.6,185.1 110.8,185.4 110.9,185 111,184.5 
	110.8,184.3 110.5,184.2 110.4,183.7 111.1,183.3 110.7,183.2 110.6,183 110.4,183 110.4,183.1 110.3,183.3 110.2,183 110.2,182.8 
	110.1,182.3 109.8,181.4 109.6,180.4 109.4,179.9 108.9,179.4 108.8,179.1 108.7,178.3 108.8,177.8 108.7,177.4 108.9,177.4 
	109.5,177.7 110.2,178 110.4,178.1 110.7,178.3 112.7,178.5 112.8,178.4 113,178.3 113.1,178.3 113.4,178.6 113.6,178.7 
	113.7,178.6 113.9,178.6 114.1,178.4 114.1,178.5 114.1,178.7 114.2,178.9 114.4,179.3 114.4,179.5 114.1,180.1 114,180.1 
	114,179.9 114,179.8 113.3,180.8 113.1,181.3 113.1,181.5 113.1,181.6 113.2,181.7 113.4,181.6 113.7,181.4 113.7,181.4 
	113.4,181.5 113.3,181.5 113.3,181.2 113.4,181.1 113.5,180.8 113.7,180.6 114,180.4 114.2,180.2 114.3,180 114.6,179.7 
	114.6,179.6 114.6,179.3 114.6,179.3 114.8,179.3 114.9,179.7 114.8,179.9 114.6,180.2 114.5,180.2 114.6,180.6 114.5,180.6 
	114.4,180.6 114.4,180.6 114.6,180.9 114.7,181.2 114.7,181.4 114.7,181.9 114.6,182 114.5,182 114.3,181.8 114.3,181.9 
	114.1,182.2 114.1,182.2 114,181.8 114,181.7 113.7,181.9 113.6,182.1 113.5,182.4 113.4,182.5 113.7,182.6 114,182.5 114.2,182.6 
	114.3,182.7 114.5,182.5 114.6,182.4 114.8,182 114.9,181.9 115,181.9 115.1,181.8 115.3,181.6 115.3,181.5 115.2,180.9 
	115.3,180.6 115.2,180.5 115.1,180.4 115.2,180.3 115.2,180.2 115.2,180 115.2,179.9 115.2,179.7 115.4,179.4 115.4,179.2 
	115.6,178.9 115.6,178.8 115.4,178.6 115.3,178.5 115.2,178.3 115.1,178.2 115.1,178.2 115.2,178.6 115.2,178.6 114.9,178.4 
	114.8,178.3 114.8,178.1 114.8,178 115,177.9 115.2,177.8 115.1,177.7 114.9,177.4 114.8,177.2 114.7,177.2 114.5,177.1 
	114.4,177.1 114.4,177 114.4,176.9 114.5,176.9 114.8,176.9 114.9,176.8 114.9,176.7 114.8,176.6 114.9,176.1 114.8,175.8 
	114.7,175.7 114.7,175.7 114.6,175.7 114.5,175.7 114.4,175.6 114.3,175.4 114.1,174.8 114.4,174.8 115.6,174.8 116.8,174.8 
	118,174.8 119.2,174.8 120.3,174.8 121.5,174.8 122.7,174.8 123.9,174.8 125.1,174.8 126.3,174.8 127.5,174.8 128.7,174.8 
	129.9,174.8 131.1,174.8 132.3,174.8 133.5,174.8 134.7,174.8 135.9,174.8 137.1,174.8 138.3,174.8 139.5,174.8 140.7,174.8 
	141.9,174.8 143.1,174.8 144.3,174.8 145.5,174.8 146.7,174.8 147.9,174.8 149.1,174.8 150.3,174.8 151.5,174.8 152.7,174.8 
	153.9,174.8 155.1,174.8 156.3,174.8 157.4,174.8 158.6,174.8 159.8,174.8 161,174.8 162.2,174.8 163.4,174.8 164.6,174.8 
	165.8,174.8 167,174.8 168.2,174.8 169.4,174.8 170.6,174.8 171.8,174.8 173,174.8 174.2,174.8 175.4,174.8 176.6,174.8 
	177.8,174.8 179,174.8 180.2,174.8 181.4,174.8 182.6,174.8 183.8,174.8 185,174.8 186.2,174.8 187.4,174.8 188.6,174.8 
	189.8,174.8 191,174.8 191.6,174.8 191.6,173.9 191.6,173.2 192.2,173.2 192.4,173.4 192.5,173.4 192.5,173.6 192.5,174.2 
	192.6,174.7 192.9,175.3 192.9,175.3 192.9,175.6 193,175.7 193.1,175.8 193.7,176 194.7,176.2 195.3,176.4 195.4,176.7 
	195.7,176.8 196.1,176.7 196.4,176.6 "/>
<polygon class="st2" points="114.1,176.1 114.1,176.2 114,176.3 113.9,176.3 113.8,176.2 113.8,176.2 113.8,176.4 113.8,176.5 
	113.5,176.3 113.5,176.2 113.6,176.1 113.7,176 113.8,176 "/>
<polygon class="st2" points="113.5,176.9 113.5,177 113.2,176.9 113.1,176.8 113.1,176.8 113,176.5 113,176.4 113.2,176.4 
	113.4,176.7 "/>
<polygon class="st2" points="114,177.2 113.9,177.2 113.8,177.1 113.7,177.1 113.7,176.9 113.7,176.7 113.8,176.7 113.9,176.7 
	113.9,176.9 114,177.1 "/>
<polygon class="st2" points="114.7,178.3 114.8,178.9 114.9,178.6 115.3,179 115.3,179.2 115.2,179.3 115.1,179.3 115.1,179.3 
	115,179.1 114.9,179 114.7,179 114.6,178.8 114.6,178.7 114.6,178.4 114.5,178.3 114.5,178.3 114.4,178.2 114.2,178 114.2,178 
	114.3,177.8 114.4,177.5 114.5,177.4 114.6,177.4 114.7,177.5 114.8,177.6 114.8,177.7 114.4,178 114.3,178 114.5,178.1 
	114.6,178.1 "/>
<polygon class="st2" points="209,179.3 209,179.3 209.1,179.4 209.1,179.4 209,179.5 208.7,179.6 208.5,179.6 208.4,179.6 
	208.3,179.5 208.4,179.4 208.4,179.3 208.3,179.3 208.4,179.3 208.5,179.2 209.6,178.5 210.1,178.3 210.3,178.2 210.4,178.3 
	210.1,178.5 210,178.6 210.1,178.7 210,178.8 209.2,179.2 "/>
<polygon class="st2" points="114.9,180.7 114.9,180.7 114.7,180.6 114.7,180.6 114.7,180.4 114.7,180.2 114.8,180.2 114.8,180.3 
	114.9,180.3 "/>
<polygon class="st2" points="115.2,181.5 115.2,181.6 115.1,181.7 115,181.6 115,181.5 115,181.5 114.9,181.6 114.9,181.4 
	114.9,181.1 115,181.1 115.1,181.3 "/>
<polygon class="st2" points="211.1,182.2 211,182.4 211.1,182.5 210.7,182.8 210.6,183 210.5,183.1 210.4,182.9 210.4,182.8 
	210.5,182.7 210.6,182.6 210.6,182.4 210.5,182.3 210.4,182.5 210.5,182.5 210.5,182.6 210.5,182.6 210.1,182.5 210,182.4 
	210,182.2 210.1,182 210.6,181.5 210.8,181.4 211.4,181.2 211.7,181.1 212.1,181.1 212.3,181.2 212.4,181.3 212.3,181.4 
	211.7,181.5 211.6,181.5 211.8,181.6 211.8,181.7 211.7,181.8 "/>
<polygon class="st2" points="113.9,182.3 113.9,182.4 113.8,182.3 113.7,182.2 113.7,182.1 113.8,182 113.9,182.2 "/>
<polygon class="st2" points="204.9,183 204.8,183.1 204.8,183 204.8,182.9 204.8,182.8 204.9,182.8 205,182.8 205,182.9 "/>
<polygon class="st2" points="204.1,183.4 204.1,183.4 204,183.4 204,183.3 204,183.3 204,183.3 204.1,183.4 "/>
<polygon class="st2" points="204.6,183.4 204.5,183.5 204.3,183.4 204.3,183.4 204.5,183.3 204.6,183.3 204.6,183.3 "/>
<polygon class="st2" points="204.1,184 203.9,184.1 203.9,184 203.9,184 204,183.9 204.4,183.6 204.4,183.6 204.4,183.7 
	204.3,183.8 204.2,183.9 204.2,183.9 "/>
<polygon class="st2" points="222.6,185.7 222.6,185.8 222.5,185.8 222.4,185.7 222.4,185.6 222.3,185.4 222.2,185.2 222.3,185 
	222.4,185 222.5,185 222.6,185.1 222.5,185.3 222.5,185.5 "/>
<polygon class="st2" points="222.6,186.2 222.6,186.2 222.4,186 222.4,185.9 222.4,185.9 222.5,185.9 222.6,185.9 222.6,186 
	222.6,186.1 "/>
<polygon class="st2" points="224.3,187.1 224.4,187.2 224.3,187.3 224.1,187.4 223.7,187.4 223.4,187.4 223.3,187.3 223.3,187.2 
	223.3,187.1 223.4,187.1 223.4,187.2 223.6,187.1 223.7,187 223.8,186.9 223.8,186.9 223.8,186.8 223.8,186.7 224,186.8 
	224.1,186.9 224.3,187.1 "/>
<polygon class="st2" points="221.4,187.9 221.7,188 221.8,187.9 221.9,188 221.9,188.1 221.8,188.2 221.8,188.2 221.7,188.2 
	221.6,188.2 221.4,188 "/>
<polygon class="st2" points="218.6,188.8 218.5,188.8 218.4,188.7 218.4,188.6 218.5,188.2 218.6,188.1 218.8,188.1 218.7,188.2 
	218.8,188.5 218.7,188.7 "/>
<polygon class="st2" points="214.9,189.8 214.8,189.8 214.7,189.8 214.6,189.7 214.7,189.5 214.7,189.5 214.9,189.5 214.9,189.5 
	214.9,189.6 "/>
<polygon class="st2" points="214.5,190.2 214.5,190.3 214.4,190.2 214.4,190.3 214.4,190.5 214.4,190.6 214.3,190.6 214.3,190.6 
	214.3,190.7 214.4,190.8 214.3,190.9 214.3,190.9 214.2,190.9 214.1,191 214,191.2 214,191.4 214,191.4 214,191.5 213.7,191.8 
	213.6,191.9 213.5,191.8 213.4,191.7 213.4,191.6 213.4,191.4 213.4,191.3 213.6,191 213.7,190.8 213.8,190.6 213.9,190.5 
	214.1,190.4 214.2,190.3 214.3,190.1 214.4,190 214.5,190 214.6,190.1 "/>
<polygon class="st2" points="217.4,190.8 217.4,190.8 217.3,190.8 217.2,190.8 217.2,190.6 217.2,190.5 217.3,190.6 217.4,190.6 "/>
<polygon class="st2" points="267.3,193.8 267.2,193.9 267,193.8 267,194 267,194.1 266.8,194 266.7,193.9 266.7,193.7 266.9,193.4 
	267,193.3 267.2,193.4 267.3,193.7 "/>
<polygon class="st2" points="245.1,194 245,194 245,194 245,193.9 245.1,193.9 245.2,193.9 245.2,193.9 "/>
<polygon class="st2" points="266.1,194.3 266,194.4 265.9,194.4 265.9,194.2 265.9,194.1 265.9,194.1 266,194.1 "/>
<polygon class="st2" points="244.7,195.1 244.6,195.1 244.6,195.1 244.7,195 244.7,195 244.7,195 "/>
<polygon class="st2" points="237.2,198.9 237.1,199 237,199 236.9,198.9 236.9,198.9 236.9,198.7 237,198.7 237.2,198.7 
	237.2,198.8 "/>
<polygon class="st2" points="258.7,204.6 258.6,204.7 258.5,204.7 258.5,204.6 258.6,204.4 258.6,204.2 258.7,204.1 258.8,204 "/>
<polygon class="st2" points="258.4,204.7 258.3,204.7 258.3,204.6 258.3,204.3 258.4,204.3 258.4,204.5 "/>
<polygon class="st2" points="260.8,205.1 260,205.3 259.9,205.1 260.1,205.1 260.3,204.8 260.5,204.8 260.8,204.9 "/>
<polygon class="st2" points="262.3,205.5 262.1,205.5 261.6,205.4 262,205.3 262.1,205.2 262.1,205.1 262.1,205 262.3,205.4 "/>
<polygon class="st2" points="255.2,206.5 255,206.8 255.2,206.8 255.3,206.7 255.5,206.6 255.8,206.4 256.1,206.3 256.2,206.3 
	256.3,206.4 256.6,206.3 256.9,206.2 255.7,206.9 255.4,206.9 255.1,207.1 254.7,207.2 254.5,207.3 253.3,207.7 253.2,207.8 
	253.1,207.7 252.1,207.9 251.7,208 251.3,208.1 251.6,207.9 251.6,207.8 251.5,207.7 251.4,207.8 251.2,208 251,208 250.9,207.8 
	251,207.6 251.1,207.5 251.3,207.2 251.7,207.1 251.9,207 252,207.1 252,206.9 252.1,206.8 252.2,206.8 252.4,206.8 252.6,206.7 
	252.7,206.7 252.8,206.7 253,206.8 253.3,206.7 253.5,206.6 253.7,206.6 254.3,206.6 254.9,206.5 255.1,206.4 255.6,206 
	255.9,205.9 255.4,206.3 "/>
<polygon class="st2" points="250.5,208.2 250.3,208.2 250.5,207.9 250.7,207.7 250.8,207.8 250.8,207.9 250.8,208 250.6,208.2 "/>
<polygon class="st2" points="250.6,211.3 250.3,211.9 250.3,211.8 250.7,211.1 "/>
<polygon class="st2" points="247.3,217.7 247.1,217.8 247.6,217.1 247.8,216.5 247.9,216.3 247.8,216.7 247.6,217.1 "/>
<polygon class="st2" points="246.4,224.8 246.4,224.9 246.2,224.5 246.4,224.6 246.4,224.8 "/>
<polygon class="st2" points="246.7,227 246.3,227 246.3,227 246.7,226.8 246.8,226.1 246.8,225.8 246.8,225.3 246.8,225.1 
	246.9,225.3 246.9,225.8 246.9,226.2 246.8,226.8 "/>
<polygon class="st2" points="246,227.1 245.5,227.4 245.4,227.4 245.8,227.2 "/>
<polygon class="st2" points="244,229 243.9,229 244.2,228.6 244.7,228.1 244.8,228 244.4,228.4 "/>
<polygon class="st2" points="243.9,228.9 243.8,229 243.7,228.9 243.5,228.8 243.5,228.8 243.6,228.8 "/>
<polygon class="st2" points="122.2,230.9 122.8,231.1 123.1,231 123.2,231.1 123.1,231.1 122.4,231.3 122.2,231.2 122.2,231.1 
	122.1,230.9 "/>
<polygon class="st2" points="121,231.1 120.9,231.1 120.7,231 120.7,231 120.9,230.9 120.9,231 "/>
<polygon class="st2" points="121.8,231.4 121.6,231.5 121.4,231.4 121.2,231.1 121.7,231.1 121.9,231.2 122,231.3 "/>
<polygon class="st2" points="126.5,233.2 126.7,233.5 126.5,233.4 126.3,233.5 126.2,233.3 126.1,233.1 126.1,233.1 126,233.1 
	125.9,233.1 125.9,233 126,232.9 126.4,233.1 "/>
<polygon class="st2" points="123.5,233.8 123.4,233.8 123.2,233.8 123.1,233.6 123.2,233.6 123.4,233.6 123.5,233.7 "/>
<polygon class="st2" points="126.5,235.1 126.4,235.1 126.2,235 126,234.7 125.9,234.5 126,234.4 126.1,234.6 126.4,235 "/>
<polygon class="st2" points="230.2,241.2 230.1,242 230,241.7 230,241.4 230.1,241.3 "/>
<polygon class="st2" points="211.5,243.5 211.3,243.6 210.9,243.6 210.8,243.6 211,243.5 211.4,243.5 "/>
<polygon class="st2" points="210.1,243.6 210.1,243.7 209.9,243.6 209.7,243.5 209.7,243.5 210.1,243.6 "/>
<polygon class="st2" points="208.3,244.1 208.3,244.2 208.2,244.1 207.9,244.1 208,244.1 208.1,244 208.1,244 208.4,243.8 
	208.3,243.9 "/>
<polygon class="st2" points="209.4,245 209.3,245.1 209.4,244.6 209.3,244.2 209.4,244.3 209.4,244.6 "/>
<polygon class="st2" points="209.2,245.3 209.1,245.4 209.1,245.4 209.2,245.2 209.3,245.1 "/>
<polygon class="st2" points="220.4,245.5 220.1,245.6 219.8,245.5 220,245.5 220.1,245.5 220.5,245.4 220.7,245.2 220.9,245.2 "/>
<polygon class="st2" points="201.1,245.9 201,246 200.5,245.7 200.5,245.6 200.7,245.5 200.8,245.5 201.1,245.6 201.1,245.7 
	201.2,245.7 201.2,245.8 "/>
<polygon class="st2" points="192,247.1 191.8,247.1 192.4,246.6 192.6,246.5 192.7,246.5 192.4,246.7 "/>
<polygon class="st2" points="187.1,250.2 187,250.3 187.1,250.1 187.4,250 187.8,249.7 188,249.6 188.1,249.5 188.1,249.5 
	188.1,249.7 187.7,249.9 "/>
<polygon class="st2" points="186.4,251 186.4,251 186.5,250.8 186.5,250.7 186.7,250.4 186.9,250.3 186.9,250.4 186.7,250.7 "/>
<polygon class="st2" points="233.6,253 233.7,253.2 233.4,252.7 233.1,251.8 232.9,251.2 233.1,251.4 233.2,251.7 "/>
<polygon class="st2" points="185.5,252.9 185.4,253.1 185.4,252.8 185.6,252.2 186.1,251.4 186.3,251.3 185.8,252.2 "/>
<polygon class="st2" points="186,256.5 185.9,256.6 185.7,256 185.3,254.4 185.3,253.6 185.4,253.3 185.5,254.5 185.9,256.1 "/>
<polygon class="st2" points="228.3,255.3 228.3,255.5 228.2,255.1 228.1,254.8 228.2,254.9 "/>
<polygon class="st2" points="228.4,255.6 228.3,255.7 228.1,255.6 228,255.5 228,255.3 228.2,255.5 228.2,255.6 "/>
<polygon class="st2" points="233.1,259.6 232.5,260.2 232.6,260.1 232.8,259.8 232.9,259.6 233,259.5 233.2,259.4 233.2,259.2 
	233.4,259 233.4,259 "/>
<polygon class="st2" points="232.4,260.4 232.3,260.4 232.4,260.3 232.4,260.3 "/>
<polygon class="st2" points="231.8,260.7 231.8,260.7 231.8,260.6 231.9,260.6 232,260.6 232,260.6 "/>
<polygon class="st2" points="231.2,261 231.1,261 231,261 231.1,260.9 231.6,260.8 231.4,260.9 "/>
<polygon class="st2" points="230.4,261.2 230.3,261.2 230.3,261.2 230.3,261.1 230.2,260.9 230.2,260.9 230.5,261.1 230.5,261.1 "/>
<polygon class="st2" points="229.8,261.3 229.6,261.3 229.7,261.2 229.8,261 229.9,261.2 229.9,261.3 "/>
<polygon class="st2" points="229.2,261.5 229.1,261.5 229.1,261.4 229.2,261.4 229.3,261.4 229.3,261.5 "/>
<polygon class="st2" points="257.7,258.1 257.5,258.3 257.4,258.2 257.1,258.2 257,258 256.7,257.9 256.6,257.8 256.8,257.5 
	257.2,257.2 257.8,257.2 257.9,257.4 258,257.6 257.9,257.7 257.8,258 "/>
<polygon class="st2" points="255.5,258.4 255.4,258.5 255.3,258.5 255.3,258.4 255.4,258.2 255.5,258 255.7,257.8 255.8,257.9 
	255.8,258 255.8,258.2 255.6,258.2 "/>
<polygon class="st2" points="262.2,259.5 262.3,259.5 262.4,259.5 262.4,259.7 262.6,259.9 262.6,260 262.5,260 262.2,260.1 
	262,260 261.9,259.9 261.7,259.9 261.7,259.8 261.7,259.7 261.6,259.8 261.7,259.9 261.4,259.9 261.3,259.9 261.2,259.8 
	260.9,259.4 260.9,259.3 260.8,259.1 261.3,259.1 261.5,258.8 261.7,258.8 262,259.2 262,259.3 262.1,259.5 "/>
<polygon class="st2" points="263.8,260.2 264.4,260.3 264.5,260.3 264.6,260.3 265.1,260.4 265.2,260.4 265.1,260.6 264.8,260.7 
	264.3,260.6 263.6,260.5 263.6,260.4 263.7,260.3 263.7,260.2 "/>
<polygon class="st2" points="265.8,261.1 265.9,261.1 266.2,261.1 266.4,261 266.8,261.2 266.9,261.4 267.2,261.5 267.2,261.6 
	267.2,261.7 266.9,261.9 266.6,262 266.3,262.1 266.1,262.1 266,262 266,261.8 265.9,261.5 265.7,261.5 265.5,261.4 265.3,261.2 
	265.3,261 265.4,260.8 265.6,260.8 265.7,260.9 "/>
<polygon class="st2" points="264.8,261.6 264.7,261.6 264.5,261.6 264.4,261.4 264.3,261.1 264.6,261.1 264.7,261.2 264.8,261.2 
	264.9,261.4 "/>
<polygon class="st2" points="268.4,266.8 268.3,266.9 268.1,266.9 267.5,266.6 267.5,266.4 267.5,265.7 267.3,265.1 267.1,264.6 
	267.2,264.4 267.5,264.2 267.7,263.8 267.5,263.4 267.6,263.1 267.7,263 268.3,263.4 269.5,263.9 269.8,264.2 269.8,264.6 
	270,264.7 270.2,264.9 270.5,265.1 270.6,265.3 270.4,265.5 269.9,265.9 269.2,266 268.5,266.5 "/>
<text transform="matrix(1 0 0 1 466.4915 213.2801)" class="st3 st4 st5">GIRONA</text>
<text transform="matrix(1 0 0 1 216.6 279.6767)" class="st3 st4 st5">CUBA</text>
</svg>
