<svg xmlns="http://www.w3.org/2000/svg" width="950" height="620" viewBox="0 0 950 620"><g fill="none" stroke="#333" stroke-width=".5" stroke-miterlimit="10"><path d="M0 2.105h950V620H0zM0 590.434h950M0 561.167h950M0 531.6h950M0 502.334h950M0 472.768h950M0 443.5h950M0 413.934h950M0 384.67h950M0 355.1h950M0 325.836h950M0 296.27h950M0 267.003h950M0 237.436h950M0 208.17h950M0 178.603h950M0 149.338h950M0 119.77h950M0 90.504h950M0 60.938h950M0 31.672h950M904.774 2.105V620M859.547 2.105V620M814.32 2.105V620M769.092 2.105V620M723.865 2.105V620M678.638 2.105V620M633.41 2.105V620M588.185 2.105V620M542.957 2.105V620M497.73 2.105V620M452.27 2.105V620M407.044 2.105V620M361.817 2.105V620M316.59 2.105V620M271.363 2.105V620M226.135 2.105V620M180.908 2.105V620M135.68 2.105V620M90.455 2.105V620M45.227 2.105V620"/></g><g fill="#666" stroke="#333"><path d="M220.85 266.92v1.27l5.32.1 2.51-1.46.39 1.07 5.22 1.27 4.64 4.19-1.06 1.46.19 1.66 3.87.97 3.87-1.75 1.74-1.75-2.51-1.27-12.95-7.6-4.54-.49-6.69 2.33zM148.76 158.34l-1 4.02-3.49-2.26h-1.74l-1 4.27-12.21 27.36 3.24 23.84 3.99 2.01.75 6.53h8.22l7.97 6.02 15.69 1.51 1.74 8.03 2.49 1.76 3.49-3.51 2.74 1.25 2.49 11.54 4.228 2.76 3.49-6.53 10.71-7.78 6.97 3.26 5.98.5.25-3.76 12.45.25 2.49 2.76.5 6.27-1.49 3.51 1.74 6.02h3.74l3.74-5.77-1.49-2.76-1.49-6.02 2.24-6.78 10.21-8.78 7.72-2.26-1-7.28 10.71-11.55 10.71-1.76L272.8 199l10.46-6.02v-8.03l-1-.5-3.74 1.25-.5 4.92-12.43.15-9.74 6.47-15.29 5-2.44-2.99 6.94-10.5-3.43-3.27-2.33-4.44-4.83-3.88-5.25-.44-9.92-6.77-70.54-11.61zM448.36 205h-12.74l-2.57-1.16-1.24.09-1.5 3.12.53 3.21 4.87.45.62 2.05-2.12 11.95.09 2.14 3.45 1.87 3.98.27 7.96-1.96 3.89-4.9.09-4.99 6.9-6.24.35-2.76-6.28-.09-6.28-3.05z"/><path d="M430.93 211.24l-.62 8.65-1.77 1.6.18.98 1.24 2.05-.8 2.5 1.33.45 3.1-.36-.18-2.5 2.03-11.59-.44-1.6-4.07-.18zM461.1 217.21l-1.59.54.35 1.43h2.3l.97-1.07-2.03-.9z"/></g></svg>