<svg id="Capa_2" xmlns="http://www.w3.org/2000/svg" viewBox="0 0 950 620"><style>.st0{fill:#CCCCCC;stroke:#FFFFFF;stroke-width:0.5;} .st1{fill:#555555;stroke:#FFFFFF;stroke-width:0.5;} .st2{fill:#999999;stroke:#FFFFFF;stroke-width:0.5;} .st3{fill:#FFFFFF;stroke:#555555;stroke-width:0.25;stroke-linejoin:round;} .st4{font-family:&apos;OpenSans-Extrabold&apos;;} .st5{font-size:8px;}</style><path class="st0" d="M234.5 78.1h-.1V78l.3-.3.6-.3-.3.3z"/><path id="ES" class="st1" d="M447.3 208.3v.1l.1.2.1.1.2.1h.5l.2.1v.4l-.1.2-.1.1.1.1.1.1h.2v-.1l.1-.1h.1v.2l.3.1.7.3h.5l.1.1.4.4h.5l.2-.1h.1l.1.1.1.1.2.1.2.2.1.1.7-.1.2.1h.4l.4.1h.3v-.4l.1-.1H454.7l.7.2.3.1.3.1h.2l.2.1.2.4v.5l.1.1h.2l.1-.1.3-.2h.1l.4.2.2.1.1.1.1.1h.1l.2-.1.3-.1.5.1.5.2h.2v-.2l.1-.1h.1l.2-.1.2-.1h.2l.2.1.3.1h.2l.1.2.1.1.1.2-.2.1h-.1v.4l.1.1.1.1v.6l-.3.3-.4.4-1.9 1.1-.5.5-.2.1-1.4.3-1 .4-.5.1-.6.6-.3.3.2.1.3.3-.1.1-.4.2-.2.1h-.2l-.7 1.1-.6.8-.3.3-.3.5-.7 1.3v.4l.3 1.3.2.3.3.3.5.2.1.2-.2.2-.5.4-.9.5-.4.4-.1.4-.3.2-.1.6-.2.4v.1l-.2.3v.2l.3.3-.1.1-.1.1H448.8l-.9.6-.4.5-.4 1-.5.6-.2.1-.3-.3h-.4l-.4.1-.2.2-.3.1-.3-.1-.7-.1h-.3l-.5.2-.4-.1-.7-.1-1.5.1-.2.1-.2.2-.5.4h-.7l-.7.3-.2.2-.3.5-.1.3h-.1l-.1-.1h-.1l-.2.4-.2.1h-.2l-.5-.2-.4-.3h-.2l-.4-.5-.2-.3-.1-.3v-.2l-.3-.1-.1-.3.2-.4.2-.2.1-.1h-.3l-.2.3-.3-.4-1.1-.8.1-.2v-.1l-.2.2-.1.1h-.6l-.6.1-.2-.9-.1-.3v-.2l.2-.5.2-.2.2-.4.3-.4.3-.1.1-.1.1-.3.1-.2h-.4l-.7-1v-.2l.1-.2.1-.3v-.2l.2-.2.3-.2.2-.3.1-.3v-.3l-.1-.2-.4-.1-.4-.7-.1-.5h-.1l-.2-.2-.2-.4v-.1l.2-.1h.9l.2-.1.2-.3.2-.5v-.3l-.1-.1-.3-.3v-.2l.2-.2.3-.2.1-.2v-.1l-.1-.1V218.4l-.1-.4-.2-.5v-.1l.1-.1.3-.2.2-.4.3-.3.5-.3.3-.3.1-.2.1-.1v-.1l-.1-.2-.2-.2-.2-.1h-.5V214.1l-.1-.1h-.2l-.2-.1h-.2l-.1.1h-.5l-.2-.1-.1-.1h-.1V214.1l-.2.1-.4.1h-.3l-.3-.1-.1-.1-.1-.1-.6.1h-.1l-.2.1-.3.1H429v-.1l-.1-.2v-.1l.2-.3v-.1l-.1-.1-.1-.2v-.1h-.1l-.2.1-.6.2-.1.1-.3.2-.3.3-.2.1-.1-.1v-.6l.3-.4.2-.2H427.2v-.2l.1-.1.1-.2-.1-.1-.1-.1v-.7l-.5.2h-.1v-.3l.3-.4v-.1l-.3-.1-.2-.2-.1-.2-.2-.3v-.2l.2-.5.2-.2.2-.1.4-.4.6.1.4-.1.3-.2h.2l.3-.2v-.2l-.1-.2.1-.2.3-.2.4-.3h.4l.4-.2.3.1h.3l.3.2.4.4.6.2.5-.1h.8l.4.1.7-.1h.4l.7-.2.5.2 1 .1.6.2 1.6.3h.6l.8-.2.4-.1.3.1.5-.2h.2l.3.2 1 .3.3-.3.2-.1.8.2.8.3h.4l.6-.1.6-.1zm17.1 13.3l-.9-.4h-.3l-.1-.1V220.8h.6l.5.2.3.4v.1l-.1.1zm-3.2.2l.3.1.3-.1h.2l.1.1v.2l-.1.3-.2.3-.2.3-.1.3-.3.2-.2.1-.5-.2-.3-.1-.1-.1-.1-.4-.1-.1-.2-.1-.2.1-.2.2-.1-.2h-.2l-.1-.1v-.1l1.2-.9.3-.2.7-.2h.1l-.1.1v.1l.1.1v.1l-.1.1.1.1zm-4.8 3.1l-.1.2-.4-.1-.1-.1.1-.2h.1v-.2l.1-.2.6-.1.1.1v.2l-.4.4zm.4.9h-.5v-.2l.1-.1.2.2h.3l-.1.1zm-42.9 32.9l-.2.2-.2-.1.1-.5.1-.1.4-.2.3-.1.1-.2.1-.1.1.1-.1.1-.1.5-.2.1-.4.3zm-11.6 1.3l-.1-.2-.3-.6.2-.3h.4l.1.2v.2l-.1.1V259.7l-.2.3zm10.2 1.1l-.4.4-.4-.1-.1-.1.4-.1.3-.3.2-.6.3-.7.1-.3.1-.1H413.3l.1.1v.3l-.1.6-.2.5-.6.4zm-6-.7l-.2.7-.2.3-.1.1-.3.1-.4-.4-.2-.5-.1-.1.2-.1h.3l.5-.1h.1l.6-.5.5-.1v.2l-.7.4zm-2.4 1.1h-.1l-.1-.1-.1-.3.1-.2.1-.1h.1l.2.1.1.1v.1l-.3.4zm5-.4v.2l.1.2v.4l-.1.2-.3.2h-.3l-.2-.1-.3-.2v-.3l.2-.2.1-.3.6.1.2-.2zm-6.9 1.1l-.3.5-.3-.2-.1-.1-.1-.1h.3l.3-.3.2.2z"/><path id="PT" class="st2" d="M404.1 245.8l.4.2.4-.1.4.2.2.1-.2.2-.2.2h-.5l-.4-.2-.2-.1v-.1l.1-.4zm-22-13.9h-.4l-.1-.2.1-.1h.2l.1.1.1.2zm-1.7-3.1h.2l.9-.1h.2v.3l-.2.1-.5.1-.8-.2-.3-.2V228.5l.2-.1.3.4zm-7-2.2l.2.1h-.4l-.1.1-.3-.1h-.3l-.2-.2v-.2l.1-.1h.3l.7.4zm-1.4-.3h-.3l-.3-.3.4-.1.1.1.1.1.1.1-.1.1zm2.4-.1h-.1l-.7-.3-.3-.1-.3-.3 1 .4.4.3zm2-.3l-.6-.1-.2-.1-.1-.2.1-.1h.7l.2.2v.2l-.1.1zm-11.4-2.7l-.1.2-.2-.1-.1-.1.1-.4.2-.1.2.1-.1.4zm64.4-8.9h.2l.3-.1.2-.1h.1l.6-.1.1.1.1.1.3.1h.3l.4-.1.2-.1V213.8h.1l.1.1.2.1h.5l.1-.1h.2l.2.1h.2l.1.1V214.9h.5l.2.1.2.2.1.2v.1l-.1.1-.1.2-.3.3-.5.3-.3.3-.2.4-.3.2-.1.1v.1l.2.5.1.4V219.7l.1.1v.1l-.1.2-.3.2-.2.2v.2l.3.3.1.1v.3l-.2.5-.2.3-.2.1h-.9l-.2.1v.1l.2.4.2.2h.1l.1.5.4.7.4.1.1.2v.3l-.1.3-.2.3-.3.2-.2.2v.2l-.1.3-.1.2v.2l.7 1h.4l-.1.2-.1.3-.1.1-.3.1-.3.4-.2.4-.2.2-.2.5v.2l.1.3.2.9h-.2l-1 .6h-.3l-.6-.2-1-.1-.3-.1-.4.2h-.3l-.2.2-.2-.1.2-.5.3-.9v-.6l.1-.5-.1-.5-.2-.3.2-.8v-.4l-.2-.5.6.1-.2-.2-.2-.1H427.6l-.5.2-.3.1h-.1v-.3l-.1-.4.2-.1h.2l.2-.2.1-.2-.1-.4.2-.3.4-.3h-.2l-.2.2-.4.7-.1.3-.3.1-.3.1h-.1l-.2-.1v-.4l.1-.4v-.5l.2-.5V224l.2-.2.2-.1.3-.4.4-1 .5-1.1v-.1l-.1-.1v-.3l.3-1.3.1-.2.1-.4v-.6l.1-.4v-.5l-.2-.5-.2-1v-.3l.2-.2h-.3l-.1-.2v-.3l.3-.4.3-.3.3-.2.1-.1.6-.2.2-.1h.1v.1l.1.2.1.1v.1l-.2.3v.1l-.3-.1z"/><path id="BS" class="st2" d="M242 257.3l-.3-.3-.2-.1.3-.2.1-.2v-.4l.1-.2v-.2l.1-.2-.1-.2-.3-.2-.5-.7-.8-.2h-.4l.2-.1h.2l.3.1h.4l.2.2.2.3.2.1.1.1v.2l.3.1.3.2.1.6-.4.3-.1.9v.1zm-3.6-2.6l.3.1h.2l.1-.1h.5l.4-.1.1.2v.1l-.9.1-.8.2-.4.2h-.2l-.2-.1-.5-.5h.1l.4.3.2-.1.2-.2v-.2l.1-.2.4.3zm5.2 3.9l.5.3.4.1.4.4.2.2v.1l-.1.6-.1.4v.3l-.1-.1-.1-.2-.2-.1-.1-.1h.3v-.4l.1-.3v-.3l-.3-.3-.2-.3-.3.1-.3-.3h-.4l.1-.2.1-.2.1.3zm-3.1 2.4V261.8l-.3.2-.1.1-.3.1-.2.1-.1-.2-.2-.1v-.2l-.1.1-.2-.1-.3-.2-.2-.3h.3l.1.2.2-.2v-.1l-.1-.2.3-.5.1-.3-.1-.5h.1l.4.2.2.2v.2l.2.2.2.5h.1zm1.1-1l-.3.1-.2-.1h-.1l.1-.1.2-.1h.3l.1.1-.1.1zm5.7 2.5v.2h-.2l-.3.1h-.1l.1-.1.2-.1v-.1l-.2-.2-.3-.5-.1-.1-.1-.2-.2-.2v-.1l.2.1.4.7v.1l.6.4zm-6.6-.1l-.3.3.2.1.2-.3.2.2.1.5v.4l-.2.4h-.6v-.3l-.1-.1-.1-.5-.2-.2-.2-.4.1-.1H240.4l.2-.1.1.1zm9.1.5l-.2.3h-.1l.1-.4.2-.1h.1l-.1.2zm-3.5 1.9h-.1l-.2-.1-.5-.4h-.2l.1-.2.2.1.4.3.1.2.2.1zm2.3 1.7l-.4-.5-.4-.1-.3-.1.1-.1h.2v-.2l-.1-.2-.2-.4-.1-.3-.1-.1v-.2l.3.4.1.3.2.3.1.6.4.2.3.3-.1.1zm2.2.5l-.1.2-.4-.1h-.1l-.1-.2v-.2l.2.1.1.2h.4zm-.4 1.6l-.2.1v-.2l.4-.3.2-.2.1-.1v-.1l.2-.1.1-.1v-.1l-.2-.2v-.1l.1-.1h.3l-.1.2.1.4-.4.5-.3.2-.3.2zm3.3-.7H254l.3.1.2.1v.1l-.1.1-.3-.2H253.3l.1-.2h.3zm.3 2.8l-.4.1v-.2l.2-.1.2.2zm-.3.9l-.1.2-.3.4-.7.1h-.7l-.1-.1v-.1l.1-.2v-.2l.3-.1.2-.2h.3l.3.1h.2l.3-.1.2-.3h.1l-.1.5z"/><path id="BZ" class="st2" d="M210.9 279.7l-.1.3h.5l.1.4v.3l-.3.8v.3l-.1.4.2.3-.2.4-.1.2v.4l.1.7-.1 1-.3.4-.2.2-.3.4-.4.1-.5.7-.1.2.1.2H208.3v-5.8l.1-.2.2-.1.3.2.1.1h.1l.1-.1.2-.3.4-.6.2-.5.2-.1h.2l.5-.3zm1 1.6l-.1.1.1-.2v-.1l.2-.5h.1l-.3.7zm.2 1.5l-.2.4v-.1l.1-.3.1-.1.1-.1v-.1l.1.1v.1l-.2.1z"/><path id="CR" class="st2" d="M223.9 301.5l.1.1.1.2v.2l.4.8.3.4.6.8.3.1.5.6.2.1.1.2.5.2.1.1v.2l-.1.1h-.1l-.2-.1-.2-.1-.1.1v.2l-.1.1h-.1v1.2h.2l.3.2.1.1v.1l-.2.1-.2.1-.1.2.2.3v.5l-.4.2-.1.1v.1l.2.2.1.2.1.2v.2l-.2-.3-.3-.3-.2-.2v-.4l-.1-.2-.3-.2-.3-.2h-.2l.1.2.3.3V308.8h-.2l-.2-.1h-.3l-.2-.1-.4-.4.3-.3.1-.2v-.4l-.1-.2-.3-.3-.4-.4-.6-.3-.3-.2-.7-.2-.3-.1-.2-.2v-.2l.1-.2-.2-.3-.9-.6-.5-.2-.1-.1h-.1l.1.4.2.3.6.2.2.1.1.2-.3.3-.6-.3v.2l-.1.1-.1-.1-.4-.5-.9-.3-.2-.2-.3-.5-.1-.5.1-.3.4-.5.1-.2V301.9l-.1-.1-.3-.2-.2-.1.1-.1.4-.2V300.9h.2l.1-.2.1-.1h.1l.1.1.5.2.5.2.8.3.3-.2.3-.1h.2l.4.2h.4l.3.2.1.2v.1l.1.1h.2l.5.1h.3l.3-.1.2-.1-.5-.3z"/><path id="CU" class="st1" d="M229 265.7l.7.1h.6l.3-.1v.1l.3.2h.1l.4-.1h1l.1.1.2.2.3.1.3.1H234.2l.3.2h.1l.3-.1-.1.2.5.3.4.5.3.2.3.2.2.1.3.1h1l.2.1H238.3l1.5.8.5.4.3.2.6.3.3.1h.1v-.1l-.2-.2v-.1l.2.1.4.4.1.1.2.1.2.1-.1.1h-.2l-.3-.1.3.2v.2h.1l.2-.2.1-.2.5.4.3.2-.1.1v.1l.3-.1h.1l.1.1.1.2h.6l.5.1.5.3.5.1h.5l.2.1.1.2-.1.1-.1.1.2.2-.4.1-.1.1v.1l.1.1.2-.1H247.8l.7.1.2.1.4.2.2.2.4.4.4.2h.5l.1.1.1.2v.2l-.2.2-.1.1h-.4l-.6.1-.6.2-.3.1-.1.1-.3.1v-.2l-.1-.2-.1.1-.1.1-.2.1h-.7l-.3-.1-.3-.1-1.1-.1h-.3l-.7.1h-.7l-.3.1-.3.1h-.6l-.7.1h-.7l.5-.7 1-.6.2-.1.1-.2v-.2l-.2-.2v-.2l-.1-.1-.3-.1-.3-.1h-.4l-.7-.1h-.4l-.3-.1-.6-.5-.3-.1-.1-.1-.1-.1-.1-.7-.1-.4-.2-.3-.3-.2-.3-.1-1 .2h-.2l-.2-.1-1.6-.5-.6-.3-.3-.1-.2-.2-.2-.3-.3-.3v.2h-1.3l-.2-.1-.1-.1-.1-.1-.1-.2-.1-.2v.2l-.1.2-.2.1h-.2l-.2-.2H229.6l-.3-.2-.3-.3.3-.1.6-.1.1-.1.1-.1-.1-.2-.1-.1-.1-.1H227.2l-.1.1-.2.2-.4.2-.3.3-.1.1-.1.1-.3.2-.2.2-.3.1-.2-.1h-.2l-.1.1h-.7l-.1.1-.1.2-.1.3-.1.1h-.3l-.3.1-.6.3h-.2v-.4h-.4l-.2.1-.3.2h-.1l-.1-.1v-.1l1-.4h.5l.1-.1-.2-.5.1-.4.2-.3.4-.4.2-.1 2.2-.9h.2l1.4-.2.2-.1.7-.3.7-.1h.2zm7 1.5l-.5-.1-.2-.2-.1-.1h.1l.7.4zm2 .3l.4.1H238.7l.2.3h-.7l-.2-.1-.1-.1-.1-.1.2-.1zm1.7.9l-.2-.1h-.2l-.1-.2-.2-.1v-.1H239.3l.2.1.2.4zm.4.4l-.4-.1-.1-.1.1-.1v-.2.2l.2.1.1.2h.1zm.6.6l-.1.1-.1-.1h-.1l-.1-.1-.2-.1-.1-.2h.4l.4.1v.2l-.1.1zm-13.7 1.1l-.3.2-.6.2h-.3l-.3-.1-.2-.2-.1-.2v-.1l.2.1.2.1h.1l.1-.1-.3-.6v-.1l.2-.3.7.1.1.1.1.2.1.2.2.4.1.1z"/><path id="DO" class="st2" d="M257.3 281v-.5l.1-.2-.1-.2-.3-.2-.2-.3-.2-.3h.3l.1-.1.2-.3v-.4l-.1-.2-.1-.2.2-.2.2-.3v-.2l-.3-.3v-.1l.1-.3v-.2l-.1-.6-.1-.1h.1l.1-.2.1-.2.1-.1.2-.1h.3l.4.1h.1l.4-.1.4-.1.3.1.1.1.3.2.1.1h.5l.4.3.3.1h.2l.3-.1h.2l.2.2v.3l.2.3.2.2 1.2-.1.3.2-.1.1-.2.1h-.8v.2h.3l.3.1.3.1.3.1h.4l.4.1.6.2.7.6.2.1.1.2-.1.2-.2.4-.1.1-.2.1-.1.1-.1.2h-.2l-.2-.1-.1-.2-.3-.2h-.4l-.6-.1-.3.1h-.3l-.4-.1h-.4l-.4.1-.3.1-.1.1-.2.2-.1.1-.8.1-.2-.1-.2-.2h-.3l-.5.2-.3.1-.1.1v.4l-.1.2-.5.6-.3.5-.1.1h-.1l-.2-.3-.1-.1h-.2l-.1-.1v-.4l-.1-.2.1.1z"/><path id="GT" class="st2" d="M208.5 281.6V287.1h.9l.2.1h.1l.3.2.3.1.2-.2-.1-.1-.1-.1v-.1l1 .6-.1.1-.3.2-.5.4-.4.3-.4.3-.4.3-.5.2-.1.1-.1.4v.1l.1.2.1.3v.2l-.3.2-.1.2-.1.1h-.2l-.2.1h-.1l-.1.1v.1l.1.2v.1h-.1l-.3.1-.1.1-.1.2-.1.1h-.2l-.2.1-.6.6-.2.2v.2l-1.1-.5-.4-.1h-1.5l-.6-.2-.7-.4-.5-.2-1.2-.9.1-.1.1-.2.1-.2v-.4l.1-.2V289.7l.1-.1.1-.1-.4-.5v-.2l.3-.5.4-.6.4-.7.2-.4H204.9v-.6l.1-.3v-.1l-.2-.1-.3-.1-.2-.1v-.2l-.1-.2-.1-.2-.3-.2-.4-.2-.4-.3-.3-.4-.3-.3-.2-.1v-.1h1.2V281.4h5.1z"/><path id="HN" class="st2" d="M217.7 285.6l-.2.2v-.1l.1-.2.1-.1h.1l-.1.2zm-1.6.2l-.4.2h-.1l.2-.2.3-.1.3-.1h.2l-.5.2zm9.2 4h-.7l-.3.1-.1.2-.1.1h-.1l-.2.1-.3.2-.3.1h-.4v.2h-.2l-.1-.1h-.1v.1h-.1l-.1-.1h-.2l-.2.1h-.2l-.3-.1-.2-.2-.2-.2-.2-.1-.4.2-.1.2v.2l-.2.2h-.2l-.1.1-.1.2v.2l.1.1-.1.1-.2.1-.3.2-.3.3-.3.2-.3.1-.1.1v.2h-.2l-.6-.3-.2-.2h-.1l-.2.1-.2.3-.3.4h-.1l-.7-.1h-.4V293.4l.1.7.1.3-.1.1h-.4l-.1.1V294.9l-.1.2-.1.1h-.9v-.3l-.2-.1-.1-.3-.1-.2v-.2l-.3-.1-.3.1h-.2l-.1-.1.2-.1v-.1l-.1-.1h-.1v-.4l.1-.5v-.1l-.2-.1h-.6l-.1-.1-.1-.2-.2-.1-.4.1-.4.2-.1.1h-.1V292.3l-.2-.1H209.7l-.1-.1-.3-.2-.1-.1-.4-.3-.1-.1-.1-.1-.2-.1h-.1l-.5-.1h-.1l.1-.1.1-.2.3-.2v-.2l-.1-.3-.1-.2v-.1l.1-.4.1-.1.5-.2.4-.3.4-.3.4-.3.5-.4.3-.2.1-.1.3.1.2-.2.1-.1.3-.2h.1l.5-.1h.2l.2.2.2.1.3-.1h.3l1.1.2.4-.1h.8l.3.1.5-.3.3-.1.4-.1v-.1l-.1-.1.6.1.8.3.9-.1.3-.2h.2l.9.3.2.2h.2l.1-.1-.2-.1-.1-.1.7.1 1.4 1.1v.1l-.6-.3h-.3l-.1.1V288.4h.2l.2.1.2.1.2.2.1.2h.1l.1-.1h.2l.1.1h.1l-.1-.2-.4-.2h.1l.8.4.2.5.2.1.8.2z"/><path id="HT" class="st2" d="M254.8 275.1l.1.1v.1l-.3-.1-.3-.1h-.2l-.2-.1.1-.1h.4l.4.2zm2.4.9l.2.7v.2l-.1.3v.1l.3.3v.2l-.2.3-.2.2.1.2.1.2v.4l-.2.3-.1.1h-.3l.2.3.2.3.3.2.1.2-.1.2v.5l-.2-.2-.3-.2-.2-.1h-1.5l-.1.1h-.1l-.3.1h-.3l-.8-.2-.3-.1-.3-.1h-.8l-.3.1-.2.2v.2h-.1l-.3-.3-.3-.2-.3-.2-.6-.2-.1-.1-.1-.2.3-.5.3-.1h.2l.4.1.3.1.3.1h.5l.3.1 1.9.2.4.1h.1l.1-.1.1-.1.1-.1h.7l.1-.1v-.2l-.3-.2-.5-.4-.5-.5.2-.2-.1-.3.1-.3.1-.3-.5-.3-.5-.3-.7-.1-.2-.1-.1-.2.1-.3.2-.1.3-.1.3-.1.7-.1.7.1.6.3.6.2.7.1.3.1-.4-.2zm-2.8 2.8v.2l-.7-.2-.6-.3v-.2h.3l.3.1.4.2.3.2z"/><path id="JM" class="st2" d="M241.9 279.7l.3.1.4.1H242.9l.3.3.3.1 1 .3.3.5.1.2-.3.1h-.6l-.3-.1-.1-.1h-.3l.1-.1H243.1l-.1.2-.1.2h-.3l-.1-.1-.1.1-.1.1-.1.4-.2-.2-.2-.2-.3-.1h-.6l-.3-.1-.2-.3-.1-.1-.2-.1-.2-.4-.1-.1-.6-.1-.1-.2v-.2l.2-.2.1-.1h.3l.3-.1.1-.1.1-.1 1.2.2h.3l.2.2z"/><path id="MX" class="st2" d="M186 257.1l-.1.6-.2.5-.6 1.1-.1.7-.5 1.9-.1 1.3V264l-.1 1.3.1 1.1v.2l-.2.3-.1.5V267.7l.2.7.1.5.5.9.3.3.3.3.1.2-.1.4-.1.2-.1.3-.1-.3v-.3l.1-.2v-.1l-.2-.1-.4-.4-.5-.8.3 1.3.1.2.1.1.1.1v.2l.4.9.5.9v.2l.2.3 1.2 1.3.7.9.2.9.1.3.1.4.5.4.1.3.2.2.2.5.4.3h-.1l-.3-.1v.1l.3.2.5.2h.1l-.2-.1-.2-.1h.1l.4.2 1.1.1.5.4.6.2.3.5.4.5h.4l.6-.1.9-.3.3-.2.6-.2h.9l.3.1.7-.1.3-.2.1-.1.1-.1.6-.2h.7l.3-.1h.4l.3.2v.1l-.2.1.1.1.3.2.6.1h.2l.3-.3.5-.2v-.3l-.1-.2h-.1v-.1l.1-.2v-.1l-.3.2v-.1l.1-.1.8-.4.2-.2.3-.2.6-.6.1-1.1.1-.2.4-.3v-1.9l.1-.5.1-.1.2-.8.5-.3.8-.4.2-.1 2.6-.4.4-.1.5-.3.3-.1h1.3l.7.2h.2l.6.2.6.1h.1l.1-.1.1-.1-.1-.1h-.1l-.1.1h-.1l-.3-.1.1-.1h.5l.2-.1.3.1.3.4.2.1v.7l.1.1-.1.4-.1.4-.2.3-.4.5-.5.4-.6.8-.1.4v.3l.1.3v.1l-.1.1h-.1l-.2.1-.3.4v.1l.1.1.2-.1h.4v.2l-.1.2-.1.1h-.2l-.2.1-.1.1v.3h.1l.2-.2h.1v.1l-.3.7-.2.7-.2.4-.1.6-.1.3-.1.3h-.1l-.2-.5-.2-.1v-.1l.1-.6-.1-.3h-.1l-.1.2-.2.2v.2l-.2.4-.1.1h-.4l-.2.1-.2.5-.4.6-.2.3-.1.1h-.1l-.1-.1-.3-.2-.2.1-.1.2v.3H203.2V284H202v.1l.2.1.3.3.3.4.4.3.4.2.3.2.1.2.1.2v.2l.2.1.3.1.2.1v.1l-.1.3v.6H201.1l-.2.4-.4.7-.4.6-.3.5v.2l.4.5-.1.1-.1.1V290.9l-.1.2v.4l-.1.2-.1.2-.1.1-.1-.1-.7-.8-.8-.9-.3-.3-.3-.2-.4-.4-1.1-.9-.5-.4-.5-.5-.5-.3-.5-.2-.2-.1-.2-.1h-.1v.2l.2.1.2.1h.1l.2.1.5.2.1.1-1.3-.5h-.5l-.1-.1.3-.3-.1-.1h-.1l-.3.2h-.1v-.2l-.2-.2h-.1l-.1.1-.1-.5v.1l.5.1.2.1v.1h-.4l-.5.1-.9.6-.9.3-1.2.6h-.5l-.3.1-.8-.2-1.1-.5-1.6-.2-1.1-.7-1.1-.3-.7-.7h-.4l-.3-.1-1-.2-1-.2-.9-.6-.6-.2-.5-.2-1.2-.4-.4-.2-.4-.3-.7-.4-.3-.3-.3-.1-.5-.6-.2-.2-.2-.1h-.8l-.9-.2-.4-.1-.9-.4-1.2-.4-.4-.5-.3-.4-.6-.6-.4-.2-.6-.3-.4-.2-.6-.2-.9-.5-.3-.4-.2-.4-.5-.4-.5-.8-.1-.3-.1-.5-.1-.3-.1-.2.1-.1.3-.2h.5l.3-.2V273.3l-.2-.3-.3-.1h-.2l-.1-.1.2-.1.2-.2.3-.3.2-.3v-.8l.1-.3-.6-.4-.1-.2-.2-.4-.3-.5v-1l-.4-.9-.4-.5-.2-.2-.6-.7-.5-.4-.5-.8-.5-.5-.6-.8-.4-.4-1.9-1.4h.1l.6.3h.1v-.2l-.1-.2h-.4l-.1-.1h-.3l-.4-.2-.2-.2v-.3l-.5-.6-.2-.3h.1l.1.1H155.7l.1-.1v-.1l-.1-.1-.8-.3-.3-.2-.6-.4-.2-.1-.1-.4h-.2l-.1.1-.4.1-.1-.1v-.1l.3-.1.2-.3v-.1l-.1.1-.2.1-.2.1-.3.1h-.2l-.1-.1-.2-.3-.1-.9.2-.3.2-.3.2-.2.1.1h.1l-.1-.2-.2-.2-.1-.2v-.1l-.1-.3-.6-.6h-.7l-.2-.2-.2-.4-.1-.3v-.2l-.1-.2-.9-.3-.3-.2-.3-.3-.1-.2-.1-.2-.1-.3-.1-.3.1-.4.1-.2-.6-.2h-.3l-.2.1-.2-.1-.4-.1-.5-.5-.5-.9-.6-.3-.2-.3-.2-.3-.2-.3v-.1l-.1-.1-.3-.2-.3-.4-.1-.3-.1-.5-.2-.2-.2-.1V245.8l-.1-.2-.4-.6-.2-.5-.1-.2-.1-.2-.1-.5-.2-.6-.4-.7-.3-.5-.1-.5.1-.5-.1-.3v-.2l.1.1.1-.1v-.3l-.1-.1-.3-.1-.1-.1-.7-.1-.4-.2v-.4l-.2-.2-.2-.1-.5-.2-.1.1-.1.2h-.4l-.3-.2-.8-.6-.2-.1h-.2l-.1-.1-.5-.3.1.2.2.2.1.5-.2.4-.1 1.2.1.2.2.4.2.6.1.5.1.4v.9l.1.3.2.4.4.4.1.2.5.3.3.4.7.5.2.2.6.8v.3l.1.3.3-.1.1.2v.2h.2l.1.1.3.9.2.1.2.1.2.1v.4l.2.3v.4l.2.3v.3l.1.2.5.5.6.4.1.6.3.5.3.1.3.2V253.2l.4.4.1.5.3.3h.1l.1-.1-.2-.3-.1-.2v-.3h.1l.6.5.1.4.2.2v.3l.1.2v.3l.2.4v.6l.1.4.4.7.3.1.1.3.3.9.4.5.2.4v.2l-.1.4v.2l.2.8.3.4.4.1.1.1v.1l.1.1.1-.1.1-.2-.1-.2v-.1l.1-.1h.1l.7.5.1.2.2.2.2.3.1.2.2.2.1.4.5.2.2.4v.2l-.1.6-.1.2-.9 1-.3.3-.3.2-.3.1h-.2l-.2-.3-.3-1-.2-.2-.1-.3-.2-.3-.8-.4-.4-.4-.4-.3-.4-.4-1.1-.7-.4-.3-.3-.3H144.8l-.1-.1v-.2l-.1-.1-.6-.5-.1-.3v-.3l.1-.9.1-.5v-.3h-.1l-.1-.1v-.4l-.2-.5-.6-.9-.4-.2-.4-.1-1-.8-.3-.4-.1-.2v-.5l-.1.3-.2.2h-.4l-.5.2-.3-.2-.2-.2-.2-.3-.3-.1h-.2l-.3-.4-.3-.1h-.4l-.3-.2-.1-.2-.1-.3-.1-.2-.5-.3-.4-.4-.4-.2-.1-.2v-.1h.6l.7.1h.3l.2-.1.2-.1V251.9l.2.2.3.1h.2l-.2-.2-.1-.3.1-.1v-.2h-.3v-.1l.2-.2.3-.7.1-.6-.3-.6-.5-.4-1-1.2-.6-.6-.2-.2-.2-.1-.5-.1-.4-.3-.7-.5-.3-.2-.2-.6-.2-.1.1-.4-.1-.7-.1-.2-.4-.2-.1-.5v-.5l-.1-.3-.7-.5v-.5l-.1-.2-.4-.5-.4-.5-.1-.2v-.4l-.1-.1h.2l.1-.1v-.3l-.6-.5-.2-.7-.3-.4-.1-.1-.2-.6.8-.1.8-.1.8-.1.8-.1.8-.1.8-.1.8-.1.8-.1h.3l-.2.5-.1.2 1.3.5 1.3.5 1.3.5 1.3.5 1.3.5 1.3.5 1.3.5 1.3.5h8v-1.6h4.8l.2.3.3.4.3.3.3.2.6.5.8.8.7.6.5.3.3.2.2.2.2.4.4 1v.5l.2.4.3.6.3.3.2.1.3.2.3.3.3.2.4.1.5.3.7.4.5.2h.3l.2-.1.2-.3.2-.2.2-.1.1-.1v-.2l.1-.4.3-.6.3-.3.4-.1.3-.1.1-.2h.2l.3.1.5.1h1.1l.1-.1h.1v.1H173.3l.2.1.2.3.7.6.1.2.3.3.5.4.3.4.1.3.2.5.4.7.2.4V249.6l.1.3.2.3.3.2.3.4.3.6.4.4.4.3.3.3.1.3v.2l-.1.2v.2l.1.2v.7l.4.5.2.4.2.6.2.4.3.1.4.1.3.1.2.2.3.1h.3l.3.1.3.2.5.1.8.1.6.2.4.3.2.1v-.1l.2-.1 1-.5zm-49.2-18.3l-.3-.1v-.1l.2.1.1.1zm4.3 8.6l-.3-.1-.6-.7-.2-.3V245.7h.2l.3.2.1.2v.3l.5.1.1.5-.1.4zm2.7.1l-.2.8h-.2l-.4-.2v-.1l.2-.9.1-.1.4-.1.1.1v.5zm-17 .2l-.1.1-.3-.7v-.2l.1-.1h.2v.2l.1.1.1.1-.1.5zm8.7 2.8v.1l-.5-.2.3-.4v-.4l.1-.1.1.1.1.5-.1.4zm11.4 6.4v.1-.1l-.3.5h-.1l.1-.6.1-.1h.1l.1.2zm-2.7 4.6l-.3-.3v-.2l-.1-.1-.2-.1.2-.5.2-1 .1.2-.2 1v.1l.1.1.1.2v.2l.2.2-.1.2zm4.2-1.4l.1.3-.1-.1-.2-.2-.1-.2v-.1l.3.1v.2zm-3.2 1.8v.1l-.8-.6.2-.1h.2l.4.6zm5.3.8l-.2-.2-.1-.4.3.6zm9.3 7.7l-.1.2-.2-.1-.1-.2v-.3h.1l.2.1v.1l.1.2zm55.5 1.1l.1.1-.1-.1-.1-.1.1.1zm-.6 2.8l-.1.1-.1-.3.1-.3.1-.2h.3l.2-.1v.1l-.2.2-.3.5zm-67.3 4.6l-.2.1-.2-.2.1-.1.1-.1.1.2.1.1zm54 .2l-.3.1-.1-.1.6-.3h.1l-.3.1v.2z"/><path id="NI" class="st2" d="M225.3 289.8l-.1.1-.1.1-.2.3h-.1v-.3h-.1l-.1.1-.1.1.1.2h.2l.3 1.2-.1.2-.2.3-.2.3-.2.2-.2.7-.2 1.2.1 1.1-.1 1 .1.2v.3l-.2.1h-.1l-.1-.2v-.2l.1-.2v-.4l-.1.3-.2.1h-.1l-.1.1.1.3.1.2v.1l-.1.2v.6-.1h-.1V298.3l-.1.1v.1l.1.1h.2l.1.3v.2l-.3.2-.1.2-.1.2-.1.2v.2l.1.5.2.3.2.2h.2v.2l-.2.1-.3.1h-.3l-.5-.1h-.2l-.1-.1v-.1l-.1-.2-.3-.2h-.4l-.4-.2h-.2l-.3.1-.3.2-.8-.3-.5-.2-.5-.2-.1-.1h-.1l-.1.1-.1.2h-.2v-.1l-.2-.3-.4-.4-1.4-1.2-.5-.7-.3-.5-.3-.3-.8-.5.2.6-.8-.7-.6-.4v-.2l.2-.2h.1l.1.2.2.2h.1l.1-.1v-.1h.9l.1-.1.1-.2V295.1l.1-.1h.4l.1-.1-.1-.3-.1-.7V293.6h.4l.7.1h.1l.3-.4.2-.3.2-.1h.1l.2.2.6.3h.2v-.2l.1-.1.3-.1.3-.2.3-.3.3-.2.2-.1.1-.1-.1-.1v-.2l.1-.2.1-.1h.2l.1-.1v-.2l.1-.2.3-.2.2.1.2.2.2.2.3.1h.2l.2-.1h.2l.1.1h.1v-.1h.1l.1.1h.2v-.2h.4l.3-.1.3-.2.2-.1h.1l.1-.1.1-.2.3-.1 1.1-.6z"/><path id="PA" class="st2" d="M241.5 307.9l-.2.3-.1.2.2.2.1.2.1.2.2.2.2.4v.2l-.1.1-.2.1-.2.2V310.5l-.5.4-.1.1-.1-.1-.1-.2-.1-.2-.1-.1v.1l.1.4-.1.1-.2.1-.2.6-.1-.1-.7-.8-.6-1-.1-.5H238.9l.1-.1.1-.1-.1-.3.3-.2.1-.2h.1l.2.3.3.2.3.2.2.1-.3-.2-.4-.3-.1-.2-.1-.3-.2.1-.1.1-.1.1-.1-.1v-.1h-.3l-.1-.1h-.1v.2l.1.1v.1h-.1l-.1-.1-.1-.1-.1-.5-.3-.2-.1-.1h-.1l-.2-.2-.2-.1-.3-.3-.4-.2-.4-.1h-.5l-.2.1-.1.1-.1.1-.3.1-.1.2-.1.2-.2.2.2.1-1.1.7-.2.1-.5.1-.1.3-.1.1v.4l.1.1.1.1.3.4.5.5.1.2.1.3-.2.1-.1.1h-.5l-.2.1-.1.2-.2.1-.6.1h-.5l-.2-.2v-.5l-.3-.8-.1-.5-.1.1-.2.1-.1.1v.4l-.1.1h-.1l-.3-.1-.4-.1-.5-.8-.1-.2-.1-.2-.4-.1-.3-.1h-.3l-.2.1-.2-.1v-.2l-.4.1h-.5l-.4-.1-.3.1-.2.2v.4l-.1.1v-.2l-.1-.2-.1-.2-.2-.2v-.1l.1-.1.4-.2v-.5l-.2-.3.1-.2.2-.1.2-.1v-.1l-.1-.1-.3-.2h-.2V305.6h.1l.1-.1v-.2l.1-.1.2.1.2.1h.1l.1-.1v-.2l.2.2.4.3v.2l.1.4.2.1.2-.1v.2l-.1.1v.3l.3.1.2.1.5-.1H228.8l-.1-.2-.2-.2v-.1l.1.1.1.1.3.2.5.5.5.1h.4l.4-.1.6-.2.5-.4.4-.2 1.2-.4.4-.4h.4l.4-.3.2-.2.2-.1.6.1.4.1h.3l.3.1.1.2.1.1h.7l.5.1 1.2.5.7.5.4.5 1.1.6zm-13.6-2v.1l-.2-.2h.1l.1.1zm9.4 3.1l-.1.1-.1-.3V308.5l.1-.1h.2v.4l-.1.2zm-.5 0l-.1.1v-.1l.1-.1v.1zm-7.1 2.6h-.2l-.3-.1-.2-.2v-.2l.1-.2.2-.1h.1l.2.3-.1.1v.2l.2.1v.1z"/><path id="PR" class="st2" d="M273.1 279.8l.2.1-.1-.1h.1l.5.1.3.1.4.1v.4l-.3.2-.2.2-.1.2-.4.2-.5.1h-.7l-.3-.1h-.7l-.2.1h-.9l-.2-.1.1-.5v-.2l-.1-.2-.1-.1-.1-.1.1-.1.1-.1v-.2h.2l.7.1h1.8l.4-.1zm2 1H274.8v-.1l.3-.1h.5l-.5.2zm-6.9.1l-.2-.1h.2v.1z"/><path id="SV" class="st2" d="M207.9 291.5l.5.2h.1l.2.1.1.1.1.1.4.3.1.1.3.2.1.1H210.1l.2.1V293.1h.1l.1-.1.4-.2.4-.1.2.1.1.2.1.1h.6l.2.1v.1l-.1.5v.4h.1l.1.1v.1l-.2.1h-.1v.3l-.2.2-.1.1h-.7l-.7-.1-.5-.2h-.3l.1.1h.2l.3.1h-.1l-1-.3-1.2-.6-.7-.1-.8-.1-.5-.4-.4-.2v-.2l.2-.2.3-.3.2-.1h.2l.1-.1.1-.2.1-.1.3-.1h.1v-.1l-.1-.2v-.1l.1-.1h.1l.2-.1.3.1z"/><path class="st2" d="M196.6 176.4l.4-.1h.2l.3.1h.2l.4.2.3.1.5.3.2.1.1.3.1.4h.2l.2-.2.3-.1.5.2.4.4.6.4.3.2h.4l.5-.2.5-.3.3-.1h.2l.2.3.1.1h.4l.8.1.6-.1.2.1.1.3.3.1.3-.1.6.1h-.2l-.1.1-.1.1-.3.2-.5.2-.5.3-1.2.4-.7.4-.3.3-1.2 1.2-.7.7-1.2 1-.1.1v.1l.1.1.2.1.2.1.3-.1.9-.2.4-.2.4-.3h.2v.1l.5-.4H203.7l.2.1v.2l-.2.3v.4l-.1.1-.1.3.4-.1.1-.1v-.1l.4.2.2.1.2.1.3-.1.6-.2.4-.2.4-.3.5-.2.5-.1.4-.1.3-.2.3-.2.2-.1.2-.1.2-.1.1-.2.2-.2.3-.2.2-.1.1.1-.1.1.1.1.2.1.1.1V183l.1.1V183.9h.1l.1-.1v-.2l.5-.3h.1l.2.1.7.1.2.1.3.1.1.1.4.6.2.2.1.1v.1l.1.2v.1h.8l.1-.1h.2l.2.2.1.1.2-.1h.2l.1.1h.1l.3-.2.4-.3.5-.3.3-.1.5-.1h.4l.5.1.5-.1.4-.2.4-.1h.5l-.1.2v.7l-.1.1v.1l.4.1.2.1h.2l.2-.1h.2l.1.2h.2l.1-.1.2-.1.1-.1.1.1.1.1.1.2.1.2v.3h.1v.2l-.1.1-.1.1h.1l.3.1h.2V186.8l.1.1.3.2v.2h-.2l-1-.1h-.6v-.1l-.1-.1H221l-.1.3v.4h-.2l-.5-.5-.3-.2-.5-.2-.3-.1h-.3l-.2.2-.2.2-.2.1-.4.1h-.2v.1h-.2l-.2-.1h-.5l-.1.1-.2.3-.1.2-.1.1-.3.2h-.1l-.2.3v.2h-.1l-.1-.1v-.2l.1-.2.1-.1h.1l.1-.1V187.7h-.2l-.1.1h-.1l-.2-.1-.1.2-.1.2-.1.2-.2.1-.1-.1-.1-.3v-.2l.1-.2v-.1l-.1.1-.1.2-.1.5-.1.1-.1.1-.2.3-.2.4-.3.5-.3.5-.2.2v.1h-.1v.5l-.2.2-.4.2-.1.1v.1l-.2.5-.2.3-.1.3.1.2h.2l.1-.1.1-.1.2-.2.1-.1.2-.4.2-.2h.2l.2-.1h.2l.1.2.1.1v.1l-.1.2-.1.2-.1.2-.1.4-.2.5v.4l.1.2-.1.2-.2.2-.1.3-.1.3-.1.3V195.8l.1.3v.1l-.2.4-.1.3v.2l-.1.1-.1.4-.1.2v.7l.1.1v.1l-.1.1v.1l.1.1.1.1v.4l.1.2v2.2l.1.3.1.1.1.1.1.3.1.6.2.3.1.2.1.1h.1l.1.1.1.1h.6l.2-.1.8-.5.3-.2.2-.2.1-.3.2-.4.3-.5.1-.3.2-.4.1-.5.1-.4v-1l-.1-.5-.1-.5-.1-.2v-.1l-.3-.6-.3-.9v-.1l.3-.5v-.5l-.1-.2-.1-.3v-.1l.3-.4.1-.2.2-.4.1-.4.1-.5v-.3l-.1-.1v-.1l.1-.1.3-.1.1-.2v-.3l.1-.2h.1l.1-.1.1-.1h.2l.2-.2.3-.4.2-.3h.2l-.1.1v.5l-.1.2v.1l-.1.3v.2l.1.1h.1l.1-.2v-.4l.1-.1h.1v.1l-.1.2-.1.4v.2l.2-.3.1-.4.2-.4v-.1l-.1-.5v-.2l.1-.1.1-.2.3-.1.3-.1h.3l.1-.1.1-.1-.2-.1-.1-.1-.1-.1v-.4l.1-.2.2-.2.1-.2-.1-.1h.5l.1-.1.2.1.4.2.3.2h.3l.3.1.1.1.1.2.1.2.1.1h.5l.1.2.8.3.3.1.2.2V190.3l.2.2.1.1V190.9l.1.1h-.1l-.2-.1h-.1l-.1.2v.2l.3.4.1.3V192.9l-.1.6v.1l-.1.2-.2.3-.1-.1h-.1l-.1.3-.1.4-.1.2h-.1l-.1.1-.1.1h-.3l-.1.1-.1.4v.1l-.1.2v.2l.1.2.2.1.3.1.2.1.1-.1.1-.2.2-.1.1-.1.1-.1.3-.4v-.1l-.1-.1h.1l.1-.1.1-.1.2-.1.4-.1.2-.1.1-.1.2.1.2.2.2.2.2.4.2.8.2 1.4.2.7v.2l.1.1-.2 1.1-.2.4-.3.2-.2.3-.4.4-.4.2-.2.1v.1l-.1.2-.1.3-.1.2.1.2-.1.1-.2.1v.2h-.1l-.2.2-.2.4v.2h.3l.1.1.2.1.5.3.1.1.2.1h.1l.1-.1.1-.1.1.1.3.1-.8.2-.1.1.2.1.2-.1H226.7l.1-.1.3.3h.2l.2-.1.3-.1.4-.1.5-.1H229.3l.3-.2.5-.4.6-.4 1-.4 1.5-.6.3-.1.2-.2h.1l.2-.1 1-.6.5-.3.3-.3.3-.2.3-.1.2-.3.2-.2.2-.2.2-.1.1-.2V199.4l-.1-.2v-.2l.1-.2v-.1h-.1l-.4-.1v-.7l1-.3.7-.1.8-.1.9.2.4.1.2.2h.6l.4-.1.6.1h.3l.1-.1h.1l.4-.2h.2l.1-.2.2-.2.3-.2.2-.1h.3l.1-.1h.1l.1-.1-.1-.1V196l-.1-.1v-.1l-.1-.1v-.1l.1-.1v.1h.1l.2-.2v-.1l.1-.1.1-.1H244.9l.1-.2-.1-.1h-.1l-.2.1h-.1l-.1-.2.3-.3 1.2-.8.1-.2v-.2l1.1-1.1.6-.5.5-.3.4-.1H258l.3-.8.2-.4.4.1h.2l.2-.1.1-.2.1.1.1.1.1.1h.1l.1-.2v-.2l.1-.1h.2l.1-.1v-.5l.3-.4.3-.2.2-.2v-.2l.2-.3.1-.1V187l.1-.4v-.4l.2-.4.3-.4.1-.5.1-.6.4-.5.4-.7.3-.3.4-.7.3-.4.2-.2.2-.3.2.1.3.1v.6l.1.2.2.1H265.5l.5-.2.5-.1.3-.2v-.1h.4l.4.3.4.4.4.4v4.2l.1.4v.5l-.1.1V188.3l.1.1v.1h.2l.1.1.2.1H269.3l.1.1.1.1v.2h-.1l-.1.1v.2l.1.1.1.2-.1.1v.2l-.1.1.1.1.1.2.1.1.2.1v-.1l.1-.1h.2l.1.1h.1v.1l.1.2v.4l-.1.2.1.2.2.1.1.1v.1l-.6.6-.5-.1-.2.1-.3.1-.1.3h-.4l-.2-.1-.1.1-.2.4h-.2v.2h-.1l-.1.1-.1-.2-.1-.2-.1-.1H267.1l-.1.2-.2.1-.1-.1-.1-.2-.1.3-.1.2v.3l-.1.2h-.1l-.1-.2-.3-.1h-.2v-.2l.2-.2v-.1l-.1.1-.1-.1.1-.2v-.2l-.1.1-.1.2-.4.2.1.3-.3.7-.1.3-.1.3-.3.2-.3-.1-.3.2-.1.2h-.1l-.1-.2v-.1l-.1.3-.1.1-.1-.3v-.2l-.1.2-.1.4-.1-.1v-.1h-.1v.5l-.1-.1-.1-.1-.2.1h-.1v-.2h-.2l-.4.3-.2.4h.1l.1.2-.5.5-.4.5-.4.8-.1.1-.1.2-.2.5-.1.4.1.2v.2l.2.2H260.5v.2h-.1l-.3.2-.2.1-.1.2-.2.2-.3.4.1.1.5.2.3.1.3.7-.1.1v.1l.3.2.1.5.2.2.4.1.5-.2.3-.2v-.2l-.2-.4-.1-.2-.2-.1v.1l-.1-.1v-.1h.2l.1.1.4.4.1.6v.5l-.1-.1-.2.1-1 .2-.2.1-.5.2V203.8h-.1l-.8.6-.3.1-.2.2-.1-.1v-.5l.1-.4h-.1l-.2.3-.1-.2-.1-.2h-.1l-.1-.1.1.4-.2.2v.7l-.2.3-.7.2-.5-.1-.4.1-.5.1-.3-.1-.3.2h-1.1l-.2-.1-.3.3-.4.1-1.1.6-.3.2-.3.3-.2.2-.1.1-.1.1-.2.1.1-.3.2-.3.1-.5-.1-.4-.1-.2-.1-.1.1.4.1.5-.1.3-.3.6-.1.1-.1.1-.1.1-.1.1-.1.1-.1.3v.3l.6.1.1-.1.1.2v.5l-.1.3-.1.4v.5l-.1.5v-.7l-.1.1v.1l-.2.8-.2.4-.2.3-.2-.1v.2l-.1.1v.3l-.1.2-.1-.1-.2.1-.1.1v.2l-.1.1-.4.8-.4.2h-.1l.1-.4.1-.3-.2-.2-.2-.1h-.3l-.3-.2-.3-.2-.5-.6v-.4l.2-.4.1-.3.2-.1.6-.2.1-.2.1-.2-.3.3-.4.2-.2.1-.2.2-.1.2-.3.3.1.2v.4l.1.2.3.5.1.7.2.4.4.5.2.2.1.2-.2.3-.1.2.2-.1.1.1.1.3v.4l-.1.1v-.2l-.1-.1v.1l-.1.1v.3l-.1.2h-.1l-.2.4-.2.2-.7 1.6v.2l-.1.1-.2.1-.2.1-.1.2-.1.4-.2.5-.2-.2v-.1l.1-.5.2-.8.3-.5.2-.2.1-.5h-.5l.1-.3.1-.1-.2-.2-.1-.1h-.1l.1-.2.1-.2-.1-.2.1-.1h-.1l-.1.2h-.1l-.1-.1-.1.1-.1.1-.1-.2-.3-.1-.2-.3V215.2h.8l-.1-.1h-.1l-.3-.3-.1-.1-.2-.1-.1.2h-.1l.1-.4h.2l.2-.1v-.2l-.2-.1-.2.1V213.8h.4l.1-.3v-.2l-.2.3-.1-.5.3-.4.2-.2h.3l.2-.1h-.1l-.2-.1.1-.2h.1l.1-.2-.2.1v-.3h-.1l-.2.1V212.1l-.1.1-.1.1-.2.1v-.1l-.1-.1v.3l-.1.1-.1-.3-.1.1v.2l-.1.1v.2l-.1.1-.4-.2v.1l.2.3.2.1v.2l-.1.2-.2-.2-.1.1.1.2.1.2-.1.2v.5l.1.8.1.2.1.2.1.2h-.1l-.2-.2-.2-.1-.2-.4-.1-.1v-.1.2l.1.3.6.7.2.3.1.2-.1.2-.1-.2-.2-.2-.4-.1-.5-.2-.2-.4v.2l-.1.1-.2-.2-.1-.1v-.2h-.2l-.3.2-.2-.1v-.3l.1-.2.2-.4.2-.2.1-.2v-.4.4l-.2.2-.2.2-.3.2v.3l-.1.5.1.1.1.1.4-.2.1.1.4.6.8.2.2.1.3.3.3.2.2.2.1.2-.1.2-.1.2-.1.2h-.4l-.8-.9-.1-.1-.4-.5-.3-.2h-.1l.5.4.2.4.4.4.2.2.2.3.2.2.5.2-.1.1.2.1.1.3-.1.2-.3-.1-.1.2.1.1-.2.1-.2-.1-.6-.7v.2l.4.5.3.2.3.1.2.3v.1l.1.2-.2.1-.1.1-.2-.1-.1-.2-.3-.2-.1-.3h-.2l-.8-.3-.7-.1v.1h.1l.6.1.2.2.4.1.3.1.1.4.4.3v.2l.3.1.4-.3.3.1.4.1.1.2v.3l.2.4.4 1.5.5 1.2.1.2-.1-.2-.5-.8-.2-.6-.2-1-.1-.2-.1-.1V222.4l-.1.3v.2l.2.1.2.4.1.6-.2-.2-.2-.2-.3-.1-.2-.1v.5l-.2-.1-.2-.1.1.3-.2-.1h-.2l-.1.2-.2.2h-.2l-.3-.2-.1-.3-.1-.2v.3l.1.3-.1.3.4.1.3-.1H244.6l.2-.1.4.1V225.4h.1l.1-.1v-.6l.4-.2h.1l.1.2.1.2v.3l-.1.4-.5.4-.4.5-.2.1-.3-.1-.3-.1H244l-.1-.1v-.3h-.2l-.1.2-.3.1-.4-.1-.4-.2.2.2 1 .5h.1l.2.2-.2.2-.1.2v.1l-.1.1-.4.3h-.2l-.6-.5.3.4.2.2.4.1.8-.2.3.2-.2.3-.3.2-.2.1h-.3l-.1.2h-1.1l-.3.3H241.6l-.1-.3-.1-.1v.5l.1.1v.1l-.4.2-.3.4-.2.1-.1.1-.3.5-.1.3-.1.4v-.5l-.1-.3v.6l-.2.3h-1.1l-.4.1-.8.5-.2.2-.6.9-.2.5-.1-.2V233.2l-.1.3.1.4-.1.2-.4.3h-.2l-.3.1-.1.3-.3.3-.2.1-.3-.1.1.3-.2.2-.2.2-.3.1H233.5l-.1.1-.3.2-.2-.1h-.5l.3.2.1.1v.3l-.1.1-.2.1-.1-.2v-.2l-.1.1v.1h-.1l-.3-.4v.3l.1.2.1.2h.1v.1l-.2.3h-.1l-.1.1-.1.1v.1l-.1.3-.4.2h-.2l.1.2h.1v.1l-.1.1-.2.1-.1.1v.1l.1.1v.1l-.2.1-.1.1.1.1.1-.1.1.1-.2.2-.1.1-.1.2h-.2v.1l.1.1.2.1-.3.3h-.2V240.8l-.1.3v.3l-.1.1v.5l.2.3.2 1.2.1.4.3 1.1.4 1.1.5 1.3 1 1.6.1.2-.1.2-.1.2v.3l.1.3.1.3.2.5-.1-.1-.3-.7-.1-.5.1-.6h-.1l-.1.2v.2l-.1.1-.1-.3v-.2l.1-.2v-.1l-.2-.1V248.4l-.1-.1h-.1l.1.4.1.3.1.5.1.4.1.3 1.2 3 .3.4.1.3.1.6.1.7-.2 1.4-.1.9v-.1h-.1l-.1.4-.3.4-.1.6-.1.3-.3.3h-.2l-.5.2-.4-.1-.4.2h-.2l-.2-.3v-.1l.1-.2h.1l.4.3v-.1l-.1-.2-.2-.1h-.2l-.3-.7-.3-.5-.1-.3-.5-.2-.4-.3-.3-.5-.2-.9-.2-.1.1-.4.2-.2h-.1l-.1.1-.2.3h-.2l-.1-.5.1-.6.1-.2h-.2l-.3.1.1.2-.1.1-.1-.1h-.2l-.1-.2-.3-.4-.5-1.1-.1-.1-.2-.2h.1l.2-.1.3-.5.2-.3.1-.2-.1-.2-.1.1h-.1l-.2-.2-.1-.1h-.1l.1.2.1.1-.1.3v.1l-.1.1H226.4l-.1-.2-.1-.2.3-1.2.2-.8v-1.3l-.3-.5-1.5-1.3-1.1-1.5-1-.6-.7.1-.2.1v.4h-.2l-.3.1-.7.4h-.3l-.2.1h-.1l-.5.1-.4.1-.1-.1-.1-.2v-.3l.1.2.1.2.1-.1v-.1l-.2-.3-.4-.3-.5-.5.2.1v-.1l-.1-.2v-.1l.1-.2h-.2l-.1.2v.1l-.1.1h-.1l-.2-.2-.9-.3-.7-.2.6-.1h.3l-.1-.1v-.1l-.3-.1-.3.1-.2-.1-.2.1-.3.2h-.2l-.8.1-.6.1.1-.1h.1l.4-.2v-.2l-.1-.2h-.1l-.1.2-.1-.1h-.2v.3l-.2.2-.1.1-.5.2-.1-.1.2-.1v-.1h-.2l-.3.4-1.1.1.1-.1h.2l.3-.1-.1-.2-.1-.2h-.1l-.1-.1V242.3l-.2-.2h-.1l-.1.4-.1.5-.1.2h-.3l-.3-.1-.9.1-.4-.2h-.2l-.4.1-.5.2-.1-.1h-.2l-.3.4-.4.2-1.1-.3-.2-.3-.2-.1h-.3l-.3.3-.3.5.4.2.3.1.5-.1.3-.2H206.7l.1-.1.2.1v.1l-.1.1-.2.1-.1.1.2.3h.5v-.3l.2-.1h.3l-.1.1.1.1.1.2v.3l-.3.1-.2.1-.1.1v.1l-.1.1h-.2v.1l-.1.1.1.2.3.2.2.2.7.3h.2l.2.3h.1l.2.1-.1.2-.2.1-.1.2v.1l-.1-.1-.2-.1-.2.2-.1.1v-.3l-.1-.1-.1-.3-.3-.2h-.1l-.1-.1-.2-.1H206.7v-.2l-.1-.1-.2-.1-.7-.3-.1.1.1.1.1.1.2.1v.3l-.1.1v.2l-.1.2-.1.1-.2.1-.1-.1-.1-.4-.3-.1h-.3l-.2.1-.3.4h-.2l-.7-.2-.8-.3v-.1h.4v-.1l-.3-.3v-.4h-.1l-.1.2-.5-.1-.2-.2-.3-.4-.4-.1-.2-.2-.4.1-.1.1-.2.2.1.1.1.2-.5.2-1.2-.2-.3-.1-.5-.2-.6-.3h-.3l-.3.1h-1.1l-.1.1-.1-.1-.1-.2h.1l.1-.1.1-.2v-.2h-.2l-.3.5.2.3v.1l-.6.1-1.3.6-.6.3.1-.1.6-.4-.2-.1-.4.1h-.1l.1-.4v-.3h-.3l-.1.3h-.1l-.2-.1h-.1l.1.5.2.3.1.3-.4.3-.3.3-.1.3-.3.4-.3.2-.8.5-.2.1-.3.2-.5.2-.4.2-.2.1.3-.3.3-.2h-.3l-.4-.1h-.3v.1l-.2.1-.2-.1-.1-.1-.1-.1v-.1l-.1.1.3.7h.1l.2.1-.2.1-.2.2h-.3l-.3-.2-.1.3v.3l-.1.1-.1.1-.1-.1-.1-.1v.1l-.2.1h-.2l-.2.1v.1l.1.1.3-.1-.1.4-.3.3-.2.1-.4-.1-.1.1h-.1l.4.6-.2.8-.2.2-.1.1h-.1l-.5-.3-.2-.2.2.6.6.1v.4l-.1.2-.1.3.1.2.1.4.1.2v.7l.1.3.6 1h.1l.1.1-.1.2-.3.1-.2.1v.1h-.1l-.2-.1-.4-.3-.6-.1-.8-.1-.5-.2-.3-.2-.3-.1-.3-.1-.3-.1-.2-.2-.3-.1-.4-.1-.3-.1-.1-.4-.2-.6-.2-.4-.4-.4v-.7l-.2-.1v-.2l.1-.2v-.2l-.1-.3-.2-.2-.5-.3-.4-.5-.3-.5-.3-.4-.3-.2-.2-.3-.1-.3V249.1l-.2-.3-.4-.7-.2-.5-.1-.3-.3-.3-.5-.5-.2-.2-.1-.2-.7-.6-.2-.3-.2-.1h-.2l-.1-.1H172.5l-.5-.1-.3-.1h-.2l-.2.2-.2.1h-.4l-.3.4-.3.6-.1.4v.2l-.1.2h-.2l-.1.2-.2.3-.2.2-.3-.1-.5-.2-.6-.4-.6-.3-.4-.1-.3-.2-.3-.3-.3-.2-.2-.1-.3-.3-.3-.6-.2-.4v-.5l-.4-1-.3-.5-.1-.2-.4-.2-.5-.3-.6-.5-.9-.9-.6-.5-.3-.2-.3-.3-.3-.4-.2-.3H156.2l-.6-.1h-.6V240h-8l-1.3-.4-1.3-.5-1.3-.5-1.4-.5-1.3-.5-1.3-.5-1.4-.5-1.3-.5.1-.1.2-.5h-.3l-.8.1h-.8l-.8.1-.8.1h-.8l-.8.1-.8.1-.8.1v-.1l-.1-.3-.1-.2-.2.1V234.7l-.2-.5-.4-.7-.9-.8-.4-.3-.4-.3-.2-.1h-.3l-.1.1-.3-.1v-.4l-.3-.5-.3-.1-.6.1-.9-.3-.2-.2-.1-.3-.4-.3-.6-.3-.3.1h-.4l-.5-.2h-1.2l-.3-.3-.2-.1v-.6l.1-.2-.2-.5.1-.4v-.1l-.2-.2-.4-.1-.1-.3.1-.3-.1-.2-.4-.2-.3-.4-.4-.2-.2-.4-.2-.3-.1-.2-.6-.8-.6-.6-.1-.4v-.4l.3-.3.1-.3v-.2l-.1-.2-.2-.3-.8-.2-.6-.8-.1-.5-.2-.6v-.9H115.2v.2l.1.3.2.2.2.1.1.2.2.1h.1l-.1-.2h-.1v-.3l-.2-.4-.2-.2-.1-.4-.1-.1-.1-.1.2-.2.3-.1h1.4l.2-.1.2.1.1-.1-.3-.1-.1.1H116.6l-.1-.1-.2-.1h-.1l-.3.2h-.2l-.4-.2-.1-.1-.3.2v.5l.1.4-.2.1-.1-.2-.3-.1-.2-.2-.4-.3-.1-.1-.2.3v-.1l.1-.3v-.5l.2.4-.1-.3-.2-.2-.1-.1-.3-.6-.4-.3-.4-.5-.8-.8v-.7l-.3-1 .1-.5v-.4l-.1-.5-.2-.3-.6-.9-.6-.6-.1-.4-.1-.5.2-.3.1-.5.1-.1v.2h.1v-.5l.2-.5v-.7l.2-.9v-.2l-.1-.6-.2-.4-.2-.3.1-.3v-.4l-.4-.5-.2-.7v-1.1l-.1-.3-.2-.5.1-.5.1-.3.3-1.3.1-.1h.1l.2-.2h-.1l-.1.1.1-.5.2-.5.1-.1v-1.4l.1-1.1.2-.4-.1-.3.1-.5-.1-.6.3-2.4v-.3l.1-.4-.1-1.1v-1.3l-.1-.2h.1l.1.1h.7l.4-.1h.2l.2.2.2.1h.3l-.1-.1h-.1l-.3-.2-.2-.2h-.5l-.1-.1-.6.1-.2-.1h-.3l.1-.3-.1-.5.1-.5v.4l.2.3.1-.4.1-.5-.2-.2-.3-.1-.1-.5.7-.4-.4-.1-.1-.2h-.2v.1l-.1.2-.1-.3v-.2l-.1-.5-.3-.9-.2-1-.2-.5-.5-.5-.1-.3-.1-.8.1-.5-.1-.4h.2l.6.3.7.3.2.1.3.2 2 .2.1-.1.2-.1h.1l.3.3.2.1.1-.1h.2l.2-.2V178.7l.1.2.2.4v.2l-.3.6h-.1V179.8l-.7 1-.2.5V181.6l.1.1.2-.1.3-.2-.3.1h-.1v-.3l.1-.1.1-.3.2-.2.3-.2.2-.2.1-.2.3-.3v-.4h.2l.1.4-.1.2-.2.3h-.1l.1.4h-.2l.2.3.1.3v.7l-.1.1h-.1l-.2-.2v.1l-.2.3-.1-.4v-.1l-.3.2-.1.2-.1.3-.1.1.3.1.3-.1.2.1.1.1.2-.2.1-.1.2-.4.1-.1h.1l.1-.1.2-.2v-.1l-.1-.6.1-.3-.1-.1-.1-.1.1-.1V179.7l.2-.3v-.2l.2-.3v-.1l-.2-.2-.1-.1-.1-.2-.1-.1.1.4-.3-.2-.1-.1V178l.2-.1.2-.1-.1-.1-.2-.3-.1-.2h-.1l-.2-.1h-.1v-.2h.4l.1-.1v-.1l-.1-.1.1-.5-.1-.3-.1-.1h-.2l-.1-.1-.1-.2-.2-.6H191.6v-1.6h.6l.2.2h.1v.8l.1.5.3.6v.3l.1.1.1.1.6.2 1 .2.6.2.1.3.3.1.4-.1.3-.1z"/><path class="st2" d="M114.1 176.1v.1l-.1.1h-.1l-.1-.1V176.5l-.3-.2v-.1l.1-.1.1-.1h.1zM113.5 176.9v.1l-.3-.1-.1-.1-.1-.3v-.1h.2l.2.3zM114 177.2h-.1l-.1-.1h-.1v-.4h.2v.2l.1.2zM114.7 178.3l.1.6.1-.3.4.4v.2l-.1.1h-.1l-.1-.2-.1-.1h-.2l-.1-.2v-.4l-.1-.1-.1-.1-.2-.2.1-.2.1-.3.1-.1h.1l.1.1.1.1v.1l-.4.3h-.1l.2.1h.1zM209 179.3l.1.1-.1.1-.3.1H208.4l-.1-.1.1-.1v-.1h-.1.1l.1-.1 1.1-.7.5-.2.2-.1.1.1-.3.2-.1.1.1.1-.1.1-.8.4zM114.9 180.7l-.2-.1v-.4h.1v.1h.1zM115.2 181.5v.1l-.1.1-.1-.1v-.1l-.1.1v-.5h.1l.1.2zM211.1 182.2l-.1.2.1.1-.4.3-.1.2-.1.1-.1-.2v-.1l.1-.1.1-.1v-.2l-.1-.1-.1.2h.1v.1l-.4-.1-.1-.1v-.2l.1-.2.5-.5.2-.1.6-.2.3-.1h.4l.2.1.1.1-.1.1-.6.1h-.1l.2.1v.1l-.1.1zM113.9 182.3v.1l-.1-.1-.1-.1v-.1l.1-.1.1.2zM204.9 183l-.1.1V182.8h.2v.1zM204.1 183.4h-.1v-.1l.1.1zM204.6 183.4l-.1.1-.2-.1.2-.1h.1zM204.1 184l-.2.1v-.1l.1-.1.4-.3v.1l-.1.1-.1.1zM222.6 185.7v.1h-.1l-.1-.1v-.1l-.1-.2-.1-.2.1-.2h.2l.1.1-.1.2v.2zM222.6 186.2l-.2-.2v-.1h.2v.2zM224.3 187.1l.1.1-.1.1-.2.1h-.7l-.1-.1v-.2h.1v.1l.2-.1.1-.1.1-.1v-.2l.2.1.1.1.2.2zM221.4 187.9l.3.1.1-.1.1.1v.1l-.1.1h-.2l-.2-.2zM218.6 188.8h-.1l-.1-.1v-.1l.1-.4.1-.1h.2l-.1.1.1.3-.1.2zM214.9 189.8h-.2l-.1-.1.1-.2h.2v.1zM214.5 190.2v.1l-.1-.1v.4h-.1v.1l.1.1-.1.1h-.1l-.1.1-.1.2V191.5l-.3.3-.1.1-.1-.1-.1-.1v-.4l.2-.3.1-.2.1-.2.1-.1.2-.1.1-.1.1-.2.1-.1h.1l.1.1zM217.4 190.8h-.2V190.5l.1.1h.1zM267.3 193.8l-.1.1-.2-.1V194.1l-.2-.1-.1-.1v-.2l.2-.3.1-.1.2.1.1.3zM245.1 194h-.1v-.1h.2zM266.1 194.3l-.1.1h-.1V194.1h.1zM244.7 195.1h-.1l.1-.1zM237.2 198.9l-.1.1h-.1l-.1-.1v-.2H237.2v.1zM258.7 204.6l-.1.1h-.1v-.1l.1-.2v-.2l.1-.1.1-.1zM258.4 204.7h-.1v-.4h.1v.2zM260.8 205.1l-.8.2-.1-.2h.2l.2-.3h.2l.3.1zM262.3 205.5h-.2l-.5-.1.4-.1.1-.1v-.2l.2.4zM255.2 206.5l-.2.3h.2l.1-.1.2-.1.3-.2.3-.1h.1l.1.1.3-.1.3-.1-1.2.7h-.3l-.3.2-.4.1-.2.1-1.2.4-.1.1-.1-.1-1 .2-.4.1-.4.1.3-.2v-.1l-.1-.1-.1.1-.2.2h-.2l-.1-.2.1-.2.1-.1.2-.3.4-.1.2-.1.1.1v-.2l.1-.1H252.4l.2-.1h.2l.2.1.3-.1.2-.1h.8l.6-.1.2-.1.5-.4.3-.1-.5.4zM250.5 208.2h-.2l.2-.3.2-.2.1.1v.2l-.2.2zM250.6 211.3l-.3.6v-.1l.4-.7zM247.3 217.7l-.2.1.5-.7.2-.6.1-.2-.1.4-.2.4zM246.4 224.8v.1l-.2-.4.2.1v.2zM246.7 227h-.4l.4-.2.1-.7v-1l.1.2v.9l-.1.6zM246 227.1l-.5.3h-.1l.4-.2zM244 229h-.1l.3-.4.5-.5.1-.1-.4.4zM243.9 228.9l-.1.1-.1-.1-.2-.1h.1zM122.2 230.9l.6.2.3-.1.1.1h-.1l-.7.2-.2-.1v-.1l-.1-.2zM121 231.1h-.1l-.2-.1.2-.1v.1zM121.8 231.4l-.2.1-.2-.1-.2-.3h.5l.2.1.1.1zM126.5 233.2l.2.3-.2-.1-.2.1-.1-.2-.1-.2h-.2v-.1l.1-.1.4.2zM123.5 233.8H123.2l-.1-.2H123.4l.1.1zM126.5 235.1h-.1l-.2-.1-.2-.3-.1-.2.1-.1.1.2.3.4zM230.2 241.2l-.1.8-.1-.3v-.3l.1-.1zM211.5 243.5l-.2.1h-.5l.2-.1h.4zM210.1 243.6v.1l-.2-.1-.2-.1.4.1zM208.3 244.1v.1l-.1-.1h-.3.1l.1-.1.3-.2-.1.1zM209.4 245l-.1.1.1-.5-.1-.4.1.1v.3zM209.2 245.3l-.1.1.1-.2.1-.1zM220.4 245.5l-.3.1-.3-.1H220.1l.4-.1.2-.2h.2zM201.1 245.9l-.1.1-.5-.3v-.1l.2-.1h.1l.3.1v.1h.1v.1zM192 247.1h-.2l.6-.5.2-.1h.1l-.3.2zM187.1 250.2l-.1.1.1-.2.3-.1.4-.3.2-.1.1-.1v.2l-.4.2zM186.4 251l.1-.2v-.1l.2-.3.2-.1v.1l-.2.3zM233.6 253l.1.2-.3-.5-.3-.9-.2-.6.2.2.1.3zM185.5 252.9l-.1.2v-.3l.2-.6.5-.8.2-.1-.5.9zM186 256.5l-.1.1-.2-.6-.4-1.6v-.8l.1-.3.1 1.2.4 1.6zM228.3 255.3v.2l-.1-.4-.1-.3.1.1zM228.4 255.6l-.1.1-.2-.1-.1-.1v-.2l.2.2v.1zM233.1 259.6l-.6.6.1-.1.2-.3.1-.2.1-.1.2-.1v-.2l.2-.2zM232.4 260.4h-.1l.1-.1zM231.8 260.7v-.1h.2zM231.2 261h-.2l.1-.1.5-.1-.2.1zM230.4 261.2h-.1v-.1l-.1-.2.3.2zM229.8 261.3h-.2l.1-.1.1-.2.1.2v.1zM229.2 261.5h-.1v-.1h.2v.1zM257.7 258.1l-.2.2-.1-.1h-.3l-.1-.2-.3-.1-.1-.1.2-.3.4-.3h.6l.1.2.1.2-.1.1-.1.3zM255.5 258.4l-.1.1h-.1v-.1l.1-.2.1-.2.2-.2.1.1V258.2h-.2zM262.2 259.5h.2v.2l.2.2v.1h-.1l-.3.1-.2-.1-.1-.1h-.2v-.2l-.1.1.1.1h-.4l-.1-.1-.3-.4v-.1l-.1-.2h.5l.2-.3h.2l.3.4v.1l.1.2zM263.8 260.2l.6.1h.2l.5.1h.1l-.1.2-.3.1-.5-.1-.7-.1v-.1l.1-.1v-.1zM265.8 261.1h.4l.2-.1.4.2.1.2.3.1v.2l-.3.2-.3.1-.3.1h-.2l-.1-.1v-.2l-.1-.3h-.2l-.2-.1-.2-.2v-.2l.1-.2h.2l.1.1zM264.8 261.6H264.5l-.1-.2-.1-.3h.3l.1.1h.1l.1.2zM268.4 266.8l-.1.1h-.2l-.6-.3V265.7l-.2-.6-.2-.5.1-.2.3-.2.2-.4-.2-.4.1-.3.1-.1.6.4 1.2.5.3.3v.4l.2.1.2.2.3.2.1.2-.2.2-.5.4-.7.1-.7.5z"/><text transform="translate(466.49 213.28)" class="st3 st4 st5">GIRONA</text><text transform="translate(216.6 279.677)" class="st3 st4 st5">CUBA</text></svg>