<svg xmlns="http://www.w3.org/2000/svg" viewBox="0 0 500.41 512" height="32" width="32" ><defs><style>.a{opacity:0.5;}.b{fill:#fff;}</style></defs><title>more-info</title><circle class="a" cx="205.42" cy="208.91" r="191"/><path class="b" d="M356.51,60.1C276.39-20,146-20,65.9,60.1s-80.13,210.49,0,290.6c77.37,77.38,201.59,80,282.2,7.95l16.28,16.29a28.91,28.91,0,0,0,6.45,31l86,86A28.94,28.94,0,1,0,497.72,451l-86-86a28.93,28.93,0,0,0-31-6.44l-16.29-16.3C436.55,261.69,433.89,137.47,356.51,60.1ZM90.45,326.16c-66.58-66.58-66.58-174.92,0-241.5s174.93-66.58,241.52,0,66.58,174.92,0,241.51S157,392.74,90.45,326.16Z" transform="translate(-5.8 0)"/><path class="b" d="M194.38,214.4l-4.89-73.26q-1.38-21.42-1.38-30.75,0-12.69,6.65-19.81t17.51-7.11q13.16,0,17.59,9.1t4.44,26.23a198.86,198.86,0,0,1-1.08,20.5l-6.57,75.4q-1.07,13.46-4.59,20.65t-11.62,7.19q-8.26,0-11.47-7T194.38,214.4Zm17,100.64A24,24,0,0,1,195.07,309q-7-6-7-16.89A22.71,22.71,0,0,1,211,269.31,22.72,22.72,0,0,1,227.5,276a21.74,21.74,0,0,1,6.81,16.13q0,10.7-6.89,16.82A23.35,23.35,0,0,1,211.36,315Z" transform="translate(-5.8 0)"/><rect class="b" x="101.22" y="438.35" width="208.4" height="23.16"/><rect class="b" x="147.52" y="488.84" width="115.78" height="23.16"/></svg>
