<svg xmlns="http://www.w3.org/2000/svg" viewBox="0 0 224.04 224.04" width="64" height="64"><path d="M112.02 0C64.877 0 26.524 38.354 26.524 85.496c0 32.207 17.907 60.3 44.28 74.876l37.59 61.2c.963 1.568 2.46 2.468 4.106 2.468 1.66 0 3.17-.912 4.146-2.5l38.13-62.055c25.524-14.807 42.74-42.417 42.74-73.99C197.516 38.356 159.163 0 112.02 0zm12.667 138.73h-24v-66h24v66zm-11.754-76.143c-7.85 0-14.215-6.364-14.215-14.215 0-7.85 6.364-14.215 14.215-14.215s14.215 6.365 14.215 14.215-6.364 14.215-14.215 14.215z" fill="#25c2ec"/></svg>