<?xml version="1.0" encoding="iso-8859-1"?>
<!-- Generator: Adobe Illustrator 19.0.0, SVG Export Plug-In . SVG Version: 6.00 Build 0)  -->
<svg xmlns="http://www.w3.org/2000/svg" xmlns:xlink="http://www.w3.org/1999/xlink" version="1.1" id="Capa_1" x="0px" y="0px" viewBox="0 0 224.04 224.04" style="enable-background:new 0 0 224.04 224.04;" xml:space="preserve" width="64px" height="64px">
<path d="M112.02,0C64.877,0,26.524,38.354,26.524,85.496c0,32.207,17.907,60.301,44.281,74.876l37.589,61.199  c0.963,1.569,2.46,2.469,4.106,2.469c1.659,0,3.171-0.912,4.146-2.501l38.131-62.054c25.523-14.807,42.739-42.417,42.739-73.989  C197.516,38.354,159.163,0,112.02,0z M124.687,138.729h-24v-66h24V138.729z M112.933,62.587c-7.851,0-14.215-6.364-14.215-14.215  c0-7.851,6.364-14.215,14.215-14.215s14.215,6.365,14.215,14.215C127.148,56.223,120.784,62.587,112.933,62.587z" fill="#25c2ec"/>
<g>
</g>
<g>
</g>
<g>
</g>
<g>
</g>
<g>
</g>
<g>
</g>
<g>
</g>
<g>
</g>
<g>
</g>
<g>
</g>
<g>
</g>
<g>
</g>
<g>
</g>
<g>
</g>
<g>
</g>
</svg>
