<?xml version="1.0" encoding="utf-8"?>
<!-- Generator: Adobe Illustrator 17.0.0, SVG Export Plug-In . SVG Version: 6.00 Build 0)  -->
<!DOCTYPE svg PUBLIC "-//W3C//DTD SVG 1.1//EN" "http://www.w3.org/Graphics/SVG/1.1/DTD/svg11.dtd">
<svg version="1.1" id="napoleonSimply" xmlns="http://www.w3.org/2000/svg" xmlns:xlink="http://www.w3.org/1999/xlink" x="0px"
	 y="0px" width="308.7px" height="419px" viewBox="0 0 308.7 419" enable-background="new 0 0 308.7 419" xml:space="preserve">
<g>
	<path fill="#ffd85f" d="M48.3,296.4c9.5,2.5,15.2,37.9,23.4,46.5c5.7,6,33.7,41.2,40.9,21.6c6.5,5.4,19.7,1.3,28-0.4
		c6-1.2,22.4-3.5,27.4-10.3c2.9-4,19.6-13.2,24.1-14.3c9.3-2.3,9.7-6.7,15.3-12.4c1.4,0.9,2.1,2.1,2.1,3.7
		c3.6-14.9,20.8-32.7,14.8-51.3c-6.3,13.7-9.6-3.3-9.1-8.4c0.7-7.8-4.4-10.6,2.9-16.7c-1.6-1.5-3.2-3-4.9-4.5
		c13-6,16.4-28.5,20.7-40.8c4.2-11.9,10.7-20,1.1-31.5c-5.3-6.4-4.5-16.4-14.1-20.7c0.8,3.4-0.4,4.6-3.6,3.5
		c1.9-5.9,3.6-12.6,3.6-18.9c-3.6,2.6-12.1-5.7-4.8-10.7c-1-2.7-8.9-0.3-11.2,0c1.9-2.4,6.5-1.3,5.6-5.8c-3.4,3-5.4,3.3-6,0.9
		c18-7.9,8.2-21.1,11.1-31.7c1.4,0.1,1.7,1.1,0.8,2.9c3.1-4.7-1.1-14-2.4-18.4c0,14.8-1.5,4.5-2.4,0.4c-2.6,0-4.8,11.9-8.8,11.5
		c-0.1-2.5-0.2-22.1-1.6-6.7c-1.2-4.3-2.5-8.7-3.7-13c-4.9,3.6-27.7-25.3-24.9,1.5c-2.7,1-4.6,0.1-5.6-2.7c-5.8,7.7-6,6.2-13.9-0.2
		c-0.7,0.7,5.2,8.8,5.9,10c-2.3,3.2-11.2-1.4-13-3.6c-0.6,4.5-2.9,5.8-6.9,3.9c0.8,12.5,10.7,13.3,17.8,21.1
		c-4.3-0.2-13.2-4.7-6.4,3.1c-7-2-13-5-17.3,2.1c-1.8-4.1-29.2-19-32.9-17.6c12.4,15.7,1.7,13.3-10.1,7.5c1.7,3.8,4.1,7.2,7.1,10.1
		c-5.5-2.5-10.9-6.6-15.5-10.6c-4.4-3.8-11.5-20.6-14-20.8c0,4.5-2,7.5-6,9.2c-2.1-1.6-3-3.9-2.6-6.8c-19.8,9.5-27,42.7-26,61.6
		c0.7,12.1-8.4,43.3,8.7,38.6c14.3-3.9,26.6-0.1,40.3,4.5c-4.1,4.5,15,9.6,10.7,20.6c-2-2.2-4.3-2.8-7.1-1.7c5.8,5-3,3.6,4.6,5.4
		c-4.1,1.2-7.8,1.7-9.7-3.2c-3.1,2.8-1.4,5-6.5,5.7c-20.1,2.9-6.2-4.2-17.2-9c-4.5-2-8.2,13.3-8.3,13.6c2.4,0.6,4.7,1.7,6.7,3.1
		c0.2,8.6-21-13.6-22.9-9.1c-1.8-0.9-7.7-18.6-7-21.6c2.5-10.6-6-12.8-7.5-21c-4-21.2-5.5-30.3,0.8-52.3
		c4.8-16.5,9.5-34.3,17.7-49.2c-10.2,3.4,0.2-9.8,2.8-11.4C50,45.6,60.1,38.7,73.1,40.7c7.4,1.2,18.2-9.4,24.1-12.6
		c11.7-6.4,17.7-12.4,31.9-13.6c9.7-0.8,21.8,6.3,30.8,1.9c9.4-4.6,18.8-1.7,28.5-0.5c19.4,2.4,23.5,12.4,38.4,21.6
		c14.2,8.7,39.9,7.3,39.1,31.3c-0.1,4.5,5.9,16.3,8.9,20c7.7,9.3,9,17,11.2,28.9c1.8,9.8-11,34.6-3.3,42c-0.9-0.8,3.5,13.7,4.1,14.8
		c2.1,4.5-3,19.2-3.7,25c1.4,0.7,2.2-0.2,2.4-2.6c-1.2,9.5-0.2,20-2.6,29.2c-2.3,9.4-12.7,13.9-15.8,24.3
		c-5.6,19-2.4,47.4-16.5,62.4c-26.1,27.7-66.6,78.5-109.5,71c3.6-0.3,31.1-1.3,22.2-6c13.5-3.4-22.2,4.7-25.4,5.2
		c-17.3,2.5-27.6,2.4-42.9-7.3C66.3,357.2,59.6,325.2,48.3,296.4z M45.8,188.1c2.4,1,4.2,0.4,5.5-1.9c-7.3-1.8-4.3,4.5-7.3-1.8
		c1,2-0.1,2.8-3.3,2.7C42.3,188.1,44,188.4,45.8,188.1C48.7,190.8,45.2,188.2,45.8,188.1z M278.3,207.1c-4.1,6.5-9.9,11.3-9.7,19.6
		c0.2,8.6,10.9-6.5,11.2-8.4c1-6.6-1.1-22.3-5.4-26.9C271.5,198.9,270.7,202.8,278.3,207.1C277.1,209.1,276.8,206.2,278.3,207.1z
		 M280.5,167.2c-11.7-0.9-13.9,1.3-20.8,10.5C261.9,178,280.2,168.8,280.5,167.2C279.6,167.1,280.2,169.1,280.5,167.2z M46.4,196.6
		c1-2,14.8-1.9,17.8-4.7C63.4,190.4,41.4,190.9,46.4,196.6C46.5,196.3,44.6,194.6,46.4,196.6z M263.9,241.4
		c-2.7-1.3-6.8,7.1-6.6,8.8C261.7,249,263.9,246.1,263.9,241.4C263.7,241.3,263.3,243.4,263.9,241.4z M263.9,231.2
		c-4,0.7-5.2,2.1-4.7,5.7C263,236.9,262.7,233.7,263.9,231.2z"/>
	<path fill="#ffd85f" d="M172.8,180.1c-11-2.9-21.6,0-30.6,6.6c11.9-3.6,24.5-3.6,36.5-0.6c1.2-3.2-5.8-4.5-1-6.8
		c3.1-1.4,16.5,3.4,13.1-3.5c-0.7-0.2,28.7,6.7,19.1,11.8c-6.9,3.6-30.4,25.3-37.7,19.6c4.6-2.7,8.3-3.7,10.5-8
		c-8-3.6-15.9,4.8-24.5-0.3c-4.1-2.4-2.1-12.6-8.6-10c-1.5,0.6-15.4,14.2-15,12.6c-6.2-1.3,6.2-9.7-4.2-7.3
		c-5.8,1.3-17.5-1.2-11-12.7c6.8-12,50.1-24.3,63.1-10.9c-0.9-1-18.3,3.6-20.5,4.4C166.2,175.6,169.8,177.3,172.8,180.1
		C161.3,177.1,170.6,175.5,172.8,180.1z"/>
	<path fill="#ffd85f" d="M132.5,258.2c18.7,0-15.9,26.1-18.1,29.7c-5.8,9.6-30.7-16.2-28.9-22.4c6.4,6.9,16.2,11.7,24,2.7
		C114.4,262.6,131.7,266.7,132.5,258.2C134,258.2,132.3,260.9,132.5,258.2z"/>
	<path fill="#ffd85f" d="M83.7,301.4c1.8,6,69.5-10.2,80.4-0.2c-1.2,1.9-30.2,5-33.4,4.3c-11.8-2.5-41.3,1-53.5,4.8
		C76.9,305.6,79.1,302.6,83.7,301.4C83.9,302.1,79.3,302.3,83.7,301.4z"/>
	<path fill="#ffd85f" d="M130.6,312c5.3-1.6,7.7-5.1,10.6-4.4c6.1,1.3-6.5,14.3-11.3,13.3c-7.5-1.5-24.3,5.9-29-1.6
		C104.9,317.4,133.8,317.5,130.6,312C133.3,311.1,130.8,312.3,130.6,312z"/>
	<path fill="#195073" d="M48.4,296.3c-3.1-5.9-12.8-46.6-12.3-46.4c0.8,0.4,9.9,28.3,9.9,29.5C46.5,285.8,50.4,289,48.4,296.3z"/>
	<path fill="#195073" d="M33.4,246.2c-0.7-3.8-1.4-7.7-2-11.5C34.8,237.8,35.8,243.1,33.4,246.2z"/>
	<path fill="#195073" d="M124.8,385.2c4.5-0.4,8.5-0.7,13.2-1.2C135.2,386.1,128.8,386.5,124.8,385.2z"/>
</g>
</svg>
