<svg xmlns="http://www.w3.org/2000/svg" width="308.7" height="419" viewBox="0 0 308.7 419"><path fill="#ffd85f" d="M48.3 296.4c9.5 2.5 15.2 37.9 23.4 46.5 5.7 6 33.7 41.2 40.9 21.6 6.5 5.4 19.7 1.3 28-.4 6-1.2 22.4-3.5 27.4-10.3 2.9-4 19.6-13.2 24.1-14.3 9.3-2.3 9.7-6.7 15.3-12.4 1.4.9 2.1 2.1 2.1 3.7 3.6-14.9 20.8-32.7 14.8-51.3-6.3 13.7-9.6-3.3-9.1-8.4.7-7.8-4.4-10.6 2.9-16.7-1.6-1.5-3.2-3-4.9-4.5 13-6 16.4-28.5 20.7-40.8 4.2-11.9 10.7-20 1.1-31.5-5.3-6.4-4.5-16.4-14.1-20.7.8 3.4-.4 4.6-3.6 3.5 1.9-5.9 3.6-12.6 3.6-18.9-3.6 2.6-12.1-5.7-4.8-10.7-1-2.7-8.9-.3-11.2 0 1.9-2.4 6.5-1.3 5.6-5.8-3.4 3-5.4 3.3-6 .9 18-7.9 8.2-21.1 11.1-31.7 1.4.1 1.7 1.1.8 2.9 3.1-4.7-1.1-14-2.4-18.4 0 14.8-1.5 4.5-2.4.4-2.6 0-4.8 11.9-8.8 11.5-.1-2.5-.2-22.1-1.6-6.7-1.2-4.3-2.5-8.7-3.7-13-4.9 3.6-27.7-25.3-24.9 1.5-2.7 1-4.6.1-5.6-2.7-5.8 7.7-6 6.2-13.9-.2-.7.7 5.2 8.8 5.9 10-2.3 3.2-11.2-1.4-13-3.6-.6 4.5-2.9 5.8-6.9 3.9.8 12.5 10.7 13.3 17.8 21.1-4.3-.2-13.2-4.7-6.4 3.1-7-2-13-5-17.3 2.1-1.8-4.1-29.2-19-32.9-17.6 12.4 15.7 1.7 13.3-10.1 7.5 1.7 3.8 4.1 7.2 7.1 10.1-5.5-2.5-10.9-6.6-15.5-10.6-4.4-3.8-11.5-20.6-14-20.8 0 4.5-2 7.5-6 9.2-2.1-1.6-3-3.9-2.6-6.8-19.8 9.5-27 42.7-26 61.6.7 12.1-8.4 43.3 8.7 38.6 14.3-3.9 26.6-.1 40.3 4.5-4.1 4.5 15 9.6 10.7 20.6-2-2.2-4.3-2.8-7.1-1.7 5.8 5-3 3.6 4.6 5.4-4.1 1.2-7.8 1.7-9.7-3.2-3.1 2.8-1.4 5-6.5 5.7-20.1 2.9-6.2-4.2-17.2-9-4.5-2-8.2 13.3-8.3 13.6 2.4.6 4.7 1.7 6.7 3.1.2 8.6-21-13.6-22.9-9.1-1.8-.9-7.7-18.6-7-21.6 2.5-10.6-6-12.8-7.5-21-4-21.2-5.5-30.3.8-52.3 4.8-16.5 9.5-34.3 17.7-49.2-10.2 3.4.2-9.8 2.8-11.4 10.7-6.1 20.8-13 33.8-11 7.4 1.2 18.2-9.4 24.1-12.6 11.7-6.4 17.7-12.4 31.9-13.6 9.7-.8 21.8 6.3 30.8 1.9 9.4-4.6 18.8-1.7 28.5-.5 19.4 2.4 23.5 12.4 38.4 21.6 14.2 8.7 39.9 7.3 39.1 31.3-.1 4.5 5.9 16.3 8.9 20 7.7 9.3 9 17 11.2 28.9 1.8 9.8-11 34.6-3.3 42-.9-.8 3.5 13.7 4.1 14.8 2.1 4.5-3 19.2-3.7 25 1.4.7 2.2-.2 2.4-2.6-1.2 9.5-.2 20-2.6 29.2-2.3 9.4-12.7 13.9-15.8 24.3-5.6 19-2.4 47.4-16.5 62.4-26.1 27.7-66.6 78.5-109.5 71 3.6-.3 31.1-1.3 22.2-6 13.5-3.4-22.2 4.7-25.4 5.2-17.3 2.5-27.6 2.4-42.9-7.3-28.7-18.5-35.4-50.5-46.7-79.3zm-2.5-108.3c2.4 1 4.2.4 5.5-1.9-7.3-1.8-4.3 4.5-7.3-1.8 1 2-.1 2.8-3.3 2.7 1.6 1 3.3 1.3 5.1 1 2.9 2.7-.6.1 0 0zm232.5 19c-4.1 6.5-9.9 11.3-9.7 19.6.2 8.6 10.9-6.5 11.2-8.4 1-6.6-1.1-22.3-5.4-26.9-2.9 7.5-3.7 11.4 3.9 15.7-1.2 2-1.5-.9 0 0zm2.2-39.9c-11.7-.9-13.9 1.3-20.8 10.5 2.2.3 20.5-8.9 20.8-10.5-.9-.1-.3 1.9 0 0zM46.4 196.6c1-2 14.8-1.9 17.8-4.7-.8-1.5-22.8-1-17.8 4.7.1-.3-1.8-2 0 0zm217.5 44.8c-2.7-1.3-6.8 7.1-6.6 8.8 4.4-1.2 6.6-4.1 6.6-8.8-.2-.1-.6 2 0 0zm0-10.2c-4 .7-5.2 2.1-4.7 5.7 3.8 0 3.5-3.2 4.7-5.7z"/><path fill="#ffd85f" d="M172.8 180.1c-11-2.9-21.6 0-30.6 6.6 11.9-3.6 24.5-3.6 36.5-.6 1.2-3.2-5.8-4.5-1-6.8 3.1-1.4 16.5 3.4 13.1-3.5-.7-.2 28.7 6.7 19.1 11.8-6.9 3.6-30.4 25.3-37.7 19.6 4.6-2.7 8.3-3.7 10.5-8-8-3.6-15.9 4.8-24.5-.3-4.1-2.4-2.1-12.6-8.6-10-1.5.6-15.4 14.2-15 12.6-6.2-1.3 6.2-9.7-4.2-7.3-5.8 1.3-17.5-1.2-11-12.7 6.8-12 50.1-24.3 63.1-10.9-.9-1-18.3 3.6-20.5 4.4 4.2.6 7.8 2.3 10.8 5.1-11.5-3-2.2-4.6 0 0zM132.5 258.2c18.7 0-15.9 26.1-18.1 29.7-5.8 9.6-30.7-16.2-28.9-22.4 6.4 6.9 16.2 11.7 24 2.7 4.9-5.6 22.2-1.5 23-10 1.5 0-.2 2.7 0 0zM83.7 301.4c1.8 6 69.5-10.2 80.4-.2-1.2 1.9-30.2 5-33.4 4.3-11.8-2.5-41.3 1-53.5 4.8-.3-4.7 1.9-7.7 6.5-8.9.2.7-4.4.9 0 0zM130.6 312c5.3-1.6 7.7-5.1 10.6-4.4 6.1 1.3-6.5 14.3-11.3 13.3-7.5-1.5-24.3 5.9-29-1.6 4-1.9 32.9-1.8 29.7-7.3 2.7-.9.2.3 0 0z"/><path fill="#195073" d="M48.4 296.3c-3.1-5.9-12.8-46.6-12.3-46.4.8.4 9.9 28.3 9.9 29.5.5 6.4 4.4 9.6 2.4 16.9zM33.4 246.2c-.7-3.8-1.4-7.7-2-11.5 3.4 3.1 4.4 8.4 2 11.5zM124.8 385.2c4.5-.4 8.5-.7 13.2-1.2-2.8 2.1-9.2 2.5-13.2 1.2z"/></svg>