<?xml version="1.0" encoding="utf-8"?>
<!-- Generator: Adobe Illustrator 15.0.2, SVG Export Plug-In . SVG Version: 6.00 Build 0)  -->
<!DOCTYPE svg PUBLIC "-//W3C//DTD SVG 1.1//EN" "http://www.w3.org/Graphics/SVG/1.1/DTD/svg11.dtd">
<svg version="1.1" id="Layer_1" xmlns="http://www.w3.org/2000/svg" xmlns:xlink="http://www.w3.org/1999/xlink" x="0px" y="0px"
	 width="512px" height="422.4px" viewBox="0 0 512 422.4" enable-background="new 0 0 512 422.4" xml:space="preserve">
<path d="M0,38.4V384c0,32.25,6.525,38.4,38.4,38.4H473.6c31.625,0,38.4-5.888,38.4-38.4V38.4C512,6.913,505.975,0,473.6,0H38.4
	C6.656,0,0,5.506,0,38.4z M451.713,332.8H60.544c42.75-62.337,118.769-166.274,138.1-166.274c18.7,0,82.182,83.975,110.856,113.537
	c0,0,36.875-49.287,56.2-49.287C385.4,230.775,451.075,332.287,451.713,332.8z M336.775,115.2c0-26.112,21.112-47.219,47.225-47.219
	s47.225,21.106,47.225,47.219S410.112,162.419,384,162.419S336.775,141.312,336.775,115.2z"/>
</svg>
