<svg xmlns="http://www.w3.org/2000/svg" width="512" height="422.4" viewBox="0 0 512 422.4"><path d="M0 38.4V384c0 32.25 6.525 38.4 38.4 38.4h435.2c31.625 0 38.4-5.888 38.4-38.4V38.4C512 6.913 505.975 0 473.6 0H38.4C6.656 0 0 5.506 0 38.4zm451.713 294.4H60.543c42.75-62.337 118.77-166.274 138.1-166.274 18.7 0 82.183 83.975 110.857 113.537 0 0 36.875-49.287 56.2-49.287 19.7 0 85.375 101.51 86.013 102.024zM336.775 115.2c0-26.112 21.112-47.22 47.225-47.22s47.225 21.107 47.225 47.22-21.113 47.22-47.225 47.22-47.225-21.108-47.225-47.22z"/></svg>