<svg xmlns="http://www.w3.org/2000/svg" width="950" height="620" viewBox="0 0 950 620"><g fill="none" stroke="#68C8F2" stroke-width="2" stroke-miterlimit="10"><path d="M457.5 212.5c.12.087.264.173.425.26"/><path stroke-dasharray="1.0021,1.0021" d="M458.83 213.18c4.4 1.82 14.876 3.918 9.01 9.062-2.39 2.095-5.58 2.744-8.02 4.242-2.606 1.603-4.66 3.303-7.34 4.666-2.266 1.153-4.978 2.016-7.388 2.943-3.23 1.244-5.657 2.542-9.333 2.89-7.254.685-14.52.294-21.522 2.443-3.875 1.188-7.592.836-11.77 1.41-4.493.62-9.074 2.09-13.628 2.682-8.02 1.042-15.207 2.303-22.988 4.417-18.953 5.148-37.69 9.1-56.73 12.574-12.61 2.3-24.372 5.696-36.957 7.308-9.13 1.168-20.827-1.956-28.836 3.118"/><path d="M242.908 271.212c-.138.093-.273.19-.408.288"/></g><ellipse cx="242.375" cy="271.356" rx="2.875" ry="2.688"/><ellipse cx="458.55" cy="213.792" rx="2.875" ry="2.688"/></svg>