<?xml version="1.0" encoding="utf-8"?>
<!-- Generator: Adobe Illustrator 16.0.0, SVG Export Plug-In . SVG Version: 6.00 Build 0)  -->
<!DOCTYPE svg PUBLIC "-//W3C//DTD SVG 1.1//EN" "http://www.w3.org/Graphics/SVG/1.1/DTD/svg11.dtd">
<svg version="1.1" id="svg2" xmlns:svg="http://www.w3.org/2000/svg"
	 xmlns="http://www.w3.org/2000/svg" xmlns:xlink="http://www.w3.org/1999/xlink" x="0px" y="0px" width="950px" height="620px"
	 viewBox="0 0 950 620" enable-background="new 0 0 950 620" xml:space="preserve">
<g>
	<g>
		<path fill="none" stroke="#68C8F2" stroke-width="2" stroke-miterlimit="10" d="M457.5,212.5c0.121,0.087,0.264,0.173,0.425,0.26"
			/>
		<path fill="none" stroke="#68C8F2" stroke-width="2" stroke-miterlimit="10" stroke-dasharray="1.0021,1.0021" d="
			M458.829,213.181c4.401,1.819,14.877,3.917,9.012,9.061c-2.391,2.095-5.58,2.744-8.02,4.242c-2.607,1.603-4.662,3.303-7.34,4.666
			c-2.267,1.153-4.979,2.016-7.389,2.943c-3.229,1.244-5.657,2.542-9.333,2.89c-7.253,0.685-14.518,0.294-21.521,2.443
			c-3.875,1.188-7.592,0.836-11.77,1.411c-4.493,0.618-9.074,2.09-13.628,2.681c-8.021,1.042-15.207,2.303-22.988,4.417
			c-18.953,5.148-37.69,9.099-56.729,12.574c-12.612,2.302-24.373,5.697-36.958,7.309c-9.13,1.168-20.827-1.956-28.836,3.118"/>
		<path fill="none" stroke="#68C8F2" stroke-width="2" stroke-miterlimit="10" d="M242.908,271.212
			c-0.138,0.093-0.273,0.189-0.408,0.288"/>
	</g>
</g>
<ellipse cx="242.375" cy="271.356" rx="2.875" ry="2.688"/>
<ellipse cx="458.55" cy="213.792" rx="2.875" ry="2.688"/>
</svg>
