<svg width="60" height="60" viewBox="0 0 60 60" xmlns="http://www.w3.org/2000/svg"><g fill="#f6f7f7"><path d="M37.992 22.752l-3.084 3.083C36.496 27.408 37.48 29.59 37.48 32c0 2.41-.984 4.593-2.572 6.165l3.084 3.083C40.357 38.88 41.82 35.61 41.82 32c0-3.61-1.463-6.88-3.828-9.248z"/><path d="M50.496 32c0-6.005-2.44-11.44-6.383-15.37l-3.053 3.054c3.15 3.153 5.098 7.507 5.098 12.316 0 4.81-1.95 9.162-5.098 12.316l3.053 3.053c3.942-3.93 6.383-9.365 6.383-15.37z"/><path d="M59.174 32c0-8.402-3.413-16.006-8.926-21.505l-3.068 3.068c4.73 4.713 7.655 11.233 7.655 18.437 0 7.204-2.926 13.724-7.655 18.437l3.068 3.068C55.76 48.007 59.174 40.402 59.174 32zM15.475 41.207L28.66 53.41V10.59L15.724 22.795H3.344v18.413"/></g></svg>