<svg xmlns="http://www.w3.org/2000/svg" viewBox="0 0 453.12 383.3"><defs><style>.a, .b { fill: #f6f7f7; } svg:hover .b { fill: #BE2B22 !important; }</style></defs><title>tv3</title><path class="a b" d="M.08 106.34L0 64.67l221.39 126.76-36.42 20.89L.08 106.34M51.2 289.06L.43 318.18l-.1-59.47 50.87 30.35M.22 193.59l.08 41.68 71.36 42.05 36.24-20.79L.22 193.59M165.25 223.63l-36.75 21.09L.19 171.03l-.08-41.68 165.14 94.28"/><path class="a" d="M278.69 111.64l-94.62-.44C196.29 40.27 241.91 0 318.38 0c52.61 0 131.69 31.54 131.69 114.25 0 39.91-23.83 68.37-45.35 75.44 17 9.59 48.4 27.9 48.4 82.42 0 52.23-51.45 111.23-134.74 111.23-103.78 0-134.31-64.83-134.31-115.55h94.62s3.5 33.55 41.87 33.55c24.42 0 40.13-13.66 40.13-37.5 0-27.33-21.23-40.12-44.49-40.12h-30.52v-68h36.63c17.44 0 37.06-12.65 37.06-37.5S346.26 78.5 320.12 78.5s-41.43 16.13-41.43 33.14z"/></svg>