<svg xmlns="http://www.w3.org/2000/svg" viewBox="0 0 453.12 383.3">
  <defs>
    <style>
      .a, .b {
        fill: #f6f7f7;
      }
      svg:hover .b {
        fill: #BE2B22 !important;
      }
    </style>
  </defs>
  <title>tv3</title>
  <polygon class="a b" points="0.08 106.34 0 64.67 221.39 191.43 184.97 212.32 0.08 106.34" />
  <polygon class="a b" points="51.2 289.06 0.43 318.18 0.33 258.71 51.2 289.06" />
  <polygon class="a b" points="0.22 193.59 0.3 235.27 71.66 277.32 107.9 256.53 0.22 193.59" />
  <polygon class="a b" points="165.25 223.63 128.5 244.72 0.19 171.03 0.11 129.35 165.25 223.63" />
  <path class="a" d="M352.43,328.3l-94.62-.44c12.22-70.93,57.84-111.2,134.31-111.2,52.61,0,131.69,31.54,131.69,114.25,0,39.91-23.83,68.37-45.35,75.44,17,9.59,48.4,27.9,48.4,82.42C526.86,541,475.41,600,392.12,600c-103.78,0-134.31-64.83-134.31-115.55h94.62S355.93,518,394.3,518c24.42,0,40.13-13.66,40.13-37.5,0-27.33-21.23-40.12-44.49-40.12H359.42v-68h36.63c17.44,0,37.06-12.65,37.06-37.5S420,295.16,393.86,295.16,352.43,311.29,352.43,328.3Z"
  transform="translate(-73.74 -216.66)" />
</svg>
