<svg xmlns="http://www.w3.org/2000/svg" viewBox="0 0 55.83 43.01"><title>volume_</title><g fill="#f6f7f7"><path d="M34.66 12.25l-3.08 3.08a8.67 8.67 0 0 1 .07 12.26l-.07.07 3.08 3.09a13.09 13.09 0 0 0 0-18.5z"/><path d="M47.16 21.5a21.63 21.63 0 0 0-6.38-15.37l-3 3a17.43 17.43 0 0 1 0 24.63l3 3a21.63 21.63 0 0 0 6.38-15.26z"/><path d="M55.83 21.5A30.28 30.28 0 0 0 46.91 0l-3.07 3.07a26 26 0 0 1 .1 36.77l-.1.1L46.91 43a30.28 30.28 0 0 0 8.92-21.5zM12.13 30.71l13.19 12.2V.1L12.38 12.3H0v18.41h12.13"/></g></svg>