<svg xmlns="http://www.w3.org/2000/svg" viewBox="0 0 55.83 43.01">
  <title>volume_</title>
  <g>
    <path d="M34.66,12.25l-3.08,3.08a8.67,8.67,0,0,1,.07,12.26l-0.07.07,3.08,3.09A13.09,13.09,0,0,0,34.66,12.25Z" transform="translate(0 0)" style="fill:#f6f7f7" />
    <path d="M47.16,21.5A21.63,21.63,0,0,0,40.78,6.13l-3,3a17.43,17.43,0,0,1,0,24.63l3,3A21.63,21.63,0,0,0,47.16,21.5Z" transform="translate(0 0)" style="fill:#f6f7f7" />
    <path d="M55.83,21.5A30.28,30.28,0,0,0,46.91,0L43.84,3.07a26,26,0,0,1,.1,36.77l-0.1.1L46.91,43A30.28,30.28,0,0,0,55.83,21.5Z" transform="translate(0 0)" style="fill:#f6f7f7" />
    <polygon points="12.13 30.71 25.32 42.91 25.32 0.1 12.38 12.3 0 12.3 0 30.71 12.13 30.71" style="fill:#f6f7f7" />
  </g>
</svg>
